<?xml version="1.0" encoding="utf-8"?>
<!-- Generator: Adobe Illustrator 24.2.1, SVG Export Plug-In . SVG Version: 6.00 Build 0)  -->
<svg version="1.1" id="Capa_1" xmlns="http://www.w3.org/2000/svg" xmlns:xlink="http://www.w3.org/1999/xlink" x="0px" y="0px"
	 viewBox="0 0 512 512" style="enable-background:new 0 0 512 512;" xml:space="preserve">
<style type="text/css">
	.st0{fill:#495057;}
</style>
<g>
	<path class="st0" d="M256,169c-30.3,0-55,24.7-55,55c0,25.1,16.9,46.4,40,52.9v171.1c0,8.3,6.7,15,15,15c8.3,0,15-6.7,15-15V277
		c23.1-6.5,40-27.8,40-52.9C311,193.7,286.3,169,256,169z"/>
	<path class="st0" d="M186.6,143.9c-5.9-5.9-15.4-5.9-21.2,0c-46.5,46.5-46.5,121.8,0,168.3c5.9,5.9,15.4,5.9,21.2,0
		c5.9-5.9,5.9-15.4,0-21.2c-34.8-34.8-34.8-91.1,0-125.9C192.5,159.2,192.5,149.7,186.6,143.9L186.6,143.9z"/>
	<path class="st0" d="M346.6,143.9c-5.9-5.9-15.4-5.9-21.2,0c-5.9,5.9-5.9,15.4,0,21.2c34.7,34.7,34.7,91.2,0,125.9
		c-5.9,5.9-5.9,15.4,0,21.2c5.9,5.9,15.4,5.9,21.2,0C393,265.7,393,190.2,346.6,143.9L346.6,143.9z"/>
	<path class="st0" d="M141.3,119.8c5.9-5.9,5.9-15.4,0-21.2c-5.9-5.9-15.4-5.9-21.2,0c-71.4,71.4-71.4,187.5,0,258.8
		c5.9,5.9,15.4,5.9,21.2,0c5.9-5.9,5.9-15.4,0-21.2C81.7,276.5,81.7,179.5,141.3,119.8L141.3,119.8z"/>
	<path class="st0" d="M391.9,98.6c-5.9-5.9-15.4-5.9-21.2,0s-5.9,15.4,0,21.2c59.7,59.7,59.7,156.7,0,216.4
		c-5.9,5.9-5.9,15.4,0,21.2c5.9,5.9,15.4,5.9,21.2,0C463.2,286,463.2,169.9,391.9,98.6z"/>
	<path class="st0" d="M96.1,74.6c5.9-5.9,5.9-15.4,0-21.2c-5.9-5.9-15.4-5.9-21.2,0c-99.9,99.9-99.7,249.6,0,349.3
		c5.9,5.9,15.4,5.9,21.2,0c5.9-5.9,5.9-15.4,0-21.2C8.6,294,8.6,162,96.1,74.6L96.1,74.6z"/>
	<path class="st0" d="M437.1,53.3c-5.9-5.9-15.4-5.9-21.2,0c-5.9,5.9-5.9,15.4,0,21.2c87.5,87.5,87.5,219.4,0,306.9
		c-5.9,5.9-5.9,15.4,0,21.2c5.9,5.9,15.4,5.9,21.2,0C537.1,302.7,536.9,153.1,437.1,53.3L437.1,53.3z"/>
</g>
</svg>
