<svg id="Layer_1" data-name="Layer 1" xmlns="http://www.w3.org/2000/svg" viewBox="0 0 64.74 65.07"><defs><style>.cls-1,.cls-2,.cls-3{fill:none;stroke-linecap:round;stroke-miterlimit:10;}.cls-1{stroke:#a0c452;stroke-width:2.22px;}.cls-2{stroke:#67cce7;stroke-width:2.29px;}.cls-3{stroke:#c98cbc;stroke-width:2.36px;}.cls-4{fill:#c98cbc;}.cls-5{fill:#a0c452;}.cls-6{fill:#67cce7;}</style></defs><circle class="cls-1" cx="32.27" cy="32.6" r="30.76"/><circle class="cls-2" cx="32.14" cy="32.6" r="25.23"/><circle class="cls-3" cx="31.91" cy="32.6" r="19.34"/><path class="cls-4" d="M42.37,29.65a1.48,1.48,0,0,1-1.2-1.1,4.07,4.07,0,0,0-.4-1.46,4.14,4.14,0,0,0-2.64-2.18A3.9,3.9,0,0,0,36,25l-.69.25-.53-.5a8.21,8.21,0,0,0-6-2,6.42,6.42,0,0,0-1.11.24,1.62,1.62,0,0,0,0-1.31,1.6,1.6,0,0,0-1-.88c.22-.07.51-.16.86-.25s.53-.14.88-.19a8,8,0,0,1,1.38-.07,10.43,10.43,0,0,1,3.17.59,9.76,9.76,0,0,1,2.86,1.64,6.19,6.19,0,0,1,2.82,0A6.56,6.56,0,0,1,42.94,26a4.06,4.06,0,0,1,.63,2.31A1.55,1.55,0,0,1,43,29.45,1.11,1.11,0,0,1,42.37,29.65Z"/><path class="cls-5" d="M24.13,42.41a8.17,8.17,0,0,1-2.28-.57,8.82,8.82,0,0,1-2.17-1.29,7.87,7.87,0,0,1-2.88-5.18,8.2,8.2,0,0,1,4.74-8.23,7.69,7.69,0,0,1,1.2-3.28,7.41,7.41,0,0,1,2.79-2.5,1.21,1.21,0,1,1,1.13,2.13,5.08,5.08,0,0,0-1.91,1.7A5.45,5.45,0,0,0,23.89,28l0,.82-.78.28A5.59,5.59,0,0,0,24.25,40a1.7,1.7,0,0,0-.12,2.4Z"/><path class="cls-6" d="M38.71,42.45H25.51a1.21,1.21,0,0,1,0-2.41h13.2c3.11,0,5.77-2.19,5.94-4.89a5,5,0,0,0-.48-2.3,8.11,8.11,0,0,0-1.26-1.91c-.29-.35-.55-.63-.74-.83a1.57,1.57,0,0,0,1.2-.21A1.61,1.61,0,0,0,44,29,8.47,8.47,0,0,1,45.14,30a7.63,7.63,0,0,1,1.92,5.26,7.47,7.47,0,0,1-2.79,5.18A8.74,8.74,0,0,1,38.71,42.45Z"/></svg>