<?xml version="1.0" encoding="utf-8"?>
<!-- Generator: Adobe Illustrator 24.2.1, SVG Export Plug-In . SVG Version: 6.00 Build 0)  -->
<svg version="1.1" id="Layer_1" xmlns="http://www.w3.org/2000/svg" xmlns:xlink="http://www.w3.org/1999/xlink" x="0px" y="0px"
	 viewBox="0 0 2500 1875" style="enable-background:new 0 0 2500 1875;" xml:space="preserve">
<style type="text/css">
	.st0{fill-rule:evenodd;clip-rule:evenodd;fill:#495057;}
</style>
<path class="st0" d="M1940.9,305.7C1770.1,117.9,1523.8,0,1250,0S729.9,117.9,559.1,305.7H1940.9L1940.9,305.7z M559.1,1561.6
	c170.8,187.8,417.1,305.7,690.9,305.7s520.1-117.9,690.9-305.7H559.1z M414.7,385.1C185.7,385.1,0,570.7,0,799.8v267.8
	c0,229,185.7,414.7,414.7,414.7h1670.6c229,0,414.7-185.7,414.7-414.7V799.8c0-229-185.7-414.7-414.7-414.7L414.7,385.1L414.7,385.1
	z M2457.3,795c0-202.9-164.4-367.3-367.3-367.3h-414.7c-202.9,0-367.3,164.4-367.3,367.3v278.4c0,202.9-164.4,367.3-367.3,367.3
	H2090c202.9,0,367.3-164.5,367.3-367.3L2457.3,795L2457.3,795z M1016.6,819.9v392.2h118.5V819.9H1016.6z M1004.7,696.1
	c0,38.9,31.6,70.5,70.5,70.5c38.9,0,70.5-31.6,70.5-70.5s-31.6-70.5-70.5-70.5C1036.3,625.6,1004.7,657.1,1004.7,696.1z
	 M214.5,639.8l152.8,572.3h98.3l114.9-395.7l114.9,395.7h101.9l150.5-572.3H832.9l-87.7,376.8l-109-376.8H530.8l-109,367.3
	l-82.9-367.3H214.5z M1496.4,639.8v572.3H1622V988.2h284.4V872H1622V755.9h303.3V639.8H1496.4z M2010.7,819.9v392.2h118.5V819.9
	L2010.7,819.9L2010.7,819.9z M2000,694.9c0,38.9,31.6,70.5,70.5,70.5c38.9,0,70.5-31.6,70.5-70.5c0-38.9-31.6-70.5-70.5-70.5
	C2031.6,624.4,2000,656,2000,694.9z"/>
</svg>
