<?xml version="1.0" encoding="utf-8"?>
<!-- Generator: Adobe Illustrator 24.2.1, SVG Export Plug-In . SVG Version: 6.00 Build 0)  -->
<svg version="1.1" id="Layer_1" xmlns="http://www.w3.org/2000/svg" xmlns:xlink="http://www.w3.org/1999/xlink" x="0px" y="0px"
	 viewBox="0 0 1182 741" style="enable-background:new 0 0 1182 741;" xml:space="preserve">
<style type="text/css">
	.st0{fill:#FCEBF2;}
	.st1{clip-path:url(#SVGID_2_);}
	.st2{fill:#CA8DBD;}
	.st3{fill:#A0C556;}
	.st4{fill:#66CBE8;}
	.st5{fill:#DCC5DF;}
	.st6{fill:#CCE2A6;}
	.st7{fill:#C3E7EF;}
	.st8{clip-path:url(#SVGID_4_);}
	.st9{clip-path:url(#SVGID_6_);}
	.st10{fill:#9FDAEA;}
	.st11{clip-path:url(#SVGID_8_);fill:#C3E7EF;}
	.st12{fill:none;stroke:#3D1F0F;stroke-width:1.6876;stroke-linecap:round;stroke-linejoin:round;stroke-miterlimit:10;}
	.st13{fill:#FFD7A8;}
	.st14{clip-path:url(#SVGID_10_);fill:#E3C29A;}
	.st15{clip-path:url(#SVGID_12_);fill:#DCC5DF;}
	.st16{clip-path:url(#SVGID_14_);fill:#DCC5DF;}
	.st17{clip-path:url(#SVGID_16_);fill:#DCC5DF;}
	.st18{clip-path:url(#SVGID_18_);fill:#DCC5DF;}
	.st19{clip-path:url(#SVGID_20_);fill:#DCC5DF;}
	.st20{clip-path:url(#SVGID_22_);fill:#DCC5DF;}
	.st21{clip-path:url(#SVGID_24_);fill:#DCC5DF;}
	.st22{clip-path:url(#SVGID_26_);fill:#DCC5DF;}
	.st23{clip-path:url(#SVGID_28_);fill:#DCC5DF;}
	.st24{clip-path:url(#SVGID_30_);fill:#DCC5DF;}
	.st25{clip-path:url(#SVGID_32_);fill:#DCC5DF;}
	.st26{opacity:0.15;clip-path:url(#SVGID_34_);enable-background:new    ;}
	.st27{opacity:0.15;clip-path:url(#SVGID_36_);enable-background:new    ;}
	.st28{fill:none;stroke:#3D1F0F;stroke-width:0.6778;stroke-linecap:round;stroke-linejoin:round;stroke-miterlimit:10;}
	.st29{fill:none;stroke:#3D1F0F;stroke-width:1.6083;stroke-linecap:round;stroke-linejoin:round;stroke-miterlimit:10;}
	.st30{fill:#DCDBD6;}
	.st31{clip-path:url(#SVGID_38_);fill:#EFEFEF;}
	.st32{clip-path:url(#SVGID_40_);fill:#EFEFEF;}
	.st33{fill:#5F3713;}
	.st34{clip-path:url(#SVGID_42_);fill:#E3C29A;}
	.st35{clip-path:url(#SVGID_44_);fill:#DCC5DF;}
	.st36{clip-path:url(#SVGID_46_);fill:#DCC5DF;}
	.st37{clip-path:url(#SVGID_48_);fill:#DCC5DF;}
	.st38{clip-path:url(#SVGID_50_);fill:#DCC5DF;}
	.st39{opacity:0.15;clip-path:url(#SVGID_52_);enable-background:new    ;}
	.st40{opacity:0.15;clip-path:url(#SVGID_54_);enable-background:new    ;}
	.st41{fill:#FBE0EB;}
	.st42{clip-path:url(#SVGID_56_);fill:#E3C29A;}
	.st43{opacity:0.15;clip-path:url(#SVGID_58_);enable-background:new    ;}
	.st44{opacity:0.15;clip-path:url(#SVGID_60_);enable-background:new    ;}
	.st45{clip-path:url(#SVGID_62_);fill:#E3C29A;}
	.st46{opacity:0.15;clip-path:url(#SVGID_64_);enable-background:new    ;}
	.st47{opacity:0.15;clip-path:url(#SVGID_66_);enable-background:new    ;}
	.st48{clip-path:url(#SVGID_68_);fill:#E3C29A;}
	.st49{clip-path:url(#SVGID_70_);fill:#DCC5DF;}
	.st50{clip-path:url(#SVGID_72_);fill:#DCC5DF;}
	.st51{clip-path:url(#SVGID_74_);fill:#DCC5DF;}
	.st52{clip-path:url(#SVGID_76_);fill:#DCC5DF;}
	.st53{clip-path:url(#SVGID_78_);fill:#DCC5DF;}
	.st54{clip-path:url(#SVGID_80_);fill:#DCC5DF;}
	.st55{clip-path:url(#SVGID_82_);fill:#DCC5DF;}
	.st56{clip-path:url(#SVGID_84_);fill:#DCC5DF;}
	.st57{clip-path:url(#SVGID_86_);fill:#DCC5DF;}
	.st58{clip-path:url(#SVGID_88_);fill:#DCC5DF;}
	.st59{clip-path:url(#SVGID_90_);fill:#DCC5DF;}
	.st60{opacity:0.15;clip-path:url(#SVGID_92_);enable-background:new    ;}
	.st61{opacity:0.15;clip-path:url(#SVGID_94_);enable-background:new    ;}
	.st62{fill:none;stroke:#3D1F0F;stroke-width:0.8041;stroke-linecap:round;stroke-linejoin:round;stroke-miterlimit:10;}
	.st63{opacity:0.37;fill:#2C190D;enable-background:new    ;}
	.st64{fill:#3D1F0F;}
	.st65{fill:none;stroke:#3D1F0F;stroke-width:1.7666;stroke-linecap:round;stroke-linejoin:round;stroke-miterlimit:10;}
	.st66{fill:none;stroke:#3D1F0F;stroke-width:1.6569;stroke-linecap:round;stroke-linejoin:round;stroke-miterlimit:10;}
	.st67{fill:none;stroke:#3D1F0F;stroke-width:1.3772;stroke-linecap:round;stroke-linejoin:round;stroke-miterlimit:10.0002;}
	.st68{fill:none;stroke:#3D1F0F;stroke-width:1.3772;stroke-linecap:round;stroke-linejoin:round;stroke-miterlimit:9.9997;}
	.st69{fill:none;stroke:#3D1F0F;stroke-width:1.3772;stroke-linecap:round;stroke-linejoin:round;stroke-miterlimit:10;}
	.st70{fill:none;stroke:#3D1F0F;stroke-width:1.8797;stroke-linecap:round;stroke-linejoin:round;stroke-miterlimit:10;}
</style>
<g>
	<g>
		<rect id="XMLID_19_" x="-0.2" y="0.1" class="st0" width="1182" height="741.1"/>
	</g>
	<g>
		<defs>
			<rect id="SVGID_1_" x="-0.2" y="0.1" width="1182" height="741.1"/>
		</defs>
		<clipPath id="SVGID_2_">
			<use xlink:href="#SVGID_1_"  style="overflow:visible;"/>
		</clipPath>
		<g class="st1">
			<path class="st2" d="M1204,329.7c-10.6,0-27,0.9-46.3,5.1c-73.2,16.1-118.1,65.9-139.4,90.2c-13.3,15.2-28.6,40.8-58.5,91.3
				c-62.6,105.7-67.2,123.3-93.3,141.8c-23.4,16.6-64.5,34.4-139.4,25.8c54.7,32.9,109.4,65.9,164.1,98.8
				C995.5,631.7,1099.8,480.7,1204,329.7z"/>
			<path class="st3" d="M1228.7,328.5c-5.6,0.8-16.3,2.9-28.1,8.6c-97.1,46.8-38,227.6-138.4,359.7c-20.3,26.7-56.9,64.2-124.8,94.5
				c-19.7-2.1-56.1-8.5-93.3-32.2c-25.6-16.3-42.4-34.9-52.7-48.3c31.7,11,55.1,9.3,69.7,6.4c147.3-29.1,144.4-333.4,317-382.3
				C1199.4,328.9,1217.8,328.3,1228.7,328.5z"/>
			<path class="st4" d="M1242,329.5c-6.7,0.5-16.7,2.2-27,7.5c-46,23.9-50.5,97.4-54,167.5c-3.2,66.4,5.3,77.9-4.5,131
				c-7.9,42.9-19.4,68.7-25.9,81.6c-12.1,24.2-33,64.8-77.7,85.6c-4.6,2.1-8.5,3.7-11.2,4.6c-52.5-8.2-104.9-16.5-157.4-24.7
				c16.4-0.4,41.3-2.9,67.4-15c55.8-25.8,79.7-77.4,98.9-120.3c14.6-32.6,26.6-80.1,50.6-175.1c6.6-26.1,12.1-49.1,29.2-76.3
				c10.4-16.4,37.5-59.5,84.3-66.6C1226.2,327.8,1235.8,328.5,1242,329.5z"/>
			<path class="st4" d="M1053.1,802.8c-23.8-1.9-60.3-7.9-97.6-28.6c-35.8-19.9-57.7-45.2-78-69.1c-49.7-58.4-52.9-93.8-94.8-109.9
				c-21.7-8.3-45.3-8.3-45.3-8.3c-22.9,0-40.7,6.1-50.8,10.4c7.1,19,61.1,155.5,206.7,199.6C960.6,817.3,1020.1,809.7,1053.1,802.8z
				"/>
			<path class="st3" d="M1053.1,802.8c-24.4,10.1-60.1,21.4-104.3,24.3c-79.1,5.1-140.2-19.7-169.1-33.9
				c-47-60.6-94.1-121.2-141.1-181.8c41.1-18.5,69-16.1,86.3-11.3c55.2,15.5,53.2,70.7,135.1,140.2c51,43.4,90.2,54.6,101.6,57.6
				C998.8,807.7,1031.7,805.8,1053.1,802.8z"/>
			<path class="st2" d="M1053.2,802.9c-21.9,9.8-50.8,19.8-85.6,24.6c-71.2,9.9-131.1-6.9-168.1-21.7c-13.6-5.5-26.3-12.9-37.6-22
				c-4.9-3.9-9.8-7.9-14.8-11.8c-19-15.2-37.1-31.3-54.4-48.1c-21.8-21.1-49.2-43.1-83.3-62.4c-12.2-6.9-24.1-12.8-35.6-18
				c21.6-10.7,43.3-21.4,64.9-32.1c2.8,1.8,7.1,4.7,12.2,8.5c45.4,33,66.5,64.8,94.5,97.4c30.2,35.2,45.3,52.8,68.1,67.9
				c71.7,47.2,153.8,38.2,168,36.6C1013,818.3,1037.7,809.5,1053.2,802.9z"/>
			<path class="st5" d="M612.2,586.9c-22.8,1.8-45.6,3.7-68.4,5.5c-15.5,1.2-27.5,13.6-27.3,28.5c0,0.1,0,0.2,0,0.3
				c0.3,20.2,7.7,28.7,8.2,42.9c0.4,10.4-2.7,25.8-20.5,45.1c13.5-5.2,30.2-13.3,46.9-26.5C593.6,649.2,607.6,605.5,612.2,586.9z"/>
			<path class="st6" d="M669.6,582.9c-16.5,0.9-33.4,2.1-50.6,3.4c-4.6,0.4-9.3,0.8-13.9,1.2c-23.7,2.1-44,17.2-51.5,38.8
				c-0.1,0.2-0.1,0.3-0.2,0.5c-5.4,15.6-5.7,22-9.3,32c0,0-2,5.5-5.7,12.9c-4.2,8.1-13.4,22.7-34.2,37.7
				c22.1-6.6,44.2-13.2,66.3-19.8C603.7,654,636.7,618.4,669.6,582.9z"/>
			<path class="st7" d="M769.6,591.1c-11.5-2.7-24.4-5.1-38.5-6.8c-23.2-2.7-44-2.7-61.5-1.5c-10.2,1.7-25.1,5.5-39.8,15.1
				c-24.9,16.3-30.9,37.5-45,57c-12.4,17.3-35.2,38.9-80.6,54.2c17.4-0.1,42.5-2,71.1-10.6c10.4-3.2,29.9-9.2,51.2-22.1
				c41.8-25.3,42.9-48.3,77.4-67.9C717.1,601.2,738,592.5,769.6,591.1z"/>
		</g>
	</g>
	<g>
		<defs>
			<rect id="SVGID_3_" x="-0.2" y="0.1" width="1182" height="741.1"/>
		</defs>
		<clipPath id="SVGID_4_">
			<use xlink:href="#SVGID_3_"  style="overflow:visible;"/>
		</clipPath>
		<g class="st8">
			<path class="st5" d="M-110.5,63.5c11.2,3.1,28.3,8.7,47.5,18.9C9.7,121.1,42.3,189.1,57.7,222.1c9.6,20.7,18.1,53.3,34.6,117.8
				c34.7,135,34.3,155.8,56.4,183.7c19.8,25,58.1,56.5,139.9,68.3c-67.8,20.9-135.5,41.8-203.3,62.7
				C20.1,457.6-45.2,260.6-110.5,63.5z"/>
			<path class="st6" d="M-136.2,55.1c5.7,2.5,16.4,7.9,27.2,17.5c88.9,79.5-27.8,263.1,39.1,438.1C-56.4,546.1-28.9,598,34,651
				c21.5,3.3,61.9,6.5,108.4-9.1c31.9-10.7,55.3-26.5,70.2-38.4c-36.8,3.1-61.1-5.4-75.7-12.7C-10.4,516.5,83.5,180.1-84.6,76.7
				C-105.3,63.9-124.7,58-136.2,55.1z"/>
			<path class="st7" d="M-150.6,52.4c6.9,2.5,17,7.2,26.3,16c41.6,39.6,24.4,122.4,7.1,201.1c-16.4,74.6-28.9,84.8-34.4,146.5
				c-4.4,49.8,0,81.6,3,97.8c5.5,30.2,15.6,81.2,56.6,117c4.2,3.7,7.9,6.5,10.4,8.3c58,5.8,116,11.7,174,17.5
				c-17.3-5.1-42.8-15-66.9-35.9c-51.3-44.5-61.3-108.5-68.8-161.5c-5.7-40.3-4.2-96.4-1.3-208.4c0.8-30.7,1.8-57.8-8.2-92.8
				c-6.1-21.2-21.9-76.6-69.4-97.8C-133.4,55-143.8,53.1-150.6,52.4z"/>
			<path class="st4" d="M-92,630.8c25.8,4.7,66.2,8.4,111.9-3.9c43.8-11.8,74.6-33.6,103.2-54.3c70-50.6,84-88.9,133.2-94.7
				c25.4-3,50.4,3.7,50.4,3.7c24.2,6.5,41.3,18.4,50.7,26c-13.2,19-111.2,154.8-278.5,162.2C1.6,673.3-59.1,647.9-92,630.8z"/>
			<path class="st3" d="M-92,630.8c22.8,18.1,57.2,40.9,103.2,56.7c82.2,28.3,154.3,18.1,189.1,10.7
				C268.2,644.5,336.1,590.7,404,537c-37.9-32.2-68.2-37.6-88-37.1c-63.1,1.4-77.5,63.1-184.9,116.9
				C64.2,650.3,19.3,651.6,6.3,651.6C-36,651.8-70.2,640.3-92,630.8z"/>
			<path class="st2" d="M-92.2,630.9c20.3,17.1,47.9,36.4,83.3,51.7c72.5,31.3,140.9,29.8,184.4,23.9c16.1-2.2,31.7-6.8,46.4-13.6
				c6.4-3,12.8-5.9,19.1-8.9c24.6-11.4,48.6-24.1,72-37.7c29.3-17.1,65-33.7,106.8-45.3c14.9-4.2,29.4-7.4,43.1-9.8
				c-19.7-18-39.4-36.1-59.1-54.1c-3.5,1.2-8.9,3.2-15.4,5.9c-57.9,23.6-89.7,52.8-129.1,81c-42.5,30.4-63.7,45.6-92.4,55.8
				c-90,31.9-174.3-1.5-188.8-7.4C-54.2,659.4-77.8,642.6-92.2,630.9z"/>
			<path class="st5" d="M439.2,517.4c23.6,8.5,47.2,17.1,70.7,25.6c16,5.8,25,23,20.4,39.3c0,0.1-0.1,0.3-0.1,0.4
				c-6.4,22.3-16.7,29.7-21.5,45.2c-3.6,11.4-4.8,29.3,8.2,55.8c-12.8-9.6-28-23.4-41.7-42.7C440.3,591.8,438.6,539.3,439.2,517.4z"
				/>
			<path class="st6" d="M379.6,496.6c17.2,5.7,34.7,11.8,52.5,18.3c4.8,1.7,9.6,3.5,14.3,5.2c24.5,9.1,41.4,31.6,43,57.6
				c0,0.2,0,0.4,0,0.6c1.1,18.9-0.5,26.1,0.3,38.1c0,0,0.4,6.7,2.2,15.9c2,10.2,7.4,29,24.9,51.5c-21.4-13.6-42.9-27.2-64.3-40.8
				C428.3,594.1,404,545.4,379.6,496.6z"/>
			<path class="st7" d="M271.3,477.2c13,0.3,27.3,1.3,42.7,3.5c25.4,3.6,47.4,9.6,65.6,15.9c10.3,4.8,24.9,13.2,37.6,28.1
				c21.5,25.2,21.5,50.4,30.6,76c8,22.7,25.7,53.2,69.1,83.1c-18.4-5.1-44.4-14.3-72.1-32.1c-10.1-6.5-29-18.7-47.7-39.1
				c-36.7-40-31-65.7-61.7-97.3C324,503.4,304.4,487.7,271.3,477.2z"/>
		</g>
	</g>
	<g>
		<defs>
			<rect id="SVGID_5_" x="-0.2" y="0.1" width="1182" height="741.1"/>
		</defs>
		<clipPath id="SVGID_6_">
			<use xlink:href="#SVGID_5_"  style="overflow:visible;"/>
		</clipPath>
		<g class="st9">
			<g>
				<g>
					<g>
						<path id="XMLID_35_" class="st10" d="M552,916.7c-24.6,2.7-45,4.5-64.3,5.5c-70.1,3.6-131.8-29.8-157.3-85.1
							c-19.2-41.6-9.4-81.9-5.9-93.2c15.1-49.6,54.1-78.3,81-92.8c-0.6-20.7,3.4-48.3,21.3-75.6c34.8-53.1,95-64.5,114.7-68.2
							c5-0.9,10-1.7,15-2.3c57.6-6.4,104.2,13.2,130.1,28c7.6-2.3,17.5-4.7,28.7-5.9c25.7-2.9,50,0.8,72,10.9
							c37.3,17.1,62.7,50.9,68.1,89.7c24.2,10.2,60.1,31.2,79.5,71.3c12.2,25.2,15.8,50.9,10.7,76.5c-6.2,31-24.7,58.7-53.5,80.1
							c-26.5,19.7-54.4,27.2-73.2,30.1l-0.6,0.1l-164.6,18.6c-16.8,1.9-33.9,4-50.4,6.1C586.6,912.6,569.3,914.8,552,916.7z"/>
					</g>
					<g>
						<defs>
							<path id="SVGID_7_" d="M552,916.7c-24.6,2.7-45,4.5-64.3,5.5c-70.1,3.6-131.8-29.8-157.3-85.1c-19.2-41.6-9.4-81.9-5.9-93.2
								c15.1-49.6,54.1-78.3,81-92.8c-0.6-20.7,3.4-48.3,21.3-75.6c34.8-53.1,95-64.5,114.7-68.2c5-0.9,10-1.7,15-2.3
								c57.6-6.4,104.2,13.2,130.1,28c7.6-2.3,17.5-4.7,28.7-5.9c25.7-2.9,50,0.8,72,10.9c37.3,17.1,62.7,50.9,68.1,89.7
								c24.2,10.2,60.1,31.2,79.5,71.3c12.2,25.2,15.8,50.9,10.7,76.5c-6.2,31-24.7,58.7-53.5,80.1c-26.5,19.7-54.4,27.2-73.2,30.1
								l-0.6,0.1l-164.6,18.6c-16.8,1.9-33.9,4-50.4,6.1C586.6,912.6,569.3,914.8,552,916.7z"/>
						</defs>
						<clipPath id="SVGID_8_">
							<use xlink:href="#SVGID_7_"  style="overflow:visible;"/>
						</clipPath>
						<path id="XMLID_36_" class="st11" d="M607.1,926.5c-24.6,2.7-45,4.5-64.3,5.5c-70.1,3.6-131.8-29.8-157.3-85.1
							c-19.2-41.6-9.4-81.9-5.9-93.2c15.1-49.6,54.1-78.3,81-92.8c-1.4-5.7-2.8-14.1-1.8-24.1c1.8-17.4,9.8-29.6,14-35.2
							c3,8.8,6.3,17.9,9.9,27.2c3.6,9.4,7.3,18.5,11.1,27.1c-4.7,0.8-10.2,2.2-16.1,4.6c-12,4.9-20.5,11.9-25.7,17
							c4.1-3.1,11.8-8.1,22.7-10.6c10.2-2.3,18.8-1.5,23.8-0.6c14.9,14.3,29.8,28.6,44.7,42.8c20.2,10.9,90,45.4,151.3,18.7
							c9.9-4.3,20.9-9.3,23.4-19.1c6.9-27.5-60.3-67.9-117.8-97.5c-14.9,1.6-83.2,8.2-91.8-14.2c-8.1-21.1,36.3-68.2,88.3-79.9
							c2.7-0.6,7.4-1.4,15-2.3c57.6-6.4,104.2,13.2,130.1,28c7.6-2.3,17.5-4.7,28.7-5.9c25.7-2.9,50,0.8,72,10.9
							c37.3,17.1,62.7,50.9,68.1,89.7c24.2,10.2,60.1,31.2,79.5,71.3c12.2,25.2,15.8,50.9,10.7,76.5c-6.2,31-24.7,58.7-53.5,80.1
							c-26.5,19.7-54.4,27.2-73.2,30.1l-0.6,0.1l-164.6,18.6c-16.8,1.9-33.9,4-50.4,6.1C641.7,922.3,624.4,924.5,607.1,926.5z"/>
					</g>
				</g>
				<path id="XMLID_34_" class="st12" d="M552,916.7c-24.6,2.7-45,4.5-64.3,5.5c-70.1,3.6-131.8-29.8-157.3-85.1
					c-19.2-41.6-9.4-81.9-5.9-93.2c15.1-49.6,54.1-78.3,81-92.8c-0.6-20.7,3.4-48.3,21.3-75.6c34.8-53.1,95-64.5,114.7-68.2
					c5-0.9,10-1.7,15-2.3c57.6-6.4,104.2,13.2,130.1,28c7.6-2.3,17.5-4.7,28.7-5.9c25.7-2.9,50,0.8,72,10.9
					c37.3,17.1,62.7,50.9,68.1,89.7c24.2,10.2,60.1,31.2,79.5,71.3c12.2,25.2,15.8,50.9,10.7,76.5c-6.2,31-24.7,58.7-53.5,80.1
					c-26.5,19.7-54.4,27.2-73.2,30.1l-0.6,0.1l-164.6,18.6c-16.8,1.9-33.9,4-50.4,6.1C586.6,912.6,569.3,914.8,552,916.7z"/>
			</g>
			<g>
				<g>
					<g>
						<path id="XMLID_33_" class="st13" d="M592.8,496.4c-0.3-2.5-0.5-4.9-0.8-7.4c1.2-0.7,3-2.1,4.7-4.3c1.2-1.6,1.9-3.2,2.3-4.3
							c2.2-2.5,4.2-3.7,5.7-4.4c4.3-2.1,7.8-1.5,9.5-4.1c0.2-0.4,1-1.7,0.7-3.1c0-0.2-0.2-0.8-0.9-1.6c-1.6-1.9-4.1-2.1-4.7-2.2
							c-4.3-0.5-7.6,2.7-8.2,3.3c2.6-2.5,3.6-6,2.5-8.8c-0.2-0.4-1.5-3.6-4.5-3.9c-1.6-0.2-2.8,0.4-3.3,0.7c0-0.6,0-1.6-0.3-2.7
							c-0.2-0.8-1-3.5-3.6-4.7c-2.1-1-4.2-0.4-4.8-0.2c-0.1-0.9-0.4-2.6-1.8-3.9c-2.7-2.7-7.9-2.2-9.9,0.1c-1.8,2-0.4,4.8,0.1,10.2
							c0.5,5.6-0.2,10.2-0.9,13.4c-1.4,1.5-2.5,1.7-3.2,1.7c-2.4-0.1-2.9-3.3-6.7-5.1c-1-0.5-2.7-1.3-4.5-0.9
							c-3.3,0.8-5.2,5.5-5.3,8.1c-0.2,6.1,8.7,12.6,21.9,16.4l0.9,7.3L592.8,496.4z"/>
					</g>
					<g>
						<defs>
							<path id="SVGID_9_" d="M592.8,496.4c-0.3-2.5-0.5-4.9-0.8-7.4c1.2-0.7,3-2.1,4.7-4.3c1.2-1.6,1.9-3.2,2.3-4.3
								c2.2-2.5,4.2-3.7,5.7-4.4c4.3-2.1,7.8-1.5,9.5-4.1c0.2-0.4,1-1.7,0.7-3.1c0-0.2-0.2-0.8-0.9-1.6c-1.6-1.9-4.1-2.1-4.7-2.2
								c-4.3-0.5-7.6,2.7-8.2,3.3c2.6-2.5,3.6-6,2.5-8.8c-0.2-0.4-1.5-3.6-4.5-3.9c-1.6-0.2-2.8,0.4-3.3,0.7c0-0.6,0-1.6-0.3-2.7
								c-0.2-0.8-1-3.5-3.6-4.7c-2.1-1-4.2-0.4-4.8-0.2c-0.1-0.9-0.4-2.6-1.8-3.9c-2.7-2.7-7.9-2.2-9.9,0.1c-1.8,2-0.4,4.8,0.1,10.2
								c0.5,5.6-0.2,10.2-0.9,13.4c-1.4,1.5-2.5,1.7-3.2,1.7c-2.4-0.1-2.9-3.3-6.7-5.1c-1-0.5-2.7-1.3-4.5-0.9
								c-3.3,0.8-5.2,5.5-5.3,8.1c-0.2,6.1,8.7,12.6,21.9,16.4l0.9,7.3L592.8,496.4z"/>
						</defs>
						<clipPath id="SVGID_10_">
							<use xlink:href="#SVGID_9_"  style="overflow:visible;"/>
						</clipPath>
						<path class="st14" d="M557.1,458.5c2.1-2.1,4.6-3,6.4-3.5c-0.8,1.5-2,4.3-1.2,7.1c0.5,1.6,1.5,2.6,1.9,3.1
							c7.2,7.4,6.9,10.7,13,14.6c2.1,1.3,5.6,3.2,10.7,4.1c0.2,4.8,0.8,10,2.1,15.5c5.2,22.1,18.3,37.3,26.8,45.5
							c-20.5-0.9-36.7-9.7-38.6-10.7c1.7-2.5,3.3-5.1,5-7.6c0.5-1.8,1.1-4.3,1.6-7.4c1.3-8.5,3-18.7-1.1-25.5
							c-6.4-10.7-22.6-5.5-28.4-15.5C552.2,472.5,552.1,463.5,557.1,458.5z"/>
					</g>
				</g>
				<g>
					<g>
						<g>
							<path id="XMLID_32_" class="st2" d="M599.2,492.9c0.7-0.2,1.4,0.3,1.4,1c0.3,5.1,0.5,10.1,0.8,15.2
								c0.9,33.3,1.8,66.6,2.8,99.9c0.6,20.7-12.5,39.3-32.1,45.8c-0.3,0.1-0.5,0.2-0.8,0.3c-24.6,8.2-51.1-5.1-59.4-29.6
								c-4.4-10-8.8-20.7-12.9-32.2c-6.6-18.3-11.5-35.6-15.2-51.6l0,0c-2.3-8.3,2.3-17,10.4-19.7c8.1-2.8,17.2,1.3,20.5,9.4l0,0
								l27.9,83.1c2.5,7.5,10.5,12,18.1,9.9c6.7-1.8,11.2-8,11-14.8l-1.8-113.8c0-0.6,0.4-1.2,1.1-1.3c4.5-0.9,8.1-1,10.6-0.9
								c4,0.2,6.2,0.8,10.3,0.6C594.8,493.9,597.3,493.4,599.2,492.9z"/>
						</g>
						<g>
							<defs>
								<path id="SVGID_11_" d="M599.2,492.9c0.7-0.2,1.4,0.3,1.4,1c0.3,5.1,0.5,10.1,0.8,15.2c0.9,33.3,1.8,66.6,2.8,99.9
									c0.6,20.7-12.5,39.3-32.1,45.8c-0.3,0.1-0.5,0.2-0.8,0.3c-24.6,8.2-51.1-5.1-59.4-29.6c-4.4-10-8.8-20.7-12.9-32.2
									c-6.6-18.3-11.5-35.6-15.2-51.6l0,0c-2.3-8.3,2.3-17,10.4-19.7c8.1-2.8,17.2,1.3,20.5,9.4l0,0l27.9,83.1
									c2.5,7.5,10.5,12,18.1,9.9c6.7-1.8,11.2-8,11-14.8l-1.8-113.8c0-0.6,0.4-1.2,1.1-1.3c4.5-0.9,8.1-1,10.6-0.9
									c4,0.2,6.2,0.8,10.3,0.6C594.8,493.9,597.3,493.4,599.2,492.9z"/>
							</defs>
							<clipPath id="SVGID_12_">
								<use xlink:href="#SVGID_11_"  style="overflow:visible;"/>
							</clipPath>
							<path class="st15" d="M483.3,549.2c4.8,0.5,11.1,0.4,18.2-2c7.8-2.6,13.9-7.2,18.2-11.1c0.8,3.8,1.5,7.6,2.3,11.3
								c-4,3.5-9.1,7.1-15.3,9.6c-9.3,3.7-17.6,3.6-23.6,2.6C483.2,556.1,483.3,552.7,483.3,549.2z"/>
						</g>
						<g>
							<defs>
								<path id="SVGID_13_" d="M599.2,492.9c0.7-0.2,1.4,0.3,1.4,1c0.3,5.1,0.5,10.1,0.8,15.2c0.9,33.3,1.8,66.6,2.8,99.9
									c0.6,20.7-12.5,39.3-32.1,45.8c-0.3,0.1-0.5,0.2-0.8,0.3c-24.6,8.2-51.1-5.1-59.4-29.6c-4.4-10-8.8-20.7-12.9-32.2
									c-6.6-18.3-11.5-35.6-15.2-51.6l0,0c-2.3-8.3,2.3-17,10.4-19.7c8.1-2.8,17.2,1.3,20.5,9.4l0,0l27.9,83.1
									c2.5,7.5,10.5,12,18.1,9.9c6.7-1.8,11.2-8,11-14.8l-1.8-113.8c0-0.6,0.4-1.2,1.1-1.3c4.5-0.9,8.1-1,10.6-0.9
									c4,0.2,6.2,0.8,10.3,0.6C594.8,493.9,597.3,493.4,599.2,492.9z"/>
							</defs>
							<clipPath id="SVGID_14_">
								<use xlink:href="#SVGID_13_"  style="overflow:visible;"/>
							</clipPath>
							<path class="st16" d="M492.1,578.8c4.9,0,11.1-0.9,17.8-4.1c7.4-3.5,13-8.7,16.8-13.2c1.2,3.7,2.4,7.3,3.6,11
								c-3.5,3.9-8.2,8.1-14.1,11.3c-8.8,4.8-17,5.6-23.1,5.3C492.8,585.7,492.5,582.2,492.1,578.8z"/>
						</g>
						<g>
							<defs>
								<path id="SVGID_15_" d="M599.2,492.9c0.7-0.2,1.4,0.3,1.4,1c0.3,5.1,0.5,10.1,0.8,15.2c0.9,33.3,1.8,66.6,2.8,99.9
									c0.6,20.7-12.5,39.3-32.1,45.8c-0.3,0.1-0.5,0.2-0.8,0.3c-24.6,8.2-51.1-5.1-59.4-29.6c-4.4-10-8.8-20.7-12.9-32.2
									c-6.6-18.3-11.5-35.6-15.2-51.6l0,0c-2.3-8.3,2.3-17,10.4-19.7c8.1-2.8,17.2,1.3,20.5,9.4l0,0l27.9,83.1
									c2.5,7.5,10.5,12,18.1,9.9c6.7-1.8,11.2-8,11-14.8l-1.8-113.8c0-0.6,0.4-1.2,1.1-1.3c4.5-0.9,8.1-1,10.6-0.9
									c4,0.2,6.2,0.8,10.3,0.6C594.8,493.9,597.3,493.4,599.2,492.9z"/>
							</defs>
							<clipPath id="SVGID_16_">
								<use xlink:href="#SVGID_15_"  style="overflow:visible;"/>
							</clipPath>
							<path class="st17" d="M503.9,607.6c4.9,0,11.1-0.9,17.8-4.1c7.4-3.5,13-8.7,16.8-13.2c1.2,3.7,2.4,7.3,3.6,11
								c-3.5,3.9-8.2,8.1-14.1,11.3c-8.8,4.8-17,5.6-23.1,5.3C504.6,614.5,504.2,611,503.9,607.6z"/>
						</g>
						<g>
							<defs>
								<path id="SVGID_17_" d="M599.2,492.9c0.7-0.2,1.4,0.3,1.4,1c0.3,5.1,0.5,10.1,0.8,15.2c0.9,33.3,1.8,66.6,2.8,99.9
									c0.6,20.7-12.5,39.3-32.1,45.8c-0.3,0.1-0.5,0.2-0.8,0.3c-24.6,8.2-51.1-5.1-59.4-29.6c-4.4-10-8.8-20.7-12.9-32.2
									c-6.6-18.3-11.5-35.6-15.2-51.6l0,0c-2.3-8.3,2.3-17,10.4-19.7c8.1-2.8,17.2,1.3,20.5,9.4l0,0l27.9,83.1
									c2.5,7.5,10.5,12,18.1,9.9c6.7-1.8,11.2-8,11-14.8l-1.8-113.8c0-0.6,0.4-1.2,1.1-1.3c4.5-0.9,8.1-1,10.6-0.9
									c4,0.2,6.2,0.8,10.3,0.6C594.8,493.9,597.3,493.4,599.2,492.9z"/>
							</defs>
							<clipPath id="SVGID_18_">
								<use xlink:href="#SVGID_17_"  style="overflow:visible;"/>
							</clipPath>
							<path class="st18" d="M518.7,642.2c4.6-1.5,10.3-4.2,15.8-9.2c6.1-5.6,9.8-12.2,12.1-17.6c2.2,3.1,4.4,6.3,6.7,9.4
								c-2.2,4.8-5.4,10.2-10.1,15c-7,7.2-14.6,10.4-20.5,11.9C521.3,648.6,520,645.4,518.7,642.2z"/>
						</g>
						<g>
							<defs>
								<path id="SVGID_19_" d="M599.2,492.9c0.7-0.2,1.4,0.3,1.4,1c0.3,5.1,0.5,10.1,0.8,15.2c0.9,33.3,1.8,66.6,2.8,99.9
									c0.6,20.7-12.5,39.3-32.1,45.8c-0.3,0.1-0.5,0.2-0.8,0.3c-24.6,8.2-51.1-5.1-59.4-29.6c-4.4-10-8.8-20.7-12.9-32.2
									c-6.6-18.3-11.5-35.6-15.2-51.6l0,0c-2.3-8.3,2.3-17,10.4-19.7c8.1-2.8,17.2,1.3,20.5,9.4l0,0l27.9,83.1
									c2.5,7.5,10.5,12,18.1,9.9c6.7-1.8,11.2-8,11-14.8l-1.8-113.8c0-0.6,0.4-1.2,1.1-1.3c4.5-0.9,8.1-1,10.6-0.9
									c4,0.2,6.2,0.8,10.3,0.6C594.8,493.9,597.3,493.4,599.2,492.9z"/>
							</defs>
							<clipPath id="SVGID_20_">
								<use xlink:href="#SVGID_19_"  style="overflow:visible;"/>
							</clipPath>
							<path class="st19" d="M560.8,658.2c1.8-4.5,3.3-10.6,2.9-18.1c-0.5-8.2-3.2-15.3-5.9-20.5c2.9-0.8,5.8-1.6,8.8-2.4
								c3.2,4.3,5,8.4,5.9,11.2c0.3,0.7,1.4,4.4,2,9.4c1.1,9.9-1.2,17.9-3.8,23.4C567.4,660.2,564.1,659.2,560.8,658.2z"/>
						</g>
						<g>
							<defs>
								<path id="SVGID_21_" d="M599.2,492.9c0.7-0.2,1.4,0.3,1.4,1c0.3,5.1,0.5,10.1,0.8,15.2c0.9,33.3,1.8,66.6,2.8,99.9
									c0.6,20.7-12.5,39.3-32.1,45.8c-0.3,0.1-0.5,0.2-0.8,0.3c-24.6,8.2-51.1-5.1-59.4-29.6c-4.4-10-8.8-20.7-12.9-32.2
									c-6.6-18.3-11.5-35.6-15.2-51.6l0,0c-2.3-8.3,2.3-17,10.4-19.7c8.1-2.8,17.2,1.3,20.5,9.4l0,0l27.9,83.1
									c2.5,7.5,10.5,12,18.1,9.9c6.7-1.8,11.2-8,11-14.8l-1.8-113.8c0-0.6,0.4-1.2,1.1-1.3c4.5-0.9,8.1-1,10.6-0.9
									c4,0.2,6.2,0.8,10.3,0.6C594.8,493.9,597.3,493.4,599.2,492.9z"/>
							</defs>
							<clipPath id="SVGID_22_">
								<use xlink:href="#SVGID_21_"  style="overflow:visible;"/>
							</clipPath>
							<path class="st20" d="M597.6,639.7c-1.1-2.7-2.8-6.4-5.5-10.4c-0.7-1.1-2.9-4.3-5.6-7c-5.7-5.7-13-8.1-18.4-9.1
								c-0.1-2.3-0.3-4.5-0.4-6.8c3.3-0.7,10.1-1.5,17.7,1.2c13.1,4.7,18.6,16.2,19.6,18.6C602.5,630.8,600.1,635.3,597.6,639.7z"/>
						</g>
						<g>
							<defs>
								<path id="SVGID_23_" d="M599.2,492.9c0.7-0.2,1.4,0.3,1.4,1c0.3,5.1,0.5,10.1,0.8,15.2c0.9,33.3,1.8,66.6,2.8,99.9
									c0.6,20.7-12.5,39.3-32.1,45.8c-0.3,0.1-0.5,0.2-0.8,0.3c-24.6,8.2-51.1-5.1-59.4-29.6c-4.4-10-8.8-20.7-12.9-32.2
									c-6.6-18.3-11.5-35.6-15.2-51.6l0,0c-2.3-8.3,2.3-17,10.4-19.7c8.1-2.8,17.2,1.3,20.5,9.4l0,0l27.9,83.1
									c2.5,7.5,10.5,12,18.1,9.9c6.7-1.8,11.2-8,11-14.8l-1.8-113.8c0-0.6,0.4-1.2,1.1-1.3c4.5-0.9,8.1-1,10.6-0.9
									c4,0.2,6.2,0.8,10.3,0.6C594.8,493.9,597.3,493.4,599.2,492.9z"/>
							</defs>
							<clipPath id="SVGID_24_">
								<use xlink:href="#SVGID_23_"  style="overflow:visible;"/>
							</clipPath>
							<path class="st21" d="M605.3,593.2c-4.3-2.4-10.1-4.7-17.6-5.2c-8.2-0.6-15.6,1.2-21.1,3.2c0.8-3.8,1.5-7.5,2.3-11.3
								c5-1.7,11.1-3,17.8-2.9c10,0.2,17.6,3.5,22.8,6.7C608.2,586.8,606.7,590,605.3,593.2z"/>
						</g>
						<g>
							<defs>
								<path id="SVGID_25_" d="M599.2,492.9c0.7-0.2,1.4,0.3,1.4,1c0.3,5.1,0.5,10.1,0.8,15.2c0.9,33.3,1.8,66.6,2.8,99.9
									c0.6,20.7-12.5,39.3-32.1,45.8c-0.3,0.1-0.5,0.2-0.8,0.3c-24.6,8.2-51.1-5.1-59.4-29.6c-4.4-10-8.8-20.7-12.9-32.2
									c-6.6-18.3-11.5-35.6-15.2-51.6l0,0c-2.3-8.3,2.3-17,10.4-19.7c8.1-2.8,17.2,1.3,20.5,9.4l0,0l27.9,83.1
									c2.5,7.5,10.5,12,18.1,9.9c6.7-1.8,11.2-8,11-14.8l-1.8-113.8c0-0.6,0.4-1.2,1.1-1.3c4.5-0.9,8.1-1,10.6-0.9
									c4,0.2,6.2,0.8,10.3,0.6C594.8,493.9,597.3,493.4,599.2,492.9z"/>
							</defs>
							<clipPath id="SVGID_26_">
								<use xlink:href="#SVGID_25_"  style="overflow:visible;"/>
							</clipPath>
							<path class="st22" d="M604.5,561c-4.4-2.1-10.4-4-17.9-4c-8.2,0-15.5,2.3-20.8,4.6c0.5-3.8,1-7.6,1.5-11.4
								c4.9-2,10.9-3.8,17.6-4.1c10-0.5,17.8,2.3,23.1,5.2C606.9,554.5,605.7,557.8,604.5,561z"/>
						</g>
						<g>
							<defs>
								<path id="SVGID_27_" d="M599.2,492.9c0.7-0.2,1.4,0.3,1.4,1c0.3,5.1,0.5,10.1,0.8,15.2c0.9,33.3,1.8,66.6,2.8,99.9
									c0.6,20.7-12.5,39.3-32.1,45.8c-0.3,0.1-0.5,0.2-0.8,0.3c-24.6,8.2-51.1-5.1-59.4-29.6c-4.4-10-8.8-20.7-12.9-32.2
									c-6.6-18.3-11.5-35.6-15.2-51.6l0,0c-2.3-8.3,2.3-17,10.4-19.7c8.1-2.8,17.2,1.3,20.5,9.4l0,0l27.9,83.1
									c2.5,7.5,10.5,12,18.1,9.9c6.7-1.8,11.2-8,11-14.8l-1.8-113.8c0-0.6,0.4-1.2,1.1-1.3c4.5-0.9,8.1-1,10.6-0.9
									c4,0.2,6.2,0.8,10.3,0.6C594.8,493.9,597.3,493.4,599.2,492.9z"/>
							</defs>
							<clipPath id="SVGID_28_">
								<use xlink:href="#SVGID_27_"  style="overflow:visible;"/>
							</clipPath>
							<path class="st23" d="M604.6,534.1c-4.4-2.1-10.4-4-17.9-4c-8.2,0-15.5,2.3-20.8,4.6c0.5-3.8,1-7.6,1.5-11.4
								c4.9-2,10.9-3.8,17.6-4.1c10-0.5,17.8,2.3,23.1,5.2C607,527.6,605.8,530.8,604.6,534.1z"/>
						</g>
						<g>
							<defs>
								<path id="SVGID_29_" d="M599.2,492.9c0.7-0.2,1.4,0.3,1.4,1c0.3,5.1,0.5,10.1,0.8,15.2c0.9,33.3,1.8,66.6,2.8,99.9
									c0.6,20.7-12.5,39.3-32.1,45.8c-0.3,0.1-0.5,0.2-0.8,0.3c-24.6,8.2-51.1-5.1-59.4-29.6c-4.4-10-8.8-20.7-12.9-32.2
									c-6.6-18.3-11.5-35.6-15.2-51.6l0,0c-2.3-8.3,2.3-17,10.4-19.7c8.1-2.8,17.2,1.3,20.5,9.4l0,0l27.9,83.1
									c2.5,7.5,10.5,12,18.1,9.9c6.7-1.8,11.2-8,11-14.8l-1.8-113.8c0-0.6,0.4-1.2,1.1-1.3c4.5-0.9,8.1-1,10.6-0.9
									c4,0.2,6.2,0.8,10.3,0.6C594.8,493.9,597.3,493.4,599.2,492.9z"/>
							</defs>
							<clipPath id="SVGID_30_">
								<use xlink:href="#SVGID_29_"  style="overflow:visible;"/>
							</clipPath>
							<path class="st24" d="M604.1,506.5c-4.4-2.2-10.4-4.2-17.9-4c-8.3,0.2-15.6,2.9-21.1,5.6c0.6-4.2,1.2-8.5,1.8-12.7
								c5-2.3,11-4.4,17.8-5c10-0.8,17.8,2.2,23.1,5.2C606.6,499.2,605.3,502.9,604.1,506.5z"/>
						</g>
						<g>
							<defs>
								<path id="SVGID_31_" d="M599.2,492.9c0.7-0.2,1.4,0.3,1.4,1c0.3,5.1,0.5,10.1,0.8,15.2c0.9,33.3,1.8,66.6,2.8,99.9
									c0.6,20.7-12.5,39.3-32.1,45.8c-0.3,0.1-0.5,0.2-0.8,0.3c-24.6,8.2-51.1-5.1-59.4-29.6c-4.4-10-8.8-20.7-12.9-32.2
									c-6.6-18.3-11.5-35.6-15.2-51.6l0,0c-2.3-8.3,2.3-17,10.4-19.7c8.1-2.8,17.2,1.3,20.5,9.4l0,0l27.9,83.1
									c2.5,7.5,10.5,12,18.1,9.9c6.7-1.8,11.2-8,11-14.8l-1.8-113.8c0-0.6,0.4-1.2,1.1-1.3c4.5-0.9,8.1-1,10.6-0.9
									c4,0.2,6.2,0.8,10.3,0.6C594.8,493.9,597.3,493.4,599.2,492.9z"/>
							</defs>
							<clipPath id="SVGID_32_">
								<use xlink:href="#SVGID_31_"  style="overflow:visible;"/>
							</clipPath>
							<path class="st25" d="M476.5,519.3c4.8,0.5,11.1,0.4,18.2-2c7.8-2.6,13.9-7.2,18.2-11.1c0.8,3.8,1.5,7.6,2.3,11.3
								c-4,3.5-9.1,7.1-15.3,9.6c-9.3,3.7-17.6,3.6-23.6,2.6C476.4,526.2,476.5,522.7,476.5,519.3z"/>
						</g>
						<g>
							<defs>
								<path id="SVGID_33_" d="M599.2,492.9c0.7-0.2,1.4,0.3,1.4,1c0.3,5.1,0.5,10.1,0.8,15.2c0.9,33.3,1.8,66.6,2.8,99.9
									c0.6,20.7-12.5,39.3-32.1,45.8c-0.3,0.1-0.5,0.2-0.8,0.3c-24.6,8.2-51.1-5.1-59.4-29.6c-4.4-10-8.8-20.7-12.9-32.2
									c-6.6-18.3-11.5-35.6-15.2-51.6l0,0c-2.3-8.3,2.3-17,10.4-19.7c8.1-2.8,17.2,1.3,20.5,9.4l0,0l27.9,83.1
									c2.5,7.5,10.5,12,18.1,9.9c6.7-1.8,11.2-8,11-14.8l-1.8-113.8c0-0.6,0.4-1.2,1.1-1.3c4.5-0.9,8.1-1,10.6-0.9
									c4,0.2,6.2,0.8,10.3,0.6C594.8,493.9,597.3,493.4,599.2,492.9z"/>
							</defs>
							<clipPath id="SVGID_34_">
								<use xlink:href="#SVGID_33_"  style="overflow:visible;"/>
							</clipPath>
							<path class="st26" d="M494.6,517.3c14.8,45.8,25.8,80.6,31.4,102.9c1.3,5.3,4.2,17.5,14.6,24c9.3,5.8,19.9,4.2,24.2,3.5
								c24.3-3.8,37.7-26.4,40.3-31c-0.5,7.1-1.9,16.1-5.7,25.9c-9.9,25.5-29.2,39.4-37.8,44.8c-16.6-7.4-38.2-19.7-58.9-39.9
								c-49.3-48.2-58.9-108.3-61.3-130C459.1,517.4,476.8,517.4,494.6,517.3z"/>
						</g>
						<g>
							<defs>
								<path id="SVGID_35_" d="M599.2,492.9c0.7-0.2,1.4,0.3,1.4,1c0.3,5.1,0.5,10.1,0.8,15.2c0.9,33.3,1.8,66.6,2.8,99.9
									c0.6,20.7-12.5,39.3-32.1,45.8c-0.3,0.1-0.5,0.2-0.8,0.3c-24.6,8.2-51.1-5.1-59.4-29.6c-4.4-10-8.8-20.7-12.9-32.2
									c-6.6-18.3-11.5-35.6-15.2-51.6l0,0c-2.3-8.3,2.3-17,10.4-19.7c8.1-2.8,17.2,1.3,20.5,9.4l0,0l27.9,83.1
									c2.5,7.5,10.5,12,18.1,9.9c6.7-1.8,11.2-8,11-14.8l-1.8-113.8c0-0.6,0.4-1.2,1.1-1.3c4.5-0.9,8.1-1,10.6-0.9
									c4,0.2,6.2,0.8,10.3,0.6C594.8,493.9,597.3,493.4,599.2,492.9z"/>
							</defs>
							<clipPath id="SVGID_36_">
								<use xlink:href="#SVGID_35_"  style="overflow:visible;"/>
							</clipPath>
							<path class="st27" d="M543.2,615.7c1,1.9,2.9,4.9,6.3,7.5c1,0.8,10,7.3,19.5,3.3c0.7-0.3,6.7-2.9,9.2-9.2
								c1.9-4.7,0.8-8.9,0.5-11c-0.8-6.2,2.9-15.9,24-31.4c-3.2-25.3-6.3-50.5-9.5-75.8c-8-3.8-15.9-7.7-23.9-11.5
								c0.7,22.1,1.3,44.2,2,66.3c-2.2,17.3-4.4,34.6-6.6,51.9C557.5,609.1,550.3,612.4,543.2,615.7z"/>
						</g>
					</g>
					<path class="st28" d="M485.7,549.4c3.8,0.2,10.4-0.1,17.8-3c6.3-2.5,10.8-6,13.4-8.5"/>
					<path class="st28" d="M488.7,560.1c4.1,0.1,10.6-0.3,18-3.2c6.1-2.4,10.6-5.5,13.5-7.9"/>
					<path class="st28" d="M494.3,578.7c4.1-0.5,10.4-1.7,17.3-5.2c6.6-3.4,11.2-7.5,13.9-10.5"/>
					<path class="st28" d="M498.5,589c4.1-0.5,10.5-1.7,17.5-5.4c6.2-3.3,10.6-7.2,13.3-10.1"/>
					<path class="st28" d="M504.5,607.4c3.8-0.2,9.5-0.9,15.9-3.6c7.4-3.1,12.5-7.5,15.3-10.3"/>
					<path class="st28" d="M508.7,618c3.4-0.1,7.9-0.7,12.9-2.4c8.6-2.9,14.5-7.7,17.7-10.8"/>
					<path class="st28" d="M521,641.6c3.5-1.5,8.8-4.3,14.1-9.3c5.1-4.9,8.1-10,9.8-13.4"/>
					<path class="st28" d="M529.9,649.5c3.6-1.7,9.6-5,15-11.1c4.5-5,6.9-10.1,8.3-13.5"/>
					<path class="st28" d="M560,624.5c1.4,3.4,2.9,8.2,3.5,14.2c0.7,7.9-0.6,14.4-1.8,18.5"/>
					<path class="st28" d="M568,619.6c1.8,2.6,3.9,6.2,5.4,10.8c3.3,10.5,1.3,19.7,0.1,23.8"/>
					<path class="st28" d="M571.5,614.1c2.9,0.8,6.7,2.2,10.6,4.8c8.8,5.9,12.5,14.3,13.9,17.9"/>
					<path class="st28" d="M571.7,606.2c3-0.3,8-0.5,13.5,1.4c10.5,3.5,15.8,11.6,17.3,14.2"/>
					<path class="st28" d="M571.4,589.6c3.4-1,9.2-2.3,16.4-1.7c7.2,0.7,12.7,3.1,15.9,4.7"/>
					<path class="st28" d="M570.9,579.2c5-1.5,13.1-3.1,22.7-1.5c3.8,0.6,7,1.6,9.7,2.7"/>
					<path class="st28" d="M571.3,559.5c3.5-1.1,8.8-2.4,15.3-2.4c7,0,12.6,1.6,16.2,2.9"/>
					<path class="st28" d="M570.7,549c3.3-1.4,9.1-3.4,16.6-3.3c6.8,0.1,12.2,1.8,15.4,3.2"/>
					<path class="st28" d="M570.3,532.9c3.6-1.2,8.9-2.6,15.4-2.7c7-0.2,12.7,1.1,16.5,2.3"/>
					<path class="st28" d="M570.4,522c3.8-1.3,9.6-2.9,16.8-2.8c6.1,0,11.2,1.2,14.7,2.3"/>
					<path class="st28" d="M570.1,506c3.2-1.4,8.9-3.5,16.2-3.5c6.6,0,11.8,1.7,14.9,2.9"/>
					<path class="st28" d="M485.1,530c2.6-0.1,5.6-0.5,9-1.3c5.7-1.4,10.1-3.7,13.2-5.6"/>
				</g>
				<path class="st29" d="M598.6,493.8c0.7-0.2,1.4,0.3,1.4,1c0.3,5,0.5,10,0.8,15c0.9,32.9,1.8,65.8,2.7,98.8
					c0.6,20.5-12.3,38.9-31.7,45.3c-0.3,0.1-0.5,0.2-0.8,0.3c-24.3,8.1-50.5-5-58.7-29.3c-4.4-9.9-8.7-20.5-12.7-31.9
					c-6.5-18.1-11.4-35.2-15-51l0,0c-2.2-8.2,2.3-16.8,10.2-19.5c8-2.8,17.1,1.3,20.3,9.3l0,0l27.6,82.2c2.5,7.4,10.3,11.8,17.9,9.8
					c6.6-1.8,11.1-7.9,10.9-14.6l-1.8-112.5c0-0.6,0.4-1.2,1.1-1.3c4.4-0.9,8-1,10.5-0.9c4,0.2,6.1,0.8,10.2,0.6
					C594.2,494.9,596.7,494.4,598.6,493.8z"/>
				<path class="st29" d="M577.1,494.4c-0.2-1.9-0.8-6.4-0.8-6.4c-13.1-3.7-21.9-10.2-21.7-16.2c0.1-2.6,1.9-7.2,5.2-8
					c1.8-0.4,3.5,0.4,4.5,0.9c3.7,1.8,4.3,4.9,6.6,5c0.7,0,1.8-0.2,3.2-1.7c0.7-3.1,1.4-7.7,0.9-13.2c-0.5-5.4-1.8-8.1-0.1-10.1
					c2-2.2,7.1-2.7,9.8-0.1c1.3,1.3,1.7,3,1.8,3.9c0.6-0.2,2.6-0.8,4.7,0.2c2.6,1.2,3.3,3.9,3.5,4.7c0.3,1.1,0.3,2,0.3,2.7
					c0.5-0.3,1.7-0.9,3.3-0.7c3,0.4,4.3,3.5,4.5,3.9c1.1,2.7,0.1,6.2-2.4,8.7c-0.2,0.2,0.7-0.5,1.6-1.2c0.4-0.3,3.2-2.4,6.5-2.1
					c2,0.2,5,1.5,5.5,3.8c0.3,1.5-0.5,2.8-0.7,3.1c-1.9,3-5.8,2.1-10.6,4.9c-2,1.1-3.4,2.4-4.3,3.5c-0.4,1.1-1.1,2.7-2.2,4.3
					c-1.6,2.2-3.4,3.5-4.6,4.2c0.2,2.2,0.5,4.3,0.7,6.5"/>
				<path class="st29" d="M586.5,448.4c0.2,1.6,0.2,3.8-0.3,6.4c-0.4,2.2-1.2,4-1.8,5.3"/>
				<path class="st29" d="M594.9,454.2c0.1,1,0.1,2.6-0.5,4.4c-0.3,0.9-0.7,1.6-1.1,2.1"/>
				<g>
					<g>
						<path id="XMLID_31_" class="st30" d="M567.1,422.4c-1.8,0.8-3.6,1.7-5.4,2.5c3.1,22.5,6.1,44.9,9.2,67.4
							c7,0.3,13.9,0.7,20.9,1c-2.1-23.9-4.3-47.8-6.4-71.6C579.4,421.9,573.3,422.1,567.1,422.4z"/>
					</g>
					<g>
						<defs>
							<path id="SVGID_37_" d="M564.7,426.6c-1.6,1.2-3.1,2.4-4.7,3.6c7.9,21.3,15.8,42.5,23.7,63.8c6.9-1.2,13.7-2.4,20.6-3.6
								c-7.3-22.9-14.6-45.7-21.9-68.5C576.6,423.5,570.7,425,564.7,426.6z"/>
						</defs>
						<clipPath id="SVGID_38_">
							<use xlink:href="#SVGID_37_"  style="overflow:visible;"/>
						</clipPath>
						
							<rect x="576.9" y="432.8" transform="matrix(0.9758 -0.2187 0.2187 0.9758 -81.0451 138.4653)" class="st31" width="16.1" height="5"/>
					</g>
					<g>
						<defs>
							<path id="SVGID_39_" d="M562.9,427.1c-1.6,1.2-3.1,2.4-4.7,3.6c7.9,21.3,15.8,42.5,23.7,63.8c6.9-1.2,13.7-2.4,20.6-3.6
								c-7.3-22.9-14.6-45.7-21.9-68.5C574.8,423.9,568.9,425.5,562.9,427.1z"/>
						</defs>
						<clipPath id="SVGID_40_">
							<use xlink:href="#SVGID_39_"  style="overflow:visible;"/>
						</clipPath>
						
							<rect x="578.1" y="441.1" transform="matrix(0.9758 -0.2187 0.2187 0.9758 -82.8318 138.9258)" class="st32" width="16.1" height="5"/>
					</g>
				</g>
				<path class="st6" d="M561.7,424.9c1.9,23.3,3.8,46.5,5.7,69.8c6.6,0.5,13.1,1,19.7,1.5c-2.5-23.7-4.9-47.5-7.4-71.2
					C573.8,425,567.8,424.9,561.7,424.9z"/>
				<path class="st33" d="M442.2,482.7l-2.7-13.1c-2-1.6-7.1-6.2-9.5-14.1c-2.7-8.9-0.2-16.3,0.7-18.6c-2.7,1.5-5.5,1.3-6.9-0.3
					c-0.6-0.6-1.3-1.9-0.8-2.6c0.5-0.8,2.5-1.2,8.9,0.8c0.6-1,1.3-2,1.9-3.1c-0.8-1.1-2.3-3.2-2.8-6.2c-0.1-0.5-0.9-5.5,2.1-10.2
					c1.7-2.7,3-2.5,8.3-6.4c0.7-0.5,6.3-4.7,11.6-10.5c3-3.3,4.9-6,5.7-7.2c4.8-6.8,22.8-32.1,46.9-33.5c8-0.5,13.8,1.9,15.4,2.6
					c9.2,4,16.4,12.6,18.8,22.2c3.5,13.9-3.1,29.5-16.7,38.3c0.7,1.7,1.7,4.3,2.4,7.6c0.8,3.9,0.8,7,0.8,8.8
					c-0.1,6.1-0.6,19.3-1.7,36.6L442.2,482.7z"/>
				<g>
					<g>
						<path id="XMLID_30_" class="st13" d="M547.3,535.3c-0.6,1.5-1.1,3-1.7,4.4c-3.1,5.4-10.8,17.2-25.6,24.8
							c-24.3,12.5-48.2,3.6-52.2,2.1l-3.8-12.9c-1.6-7.9-4.1-19.7-7.7-34c-4.8-19.1-5.3-20.7-8-29.5c-0.3-1-0.7-2.3-1.1-3.7
							c-0.5,0.8-1.8,2.3-4,3c-3.5,1-6.5-0.9-7.2-1.3c-4.5-2.8-5.4-8.8-3.8-13.1c0.6-1.6,1.9-5.3,5.6-6.2c2.4-0.5,4.6,0.3,5.8,1
							c-2.2-14.4-2.1-32.7,7.8-46.8c7.2-10.1,18.9-16.9,31.2-17.8c12.3-0.9,25,4.1,33.3,13.3c9.7,10.9,11.9,23.3,15.1,46.3
							c2.9,21.1,0.3,27.2,4.9,43.6C539.2,520.5,543.9,529.6,547.3,535.3z"/>
					</g>
					<g>
						<defs>
							<path id="SVGID_41_" d="M547.3,535.3c-0.6,1.5-1.1,3-1.7,4.4c-3.1,5.4-10.8,17.2-25.6,24.8c-24.3,12.5-48.2,3.6-52.2,2.1
								l-3.8-12.9c-1.6-7.9-4.1-19.7-7.7-34c-4.8-19.1-5.3-20.7-8-29.5c-0.3-1-0.7-2.3-1.1-3.7c-0.5,0.8-1.8,2.3-4,3
								c-3.5,1-6.5-0.9-7.2-1.3c-4.5-2.8-5.4-8.8-3.8-13.1c0.6-1.6,1.9-5.3,5.6-6.2c2.4-0.5,4.6,0.3,5.8,1
								c-2.2-14.4-2.1-32.7,7.8-46.8c7.2-10.1,18.9-16.9,31.2-17.8c12.3-0.9,25,4.1,33.3,13.3c9.7,10.9,11.9,23.3,15.1,46.3
								c2.9,21.1,0.3,27.2,4.9,43.6C539.2,520.5,543.9,529.6,547.3,535.3z"/>
						</defs>
						<clipPath id="SVGID_42_">
							<use xlink:href="#SVGID_41_"  style="overflow:visible;"/>
						</clipPath>
						<path class="st34" d="M432,475.4c0.6-1.6,1.9-5.3,5.6-6.2c2.4-0.5,4.5,0.3,5.7,1c-2.2-14.4-2.2-32.8,7.8-46.8
							c7.2-10.1,18.9-16.9,31.2-17.8c2.7-0.2,5.4-0.1,8.1,0.2l0,0c-5.2,1.5-12.9,4.5-18.8,11.5c-5.8,6.8-11.1,18.4-6.6,50.5
							c3.7,26.3,10.9,44.9,13.6,52.7c4.5,12.8,8.5,29.6,9.2,50.9c-19.5-1-34.9-9.9-36.7-10.9c1.6-2.5,3.1-5.1,4.7-7.6
							c0.5-1.8,1-4.3,1.5-7.4c1.5-10.8,0-19.5-1.2-25.5c-2.9-14.2-6.3-23.9-8-29.5c-0.3-1-0.7-2.2-1.1-3.6c-0.5,0.8-1.8,2.3-4,2.9
							c-3.5,1-6.5-0.9-7.2-1.3C431.3,485.8,430.5,479.7,432,475.4z"/>
					</g>
				</g>
				<g>
					<g>
						<path id="XMLID_29_" class="st2" d="M460.7,542c2.8,13.4,7.5,31.4,15.8,51.7c5.7,13.9,14.5,35.6,31.3,57.2
							c23.8,30.6,53,47.6,72.1,56.4c7-15.2,14.9-36.5,19-62.7c5-31.7,2.7-58.5-0.3-76.8c-3.7,0.8-9.9,1.6-17-0.2
							c-9.9-2.5-16-8.6-21.8-14.6c-5.1-5.3-13.1-15-18.6-29.9c-4.1,5.1-14.1,15.9-30.8,21.6C486.3,552.7,465.7,544.2,460.7,542z"/>
					</g>
					<g>
						<defs>
							<path id="SVGID_43_" d="M460.7,542c2.8,13.4,7.5,31.4,15.8,51.7c5.7,13.9,14.5,35.6,31.3,57.2c23.8,30.6,53,47.6,72.1,56.4
								c7-15.2,14.9-36.5,19-62.7c5-31.7,2.7-58.5-0.3-76.8c-3.7,0.8-9.9,1.6-17-0.2c-9.9-2.5-16-8.6-21.8-14.6
								c-5.1-5.3-13.1-15-18.6-29.9c-4.1,5.1-14.1,15.9-30.8,21.6C486.3,552.7,465.7,544.2,460.7,542z"/>
						</defs>
						<clipPath id="SVGID_44_">
							<use xlink:href="#SVGID_43_"  style="overflow:visible;"/>
						</clipPath>
						<path class="st35" d="M465.8,565.3c10.7,0.4,29.1-0.3,49.7-8.7c15.9-6.5,27.3-15.1,34.5-21.6c1.8,3,3.6,6.1,5.4,9.1
							c-7.4,6.5-17.8,14.1-31.3,20.4c-24.7,11.5-47.4,12.7-60.5,12.3C464.3,573,465,569.1,465.8,565.3z"/>
					</g>
					<g>
						<defs>
							<path id="SVGID_45_" d="M460.7,542c2.8,13.4,7.5,31.4,15.8,51.7c5.7,13.9,14.5,35.6,31.3,57.2c23.8,30.6,53,47.6,72.1,56.4
								c7-15.2,14.9-36.5,19-62.7c5-31.7,2.7-58.5-0.3-76.8c-3.7,0.8-9.9,1.6-17-0.2c-9.9-2.5-16-8.6-21.8-14.6
								c-5.1-5.3-13.1-15-18.6-29.9c-4.1,5.1-14.1,15.9-30.8,21.6C486.3,552.7,465.7,544.2,460.7,542z"/>
						</defs>
						<clipPath id="SVGID_46_">
							<use xlink:href="#SVGID_45_"  style="overflow:visible;"/>
						</clipPath>
						<path class="st36" d="M479.2,603.6c11.4-2.6,30.8-8.3,50.7-22.3c15.3-10.7,25.4-22.3,31.5-30.6c2.6,2.5,5.3,4.9,7.9,7.4
							c-6.3,8.4-15.6,18.7-28.5,28.6c-23.5,18-47.4,25.5-61.3,28.8C479.4,611.5,479.3,607.5,479.2,603.6z"/>
					</g>
					<g>
						<defs>
							<path id="SVGID_47_" d="M460.7,542c2.8,13.4,7.5,31.4,15.8,51.7c5.7,13.9,14.5,35.6,31.3,57.2c23.8,30.6,53,47.6,72.1,56.4
								c7-15.2,14.9-36.5,19-62.7c5-31.7,2.7-58.5-0.3-76.8c-3.7,0.8-9.9,1.6-17-0.2c-9.9-2.5-16-8.6-21.8-14.6
								c-5.1-5.3-13.1-15-18.6-29.9c-4.1,5.1-14.1,15.9-30.8,21.6C486.3,552.7,465.7,544.2,460.7,542z"/>
						</defs>
						<clipPath id="SVGID_48_">
							<use xlink:href="#SVGID_47_"  style="overflow:visible;"/>
						</clipPath>
						<path class="st37" d="M502.3,644.5c12.3-7.2,32.8-21,52.2-43.1c14.9-17,23.6-32.8,28.7-43.6c3.5,1.4,7,2.8,10.5,4.2
							c-5.3,11-13.4,25.1-25.7,40.4c-22.5,27.8-47.7,45-62.7,54C504.3,652.3,503.3,648.4,502.3,644.5z"/>
					</g>
					<g>
						<defs>
							<path id="SVGID_49_" d="M460.7,542c2.8,13.4,7.5,31.4,15.8,51.7c5.7,13.9,14.5,35.6,31.3,57.2c23.8,30.6,53,47.6,72.1,56.4
								c7-15.2,14.9-36.5,19-62.7c5-31.7,2.7-58.5-0.3-76.8c-3.7,0.8-9.9,1.6-17-0.2c-9.9-2.5-16-8.6-21.8-14.6
								c-5.1-5.3-13.1-15-18.6-29.9c-4.1,5.1-14.1,15.9-30.8,21.6C486.3,552.7,465.7,544.2,460.7,542z"/>
						</defs>
						<clipPath id="SVGID_50_">
							<use xlink:href="#SVGID_49_"  style="overflow:visible;"/>
						</clipPath>
						<path class="st38" d="M526.2,676.9c11.8-10.1,31.3-28.7,48.4-55.6c13.2-20.7,20.2-38.8,24-50.9c3.8,0.7,7.6,1.3,11.4,2
							c-4,12.4-10.6,28.7-21.4,47c-19.7,33.4-43.5,56.5-57.9,69C529.3,684.6,527.7,680.8,526.2,676.9z"/>
					</g>
					<g>
						<defs>
							<path id="SVGID_51_" d="M460.7,542c2.8,13.4,7.5,31.4,15.8,51.7c5.7,13.9,14.5,35.6,31.3,57.2c23.8,30.6,53,47.6,72.1,56.4
								c7-15.2,14.9-36.5,19-62.7c5-31.7,2.7-58.5-0.3-76.8c-3.7,0.8-9.9,1.6-17-0.2c-9.9-2.5-16-8.6-21.8-14.6
								c-5.1-5.3-13.1-15-18.6-29.9c-4.1,5.1-14.1,15.9-30.8,21.6C486.3,552.7,465.7,544.2,460.7,542z"/>
						</defs>
						<clipPath id="SVGID_52_">
							<use xlink:href="#SVGID_51_"  style="overflow:visible;"/>
						</clipPath>
						<path class="st39" d="M485,546.8l3.9,12.9c7.5-3.2,15-6.4,22.5-9.5c1.6,0.7,3.9,2,6.1,4.2c2.6,2.5,4,5.1,4.8,6.8
							c12,31.9,24,63.8,36,95.7c1.6,4.1,4.6,7.5,8.6,9.5c0,0,0,0,0.1,0c13.4,6.4,28.2-3.2,29.8-4.2c-11.5,23-23,45.9-34.5,68.9
							c-19.7-8.8-45.4-23.4-69.9-47.4c-58.5-57.2-69.8-128.5-72.7-154.2C441.4,535.2,463.2,541,485,546.8z"/>
					</g>
				</g>
				<g>
					<g>
						<path id="XMLID_28_" class="st5" d="M463,549c7.4,3.3,20,7.9,36.2,8.6c16.6,0.7,29.9-2.9,37.6-5.7c0.3-7.9,0.6-15.7,0.8-23.6
							c2.7,1.5,5.4,2.9,8.2,4.4c-1.6-3.2-3.1-6.4-4.7-9.6c-3.5,4.2-19.9,22.7-47,25c-15.2,1.2-27.2-3.2-33.4-6.1
							C461.5,544.3,462.2,546.6,463,549z"/>
					</g>
					<g>
						<defs>
							<path id="SVGID_53_" d="M463,549c7.4,3.3,20,7.9,36.2,8.6c16.6,0.7,29.9-2.9,37.6-5.7c0.3-7.9,0.6-15.7,0.8-23.6
								c2.7,1.5,5.4,2.9,8.2,4.4c-1.6-3.2-3.1-6.4-4.7-9.6c-3.5,4.2-19.9,22.7-47,25c-15.2,1.2-27.2-3.2-33.4-6.1
								C461.5,544.3,462.2,546.6,463,549z"/>
						</defs>
						<clipPath id="SVGID_54_">
							<use xlink:href="#SVGID_53_"  style="overflow:visible;"/>
						</clipPath>
						<path class="st40" d="M484,562.9c-6.6,4.1-15.1,3.7-21-0.9c-6.6-5.2-8.8-14.6-5-22.6c9,2.5,18.1,5,27.1,7.6
							c0.3,3.7,0.5,7.5,0.8,11.2C485.3,559.8,484.6,561.3,484,562.9z"/>
					</g>
				</g>
				
					<ellipse transform="matrix(0.9055 -0.4243 0.4243 0.9055 -176.8221 280.9222)" class="st41" cx="542.4" cy="537.5" rx="2.2" ry="3.2"/>
				
					<ellipse transform="matrix(0.9055 -0.4243 0.4243 0.9055 -183.3213 286.9026)" class="st41" cx="552.6" cy="555.1" rx="2.2" ry="3.2"/>
				
					<ellipse transform="matrix(0.6261 -0.7797 0.7797 0.6261 -233.0666 656.536)" class="st41" cx="568.1" cy="571.3" rx="2.2" ry="3.2"/>
				
					<ellipse transform="matrix(0.4904 -0.8715 0.8715 0.4904 -207.6233 805.1454)" class="st41" cx="584.7" cy="580.1" rx="2.2" ry="3.2"/>
				<g>
					<g>
						<path id="XMLID_27_" class="st13" d="M822.1,662.6c2.4,8.1,4.7,16.2,7.1,24.3c2.1,1,6.4,2.8,12,2.3c8.9-0.7,14.4-6.3,15.7-7.8
							c-2.5-9.4-5-18.9-7.5-28.3C840.3,656.3,831.2,659.5,822.1,662.6z"/>
					</g>
					<g>
						<defs>
							<path id="SVGID_55_" d="M822.1,662.6c2.4,8.1,4.7,16.2,7.1,24.3c2.1,1,6.4,2.8,12,2.3c8.9-0.7,14.4-6.3,15.7-7.8
								c-2.5-9.4-5-18.9-7.5-28.3C840.3,656.3,831.2,659.5,822.1,662.6z"/>
						</defs>
						<clipPath id="SVGID_56_">
							<use xlink:href="#SVGID_55_"  style="overflow:visible;"/>
						</clipPath>
						<path class="st42" d="M856.6,652.5c-1.9,0.2-8.7,1.1-13,6.7c0,0-0.1,0.1-0.2,0.2c-1.8,2.4-4.1,7.9-0.3,21.5
							c0.8,4.8,1.6,9.6,2.4,14.4c-16.3-2.8-24.8-19-20.7-30.5C828.5,654.4,842.8,647.4,856.6,652.5z"/>
					</g>
				</g>
				<g>
					<g>
						<path id="XMLID_26_" class="st4" d="M639.3,555.2c20.1,2.7,40.2,5.3,60.3,8c-6.3-14.5-4.4-30.9,5.1-42.2
							c10-11.9,24.2-13.3,27.2-13.5c7.9-0.7,15.8-1.5,23.6-2.2c1.3,0,16.8-0.1,25.7-12.9c7-10.1,7-23.9-0.2-34.8
							c-8.3-4.4-23.3-10.9-43-11.9c-6.4-0.3-20.5-0.9-36.7,4.8c-33.7,11.9-49.2,41.5-52.9,49.1C637,523.4,638.2,545.5,639.3,555.2z"
							/>
					</g>
					<g>
						<defs>
							<path id="SVGID_57_" d="M639.3,555.2c20.1,2.7,40.2,5.3,60.3,8c-6.3-14.5-4.4-30.9,5.1-42.2c10-11.9,24.2-13.3,27.2-13.5
								c7.9-0.7,15.8-1.5,23.6-2.2c1.3,0,16.8-0.1,25.7-12.9c7-10.1,7-23.9-0.2-34.8c-8.3-4.4-23.3-10.9-43-11.9
								c-6.4-0.3-20.5-0.9-36.7,4.8c-33.7,11.9-49.2,41.5-52.9,49.1C637,523.4,638.2,545.5,639.3,555.2z"/>
						</defs>
						<clipPath id="SVGID_58_">
							<use xlink:href="#SVGID_57_"  style="overflow:visible;"/>
						</clipPath>
						<path class="st43" d="M803.1,509l-12.6,4.6c-30.3,16.5-60.6,33.1-90.8,49.6c-7.9-4.5-15.8-9.1-23.7-13.6
							c-0.3-10.3,2.2-18,4-22.3c9.5-22.3,31.5-29.3,33.9-30c8.7-2.6,16.2-2.4,20.8-1.9c0-1.2,0.1-3,0.7-4.9c0.8-2.6,2.1-4.5,3-5.6
							c-0.1-2.3,0-6.5,2-11.1c2.1-5,5.3-8.1,7-9.7c9.8-5.9,17.5-5.6,20.9-5.1C785.7,461.3,801.2,481.4,803.1,509z"/>
					</g>
				</g>
				<g>
					<g>
						<path id="XMLID_25_" class="st4" d="M572.7,704.9c18.5-28.3,23.8-51.9,25.6-65.5c1.9-14.6,1.9-32.7,1.8-38.6
							c-0.1-13.5-0.8-24.8-1.6-33c1.8-0.6,4.6-1.5,7.8-2.9c4.4-1.9,7.3-3.7,8.8-4.6c0,0,6.2-3.7,17.3-8c13-5,25.7-4.4,32.7-4
							c13.3,0.7,24.1,4.1,31.5,7.1c2.1-3.3,5.1-7.8,9.1-13.1c8.5-11.3,14.4-19.1,23.1-25.2c16.6-11.6,34.9-11.1,38-11
							c18.6,0.7,31.4,9.7,38,14.5c16,11.6,23.4,26,28.2,35.7c5.6,11.4,7.2,19,13,45.1c2.6,11.8,6.9,30.6,12.4,54.5
							c-0.5,0.7-0.9,1.4-1.4,2.2c-5,2.7-10.9,5.5-17.7,8c-7.9,2.9-15.3,4.8-21.6,6c-1.2,0.4-2.7,0.7-4,0c-2.1-1-2.7-3.8-3-4.9
							c-10.1-48.1-11.8-54.8-15.1-68.3c-1.3-5.2-2.7-9.8-6.1-14.7c-2-2.8-9.8-14.2-21.8-14.2c-10.5,0-17.9,8.6-22.4,13.8
							c-3.3,3.8-5.3,7.5-6.6,10c2.7,7,6.2,18.5,6,32.9c-0.3,20.8-8.1,35.6-12.6,43.8c-4.8,8.7-17.5,31.5-44.2,43.7
							c-11.9,5.4-22.3,6.8-29.1,7.6c-18,2.2-31.8-0.5-44.8-3.2C603.6,716.3,589.1,712.4,572.7,704.9z"/>
					</g>
					<g>
						<defs>
							<path id="SVGID_59_" d="M572.7,704.9c18.5-28.3,23.8-51.9,25.6-65.5c1.9-14.6,1.9-32.7,1.8-38.6c-0.1-13.5-0.8-24.8-1.6-33
								c1.8-0.6,4.6-1.5,7.8-2.9c4.4-1.9,7.3-3.7,8.8-4.6c0,0,6.2-3.7,17.3-8c13-5,25.7-4.4,32.7-4c13.3,0.7,24.1,4.1,31.5,7.1
								c2.1-3.3,5.1-7.8,9.1-13.1c8.5-11.3,14.4-19.1,23.1-25.2c16.6-11.6,34.9-11.1,38-11c18.6,0.7,31.4,9.7,38,14.5
								c16,11.6,23.4,26,28.2,35.7c5.6,11.4,7.2,19,13,45.1c2.6,11.8,6.9,30.6,12.4,54.5c-0.5,0.7-0.9,1.4-1.4,2.2
								c-5,2.7-10.9,5.5-17.7,8c-7.9,2.9-15.3,4.8-21.6,6c-1.2,0.4-2.7,0.7-4,0c-2.1-1-2.7-3.8-3-4.9
								c-10.1-48.1-11.8-54.8-15.1-68.3c-1.3-5.2-2.7-9.8-6.1-14.7c-2-2.8-9.8-14.2-21.8-14.2c-10.5,0-17.9,8.6-22.4,13.8
								c-3.3,3.8-5.3,7.5-6.6,10c2.7,7,6.2,18.5,6,32.9c-0.3,20.8-8.1,35.6-12.6,43.8c-4.8,8.7-17.5,31.5-44.2,43.7
								c-11.9,5.4-22.3,6.8-29.1,7.6c-18,2.2-31.8-0.5-44.8-3.2C603.6,716.3,589.1,712.4,572.7,704.9z"/>
						</defs>
						<clipPath id="SVGID_60_">
							<use xlink:href="#SVGID_59_"  style="overflow:visible;"/>
						</clipPath>
						<path class="st44" d="M570.3,667.5c17-37.2,33.9-74.4,50.9-111.5c3.1,31.7,5.2,58.3,7,79.3c0.9,9.6,2.3,25.2-4.2,43.3
							c-1.7,4.8-3.5,8.6-4.9,11c6.5,1.4,15.8,2.9,27,2.7c12.2-0.2,50.6-1,75.1-30.5c22.8-27.3,18.6-61.5,17.6-68.3
							c0.1-2.9,0.8-15.8,11.1-24.7c8.6-7.4,21.4-9.9,31.3-6.2c16.7,6.3,22.4,29.5,32.8,74.1c3,13,5,24,6.3,32.1
							c-23.2,15.6-60.4,36.3-110,47.3c-76.7,17-140.2,1.2-170.3-8.5C550.1,694.3,560.2,680.9,570.3,667.5z"/>
					</g>
				</g>
				<g>
					<g>
						<path id="XMLID_24_" class="st13" d="M739.5,476.7c3.5,3.9,7.1,7.9,10.6,11.8c9.8-7.8,19.6-15.6,29.4-23.4
							c-4.5-2.1-9.1-4.1-13.6-6.2c-1.8-0.2-9.6-0.9-16.9,4.3C742.1,468,740,474.8,739.5,476.7z"/>
					</g>
					<g>
						<defs>
							<path id="SVGID_61_" d="M739.5,476.7c3.5,3.9,7.1,7.9,10.6,11.8c9.8-7.8,19.6-15.6,29.4-23.4c-4.5-2.1-9.1-4.1-13.6-6.2
								c-1.8-0.2-9.6-0.9-16.9,4.3C742.1,468,740,474.8,739.5,476.7z"/>
						</defs>
						<clipPath id="SVGID_62_">
							<use xlink:href="#SVGID_61_"  style="overflow:visible;"/>
						</clipPath>
						<path class="st45" d="M768.3,455.4c-1.9,0.2-8.7,1.1-13,6.7c-0.1,0.1-0.1,0.2-0.2,0.2c-1.5,2.1-1.5,4.9,0,7
							c2.7,3.6,5.5,7.3,8.2,10.9c-2,6-4.1,12-6.1,18.1c-16.3-2.8-24.8-19-20.7-30.5C740.2,457.3,754.5,450.2,768.3,455.4z"/>
					</g>
				</g>
				<g>
					<g>
						<path id="XMLID_23_" class="st5" d="M743,505.5c4.1,4.3,10.8,3.8,12.5,3.7c10.7-0.9,13.4-9.1,24.7-16.4
							c15.2-9.8,21.9-2.5,34.3-11.7c11.1-8.3,19.2-24.3,14.4-31.5c-5.9-8.8-29.7-1.4-31.2-1c-9.5,3-16.1,8.2-18.5,10.2
							c-6.4,5.3-6.9,8.2-12,12.6c-4.4,3.9-11.6,8.4-23.6,10.3c-0.8,1.6-1.9,4.1-2.6,7.4C740.3,492.2,738.4,500.7,743,505.5z"/>
					</g>
					<g>
						<defs>
							<path id="SVGID_63_" d="M743,505.5c4.1,4.3,10.8,3.8,12.5,3.7c10.7-0.9,13.4-9.1,24.7-16.4c15.2-9.8,21.9-2.5,34.3-11.7
								c11.1-8.3,19.2-24.3,14.4-31.5c-5.9-8.8-29.7-1.4-31.2-1c-9.5,3-16.1,8.2-18.5,10.2c-6.4,5.3-6.9,8.2-12,12.6
								c-4.4,3.9-11.6,8.4-23.6,10.3c-0.8,1.6-1.9,4.1-2.6,7.4C740.3,492.2,738.4,500.7,743,505.5z"/>
						</defs>
						<clipPath id="SVGID_64_">
							<use xlink:href="#SVGID_63_"  style="overflow:visible;"/>
						</clipPath>
						<path class="st46" d="M782.8,499.1c-16.1,13.5-33.6,13.7-39.8,6.4c-4.8-5.8-2.1-15.7-1.2-18.5c2.3-1.4,5.9-3.4,10.3-5.6
							c10.8-5.3,14.8-5.5,20.4-9.1c7.8-4.9,7.5-9,13.7-14.8c11.7-11,33.9-16.5,42.4-7.9c6.9,7,3.7,22.4-2.2,31.8
							C818.3,494.5,801.4,501.3,782.8,499.1z"/>
					</g>
				</g>
				<g>
					<g>
						<path id="XMLID_22_" class="st5" d="M820.6,678c0.6-2.1,2.8-3.4,4.9-3c2.6,0.4,5.8,0.7,9.4,0.2c7.9-1.1,13.7-4.9,16.9-7.7
							c1.1-0.9,3.1-1.9,5.8-2.1c2.6-0.2,4.7,0.5,6.1,1.2c6,0.6,15,1.7,25.6,4.5c8.8,2.3,30.7,8,30.4,13.8
							c-0.2,5.1-17.2,9.5-30.8,10.6c-14.4,1.2-19-2.1-30.1,2.1c-6,2.3-7.9,4.5-15.1,6.1c-5.5,1.2-13.8,3.1-19.1-0.7
							C819,698.9,817.4,689,820.6,678z"/>
					</g>
					<g>
						<defs>
							<path id="SVGID_65_" d="M820.6,678c0.6-2.1,2.8-3.4,4.9-3c2.6,0.4,5.8,0.7,9.4,0.2c7.9-1.1,13.7-4.9,16.9-7.7
								c1.1-0.9,3.1-1.9,5.8-2.1c2.6-0.2,4.7,0.5,6.1,1.2c6,0.6,15,1.7,25.6,4.5c8.8,2.3,30.7,8,30.4,13.8
								c-0.2,5.1-17.2,9.5-30.8,10.6c-14.4,1.2-19-2.1-30.1,2.1c-6,2.3-7.9,4.5-15.1,6.1c-5.5,1.2-13.8,3.1-19.1-0.7
								C819,698.9,817.4,689,820.6,678z"/>
						</defs>
						<clipPath id="SVGID_66_">
							<use xlink:href="#SVGID_65_"  style="overflow:visible;"/>
						</clipPath>
						<path class="st47" d="M846.7,704.4c-7.9,6.9-19.2,7.6-27,2.2c-9.3-6.5-11.9-20.5-4.6-31c4.8-0.8,9.5-1.6,14.3-2.4
							c-4.2,9.9-0.9,20.7,6.8,25.5c8.6,5.3,18.4,0.6,19,0.3C852.4,700.8,849.5,702.6,846.7,704.4z"/>
					</g>
				</g>
				<g>
					<g>
						<path id="XMLID_21_" class="st13" d="M610.9,517.1c-0.3-2.9-0.6-5.9-1-8.8c1.4-0.9,3.6-2.4,5.5-5.1c1.4-1.9,2.2-3.8,2.7-5.1
							c2.6-2.9,5-4.4,6.7-5.2c5.1-2.5,9.3-1.7,11.2-4.9c0.3-0.5,1.2-2,0.8-3.7c0-0.2-0.2-1-1-1.9c-1.8-2.2-4.8-2.5-5.5-2.6
							c-5.1-0.6-9.1,3.3-9.7,3.9c3.1-3,4.2-7.1,2.9-10.4c-0.2-0.4-1.8-4.2-5.4-4.7c-1.9-0.2-3.3,0.5-4,0.8c0-0.8,0-1.9-0.3-3.2
							c-0.3-1-1.2-4.2-4.3-5.6c-2.5-1.2-5-0.4-5.7-0.2c-0.1-1-0.5-3-2.1-4.6c-3.2-3.2-9.3-2.6-11.7,0.1c-2.1,2.4-0.5,5.7,0.1,12.1
							c0.6,6.6-0.2,12.1-1.1,15.9c-1.7,1.8-3,2.1-3.8,2c-2.8-0.1-3.5-3.9-7.9-6c-1.2-0.6-3.2-1.6-5.4-1c-3.9,1-6.1,6.5-6.2,9.6
							c-0.3,7.2,10.3,14.9,26,19.4l1,8.6L610.9,517.1z"/>
					</g>
					<g>
						<defs>
							<path id="SVGID_67_" d="M610.9,517.1c-0.3-2.9-0.6-5.9-1-8.8c1.4-0.9,3.6-2.4,5.5-5.1c1.4-1.9,2.2-3.8,2.7-5.1
								c2.6-2.9,5-4.4,6.7-5.2c5.1-2.5,9.3-1.7,11.2-4.9c0.3-0.5,1.2-2,0.8-3.7c0-0.2-0.2-1-1-1.9c-1.8-2.2-4.8-2.5-5.5-2.6
								c-5.1-0.6-9.1,3.3-9.7,3.9c3.1-3,4.2-7.1,2.9-10.4c-0.2-0.4-1.8-4.2-5.4-4.7c-1.9-0.2-3.3,0.5-4,0.8c0-0.8,0-1.9-0.3-3.2
								c-0.3-1-1.2-4.2-4.3-5.6c-2.5-1.2-5-0.4-5.7-0.2c-0.1-1-0.5-3-2.1-4.6c-3.2-3.2-9.3-2.6-11.7,0.1c-2.1,2.4-0.5,5.7,0.1,12.1
								c0.6,6.6-0.2,12.1-1.1,15.9c-1.7,1.8-3,2.1-3.8,2c-2.8-0.1-3.5-3.9-7.9-6c-1.2-0.6-3.2-1.6-5.4-1c-3.9,1-6.1,6.5-6.2,9.6
								c-0.3,7.2,10.3,14.9,26,19.4l1,8.6L610.9,517.1z"/>
						</defs>
						<clipPath id="SVGID_68_">
							<use xlink:href="#SVGID_67_"  style="overflow:visible;"/>
						</clipPath>
						<path class="st48" d="M565.9,479.9c1.9-2.1,4.3-3,6.1-3.5c-1.8,5.5-0.9,9.6-0.4,11.4c2.2,7,8.5,10.6,13.6,13.5
							c4,2.3,7.6,3.5,10.2,4.1c0.2,4.8,0.8,10,2.1,15.5c5,22.1,17.6,37.3,25.8,45.6c-19.5-1-34.9-9.9-36.7-10.9
							c1.6-2.5,3.1-5.1,4.7-7.6c0.5-1.8,1-4.3,1.5-7.4c1.2-8.5,2.7-18.7-1.2-25.5c-6.1-10.7-21.5-5.6-27.1-15.6
							C561.3,493.9,561.2,484.9,565.9,479.9z"/>
					</g>
				</g>
				<g>
					<g>
						<path id="XMLID_20_" class="st2" d="M618.2,515c0.8-0.2,1.6,0.4,1.7,1.2c0.3,6,0.6,12,1,18c1.1,39.5,2.2,79,3.3,118.5
							c0.7,24.5-14.8,46.6-38.1,54.4c-0.3,0.1-0.6,0.2-0.9,0.3c-29.1,9.7-60.6-6-70.4-35.1c-5.3-11.8-10.4-24.6-15.3-38.2
							c-7.8-21.7-13.6-42.3-18-61.2l0,0c-2.7-9.8,2.8-20.1,12.3-23.4c9.7-3.3,20.5,1.6,24.3,11.1l0,0l33.1,98.6
							c3,8.9,12.4,14.2,21.5,11.7c7.9-2.2,13.3-9.4,13.1-17.6l-2.2-135c0-0.8,0.5-1.4,1.3-1.6c5.3-1.1,9.6-1.2,12.6-1.1
							c4.8,0.2,7.3,1,12.2,0.7C613,516.2,616,515.6,618.2,515z"/>
					</g>
					<g>
						<defs>
							<path id="SVGID_69_" d="M618.2,515c0.8-0.2,1.6,0.4,1.7,1.2c0.3,6,0.6,12,1,18c1.1,39.5,2.2,79,3.3,118.5
								c0.7,24.5-14.8,46.6-38.1,54.4c-0.3,0.1-0.6,0.2-0.9,0.3c-29.1,9.7-60.6-6-70.4-35.1c-5.3-11.8-10.4-24.6-15.3-38.2
								c-7.8-21.7-13.6-42.3-18-61.2l0,0c-2.7-9.8,2.8-20.1,12.3-23.4c9.7-3.3,20.5,1.6,24.3,11.1l0,0l33.1,98.6
								c3,8.9,12.4,14.2,21.5,11.7c7.9-2.2,13.3-9.4,13.1-17.6l-2.2-135c0-0.8,0.5-1.4,1.3-1.6c5.3-1.1,9.6-1.2,12.6-1.1
								c4.8,0.2,7.3,1,12.2,0.7C613,516.2,616,515.6,618.2,515z"/>
						</defs>
						<clipPath id="SVGID_70_">
							<use xlink:href="#SVGID_69_"  style="overflow:visible;"/>
						</clipPath>
						<path class="st49" d="M480.7,581.8c5.7,0.6,13.2,0.5,21.6-2.4c9.3-3.1,16.5-8.5,21.6-13.2c0.9,4.5,1.8,9,2.7,13.4
							c-4.7,4.1-10.8,8.4-18.2,11.4c-11,4.4-20.8,4.2-28,3.1C480.6,590,480.7,585.9,480.7,581.8z"/>
					</g>
					<g>
						<defs>
							<path id="SVGID_71_" d="M618.2,515c0.8-0.2,1.6,0.4,1.7,1.2c0.3,6,0.6,12,1,18c1.1,39.5,2.2,79,3.3,118.5
								c0.7,24.5-14.8,46.6-38.1,54.4c-0.3,0.1-0.6,0.2-0.9,0.3c-29.1,9.7-60.6-6-70.4-35.1c-5.3-11.8-10.4-24.6-15.3-38.2
								c-7.8-21.7-13.6-42.3-18-61.2l0,0c-2.7-9.8,2.8-20.1,12.3-23.4c9.7-3.3,20.5,1.6,24.3,11.1l0,0l33.1,98.6
								c3,8.9,12.4,14.2,21.5,11.7c7.9-2.2,13.3-9.4,13.1-17.6l-2.2-135c0-0.8,0.5-1.4,1.3-1.6c5.3-1.1,9.6-1.2,12.6-1.1
								c4.8,0.2,7.3,1,12.2,0.7C613,516.2,616,515.6,618.2,515z"/>
						</defs>
						<clipPath id="SVGID_72_">
							<use xlink:href="#SVGID_71_"  style="overflow:visible;"/>
						</clipPath>
						<path class="st50" d="M491.2,616.8c5.8-0.1,13.2-1.1,21.2-4.9c8.8-4.2,15.4-10.4,19.9-15.6c1.4,4.3,2.8,8.7,4.2,13
							c-4.2,4.6-9.7,9.6-16.7,13.4c-10.4,5.7-20.2,6.6-27.4,6.3C492,625,491.6,620.9,491.2,616.8z"/>
					</g>
					<g>
						<defs>
							<path id="SVGID_73_" d="M618.2,515c0.8-0.2,1.6,0.4,1.7,1.2c0.3,6,0.6,12,1,18c1.1,39.5,2.2,79,3.3,118.5
								c0.7,24.5-14.8,46.6-38.1,54.4c-0.3,0.1-0.6,0.2-0.9,0.3c-29.1,9.7-60.6-6-70.4-35.1c-5.3-11.8-10.4-24.6-15.3-38.2
								c-7.8-21.7-13.6-42.3-18-61.2l0,0c-2.7-9.8,2.8-20.1,12.3-23.4c9.7-3.3,20.5,1.6,24.3,11.1l0,0l33.1,98.6
								c3,8.9,12.4,14.2,21.5,11.7c7.9-2.2,13.3-9.4,13.1-17.6l-2.2-135c0-0.8,0.5-1.4,1.3-1.6c5.3-1.1,9.6-1.2,12.6-1.1
								c4.8,0.2,7.3,1,12.2,0.7C613,516.2,616,515.6,618.2,515z"/>
						</defs>
						<clipPath id="SVGID_74_">
							<use xlink:href="#SVGID_73_"  style="overflow:visible;"/>
						</clipPath>
						<path class="st51" d="M505.1,651c5.8-0.1,13.2-1.1,21.2-4.9c8.8-4.2,15.4-10.4,19.9-15.6c1.4,4.3,2.8,8.7,4.2,13
							c-4.2,4.6-9.7,9.6-16.7,13.4c-10.4,5.7-20.2,6.6-27.4,6.3C505.9,659.2,505.5,655.1,505.1,651z"/>
					</g>
					<g>
						<defs>
							<path id="SVGID_75_" d="M618.2,515c0.8-0.2,1.6,0.4,1.7,1.2c0.3,6,0.6,12,1,18c1.1,39.5,2.2,79,3.3,118.5
								c0.7,24.5-14.8,46.6-38.1,54.4c-0.3,0.1-0.6,0.2-0.9,0.3c-29.1,9.7-60.6-6-70.4-35.1c-5.3-11.8-10.4-24.6-15.3-38.2
								c-7.8-21.7-13.6-42.3-18-61.2l0,0c-2.7-9.8,2.8-20.1,12.3-23.4c9.7-3.3,20.5,1.6,24.3,11.1l0,0l33.1,98.6
								c3,8.9,12.4,14.2,21.5,11.7c7.9-2.2,13.3-9.4,13.1-17.6l-2.2-135c0-0.8,0.5-1.4,1.3-1.6c5.3-1.1,9.6-1.2,12.6-1.1
								c4.8,0.2,7.3,1,12.2,0.7C613,516.2,616,515.6,618.2,515z"/>
						</defs>
						<clipPath id="SVGID_76_">
							<use xlink:href="#SVGID_75_"  style="overflow:visible;"/>
						</clipPath>
						<path class="st52" d="M522.6,692.1c5.5-1.8,12.3-4.9,18.8-10.9c7.2-6.6,11.6-14.5,14.4-20.9c2.6,3.7,5.3,7.5,7.9,11.2
							c-2.6,5.7-6.4,12.1-12,17.8c-8.3,8.5-17.3,12.3-24.3,14.2C525.8,699.7,524.2,695.9,522.6,692.1z"/>
					</g>
					<g>
						<defs>
							<path id="SVGID_77_" d="M618.2,515c0.8-0.2,1.6,0.4,1.7,1.2c0.3,6,0.6,12,1,18c1.1,39.5,2.2,79,3.3,118.5
								c0.7,24.5-14.8,46.6-38.1,54.4c-0.3,0.1-0.6,0.2-0.9,0.3c-29.1,9.7-60.6-6-70.4-35.1c-5.3-11.8-10.4-24.6-15.3-38.2
								c-7.8-21.7-13.6-42.3-18-61.2l0,0c-2.7-9.8,2.8-20.1,12.3-23.4c9.7-3.3,20.5,1.6,24.3,11.1l0,0l33.1,98.6
								c3,8.9,12.4,14.2,21.5,11.7c7.9-2.2,13.3-9.4,13.1-17.6l-2.2-135c0-0.8,0.5-1.4,1.3-1.6c5.3-1.1,9.6-1.2,12.6-1.1
								c4.8,0.2,7.3,1,12.2,0.7C613,516.2,616,515.6,618.2,515z"/>
						</defs>
						<clipPath id="SVGID_78_">
							<use xlink:href="#SVGID_77_"  style="overflow:visible;"/>
						</clipPath>
						<path class="st53" d="M572.6,711.1c2.1-5.4,4-12.6,3.4-21.4c-0.6-9.8-3.8-18.2-7-24.3c3.5-1,6.9-1.9,10.4-2.9
							c3.8,5.1,5.9,9.9,7,13.2c0.3,0.9,1.7,5.2,2.4,11.1c1.3,11.8-1.5,21.2-4.5,27.8C580.5,713.4,576.5,712.3,572.6,711.1z"/>
					</g>
					<g>
						<defs>
							<path id="SVGID_79_" d="M618.2,515c0.8-0.2,1.6,0.4,1.7,1.2c0.3,6,0.6,12,1,18c1.1,39.5,2.2,79,3.3,118.5
								c0.7,24.5-14.8,46.6-38.1,54.4c-0.3,0.1-0.6,0.2-0.9,0.3c-29.1,9.7-60.6-6-70.4-35.1c-5.3-11.8-10.4-24.6-15.3-38.2
								c-7.8-21.7-13.6-42.3-18-61.2l0,0c-2.7-9.8,2.8-20.1,12.3-23.4c9.7-3.3,20.5,1.6,24.3,11.1l0,0l33.1,98.6
								c3,8.9,12.4,14.2,21.5,11.7c7.9-2.2,13.3-9.4,13.1-17.6l-2.2-135c0-0.8,0.5-1.4,1.3-1.6c5.3-1.1,9.6-1.2,12.6-1.1
								c4.8,0.2,7.3,1,12.2,0.7C613,516.2,616,515.6,618.2,515z"/>
						</defs>
						<clipPath id="SVGID_80_">
							<use xlink:href="#SVGID_79_"  style="overflow:visible;"/>
						</clipPath>
						<path class="st54" d="M616.3,689.2c-1.3-3.2-3.3-7.6-6.5-12.3c-0.8-1.3-3.4-5.1-6.6-8.3c-6.8-6.7-15.5-9.6-21.9-10.8
							c-0.2-2.7-0.3-5.4-0.5-8c3.9-0.8,11.9-1.8,21,1.5c15.5,5.5,22,19.2,23.3,22C622.2,678.6,619.2,683.9,616.3,689.2z"/>
					</g>
					<g>
						<defs>
							<path id="SVGID_81_" d="M618.2,515c0.8-0.2,1.6,0.4,1.7,1.2c0.3,6,0.6,12,1,18c1.1,39.5,2.2,79,3.3,118.5
								c0.7,24.5-14.8,46.6-38.1,54.4c-0.3,0.1-0.6,0.2-0.9,0.3c-29.1,9.7-60.6-6-70.4-35.1c-5.3-11.8-10.4-24.6-15.3-38.2
								c-7.8-21.7-13.6-42.3-18-61.2l0,0c-2.7-9.8,2.8-20.1,12.3-23.4c9.7-3.3,20.5,1.6,24.3,11.1l0,0l33.1,98.6
								c3,8.9,12.4,14.2,21.5,11.7c7.9-2.2,13.3-9.4,13.1-17.6l-2.2-135c0-0.8,0.5-1.4,1.3-1.6c5.3-1.1,9.6-1.2,12.6-1.1
								c4.8,0.2,7.3,1,12.2,0.7C613,516.2,616,515.6,618.2,515z"/>
						</defs>
						<clipPath id="SVGID_82_">
							<use xlink:href="#SVGID_81_"  style="overflow:visible;"/>
						</clipPath>
						<path class="st55" d="M625.5,633.9c-5.1-2.8-12-5.5-20.8-6.1c-9.8-0.7-18.5,1.5-25,3.9c0.9-4.5,1.8-9,2.7-13.4
							c5.9-2,13.2-3.6,21.2-3.5c11.8,0.2,20.9,4.1,27,8C628.8,626.4,627.1,630.2,625.5,633.9z"/>
					</g>
					<g>
						<defs>
							<path id="SVGID_83_" d="M618.2,515c0.8-0.2,1.6,0.4,1.7,1.2c0.3,6,0.6,12,1,18c1.1,39.5,2.2,79,3.3,118.5
								c0.7,24.5-14.8,46.6-38.1,54.4c-0.3,0.1-0.6,0.2-0.9,0.3c-29.1,9.7-60.6-6-70.4-35.1c-5.3-11.8-10.4-24.6-15.3-38.2
								c-7.8-21.7-13.6-42.3-18-61.2l0,0c-2.7-9.8,2.8-20.1,12.3-23.4c9.7-3.3,20.5,1.6,24.3,11.1l0,0l33.1,98.6
								c3,8.9,12.4,14.2,21.5,11.7c7.9-2.2,13.3-9.4,13.1-17.6l-2.2-135c0-0.8,0.5-1.4,1.3-1.6c5.3-1.1,9.6-1.2,12.6-1.1
								c4.8,0.2,7.3,1,12.2,0.7C613,516.2,616,515.6,618.2,515z"/>
						</defs>
						<clipPath id="SVGID_84_">
							<use xlink:href="#SVGID_83_"  style="overflow:visible;"/>
						</clipPath>
						<path class="st56" d="M624.5,595.8c-5.2-2.5-12.4-4.7-21.2-4.8c-9.8,0-18.4,2.7-24.7,5.5c0.6-4.5,1.2-9.1,1.8-13.6
							c5.8-2.4,12.9-4.5,20.9-4.9c11.8-0.6,21.1,2.8,27.5,6.2C627.3,588.1,625.9,591.9,624.5,595.8z"/>
					</g>
					<g>
						<defs>
							<path id="SVGID_85_" d="M618.2,515c0.8-0.2,1.6,0.4,1.7,1.2c0.3,6,0.6,12,1,18c1.1,39.5,2.2,79,3.3,118.5
								c0.7,24.5-14.8,46.6-38.1,54.4c-0.3,0.1-0.6,0.2-0.9,0.3c-29.1,9.7-60.6-6-70.4-35.1c-5.3-11.8-10.4-24.6-15.3-38.2
								c-7.8-21.7-13.6-42.3-18-61.2l0,0c-2.7-9.8,2.8-20.1,12.3-23.4c9.7-3.3,20.5,1.6,24.3,11.1l0,0l33.1,98.6
								c3,8.9,12.4,14.2,21.5,11.7c7.9-2.2,13.3-9.4,13.1-17.6l-2.2-135c0-0.8,0.5-1.4,1.3-1.6c5.3-1.1,9.6-1.2,12.6-1.1
								c4.8,0.2,7.3,1,12.2,0.7C613,516.2,616,515.6,618.2,515z"/>
						</defs>
						<clipPath id="SVGID_86_">
							<use xlink:href="#SVGID_85_"  style="overflow:visible;"/>
						</clipPath>
						<path class="st57" d="M624.6,563.8c-5.2-2.5-12.4-4.7-21.2-4.8c-9.8,0-18.4,2.7-24.7,5.5c0.6-4.5,1.2-9.1,1.8-13.6
							c5.8-2.4,12.9-4.5,20.9-4.9c11.8-0.6,21.1,2.8,27.5,6.2C627.4,556.1,626,560,624.6,563.8z"/>
					</g>
					<g>
						<defs>
							<path id="SVGID_87_" d="M618.2,515c0.8-0.2,1.6,0.4,1.7,1.2c0.3,6,0.6,12,1,18c1.1,39.5,2.2,79,3.3,118.5
								c0.7,24.5-14.8,46.6-38.1,54.4c-0.3,0.1-0.6,0.2-0.9,0.3c-29.1,9.7-60.6-6-70.4-35.1c-5.3-11.8-10.4-24.6-15.3-38.2
								c-7.8-21.7-13.6-42.3-18-61.2l0,0c-2.7-9.8,2.8-20.1,12.3-23.4c9.7-3.3,20.5,1.6,24.3,11.1l0,0l33.1,98.6
								c3,8.9,12.4,14.2,21.5,11.7c7.9-2.2,13.3-9.4,13.1-17.6l-2.2-135c0-0.8,0.5-1.4,1.3-1.6c5.3-1.1,9.6-1.2,12.6-1.1
								c4.8,0.2,7.3,1,12.2,0.7C613,516.2,616,515.6,618.2,515z"/>
						</defs>
						<clipPath id="SVGID_88_">
							<use xlink:href="#SVGID_87_"  style="overflow:visible;"/>
						</clipPath>
						<path class="st58" d="M624,531.1c-5.2-2.6-12.3-4.9-21.2-4.8c-9.8,0.2-18.5,3.4-25,6.7c0.7-5,1.4-10,2.1-15.1
							c5.9-2.8,13.1-5.3,21.1-5.9c11.9-0.9,21.1,2.6,27.5,6.2C627,522.5,625.5,526.8,624,531.1z"/>
					</g>
					<g>
						<defs>
							<path id="SVGID_89_" d="M618.2,515c0.8-0.2,1.6,0.4,1.7,1.2c0.3,6,0.6,12,1,18c1.1,39.5,2.2,79,3.3,118.5
								c0.7,24.5-14.8,46.6-38.1,54.4c-0.3,0.1-0.6,0.2-0.9,0.3c-29.1,9.7-60.6-6-70.4-35.1c-5.3-11.8-10.4-24.6-15.3-38.2
								c-7.8-21.7-13.6-42.3-18-61.2l0,0c-2.7-9.8,2.8-20.1,12.3-23.4c9.7-3.3,20.5,1.6,24.3,11.1l0,0l33.1,98.6
								c3,8.9,12.4,14.2,21.5,11.7c7.9-2.2,13.3-9.4,13.1-17.6l-2.2-135c0-0.8,0.5-1.4,1.3-1.6c5.3-1.1,9.6-1.2,12.6-1.1
								c4.8,0.2,7.3,1,12.2,0.7C613,516.2,616,515.6,618.2,515z"/>
						</defs>
						<clipPath id="SVGID_90_">
							<use xlink:href="#SVGID_89_"  style="overflow:visible;"/>
						</clipPath>
						<path class="st59" d="M472.7,546.3c5.7,0.6,13.2,0.5,21.6-2.4c9.3-3.1,16.5-8.5,21.6-13.2c0.9,4.5,1.8,9,2.7,13.4
							c-4.7,4.1-10.8,8.4-18.2,11.4c-11,4.4-20.8,4.2-28,3.1C472.5,554.5,472.6,550.4,472.7,546.3z"/>
					</g>
					<g>
						<defs>
							<path id="SVGID_91_" d="M618.2,515c0.8-0.2,1.6,0.4,1.7,1.2c0.3,6,0.6,12,1,18c1.1,39.5,2.2,79,3.3,118.5
								c0.7,24.5-14.8,46.6-38.1,54.4c-0.3,0.1-0.6,0.2-0.9,0.3c-29.1,9.7-60.6-6-70.4-35.1c-5.3-11.8-10.4-24.6-15.3-38.2
								c-7.8-21.7-13.6-42.3-18-61.2l0,0c-2.7-9.8,2.8-20.1,12.3-23.4c9.7-3.3,20.5,1.6,24.3,11.1l0,0l33.1,98.6
								c3,8.9,12.4,14.2,21.5,11.7c7.9-2.2,13.3-9.4,13.1-17.6l-2.2-135c0-0.8,0.5-1.4,1.3-1.6c5.3-1.1,9.6-1.2,12.6-1.1
								c4.8,0.2,7.3,1,12.2,0.7C613,516.2,616,515.6,618.2,515z"/>
						</defs>
						<clipPath id="SVGID_92_">
							<use xlink:href="#SVGID_91_"  style="overflow:visible;"/>
						</clipPath>
						<path class="st60" d="M494.1,544c17.6,54.3,30.6,95.6,37.2,122.1c1.6,6.3,5,20.7,17.3,28.4c11,6.9,23.6,5,28.8,4.1
							c28.8-4.5,44.7-31.3,47.8-36.8c-0.6,8.5-2.3,19.1-6.8,30.7c-11.7,30.3-34.7,46.8-44.9,53.2c-19.7-8.8-45.4-23.4-69.9-47.4
							c-58.5-57.2-69.8-128.5-72.7-154.2C451.9,544.1,473,544,494.1,544z"/>
					</g>
					<g>
						<defs>
							<path id="SVGID_93_" d="M618.2,515c0.8-0.2,1.6,0.4,1.7,1.2c0.3,6,0.6,12,1,18c1.1,39.5,2.2,79,3.3,118.5
								c0.7,24.5-14.8,46.6-38.1,54.4c-0.3,0.1-0.6,0.2-0.9,0.3c-29.1,9.7-60.6-6-70.4-35.1c-5.3-11.8-10.4-24.6-15.3-38.2
								c-7.8-21.7-13.6-42.3-18-61.2l0,0c-2.7-9.8,2.8-20.1,12.3-23.4c9.7-3.3,20.5,1.6,24.3,11.1l0,0l33.1,98.6
								c3,8.9,12.4,14.2,21.5,11.7c7.9-2.2,13.3-9.4,13.1-17.6l-2.2-135c0-0.8,0.5-1.4,1.3-1.6c5.3-1.1,9.6-1.2,12.6-1.1
								c4.8,0.2,7.3,1,12.2,0.7C613,516.2,616,515.6,618.2,515z"/>
						</defs>
						<clipPath id="SVGID_94_">
							<use xlink:href="#SVGID_93_"  style="overflow:visible;"/>
						</clipPath>
						<path class="st61" d="M551.7,660.6c1.1,2.2,3.4,5.8,7.4,8.9c1.2,0.9,11.9,8.7,23.1,3.9c0.9-0.4,8-3.5,10.9-10.9
							c2.3-5.7,0.9-11,0.6-13c-2.1-12.5-5-33.8-8.8-62.1c-2.6,20.5-5.2,41-7.8,61.5C568.7,652.9,560.2,656.7,551.7,660.6z"/>
					</g>
				</g>
				<path class="st62" d="M467.3,565.1c1.4,0.2,2.9,0.3,4.5,0.3c3.5,0.1,6.6-0.2,9.2-0.6"/>
				<path class="st62" d="M470.6,576.9c2.2,0,4.4-0.1,6.8-0.3c1.7-0.1,3.3-0.3,4.8-0.5"/>
				<path class="st62" d="M519.9,566.4c4.4-1.8,9.2-4.1,14.3-7c7.7-4.4,14.1-9.2,19.2-13.5"/>
				<path class="st62" d="M537.5,544.8c1.9-1,4.1-2.4,6.4-4.3c1.7-1.4,3.2-2.8,4.4-4.1"/>
				<path class="st62" d="M480.4,603.3c2.5-0.6,5.4-1.3,8.5-2.2"/>
				<path class="st62" d="M526.2,583.8c15.6-10.2,26.2-21.7,32.8-29.9"/>
				<path class="st62" d="M485.3,614c2-0.6,4.2-1.2,6.3-1.9"/>
				<path class="st62" d="M529.1,594.6c17.8-11.4,30.2-24.3,38.2-34"/>
				<path class="st62" d="M537.7,618.6c20.2-17.9,33-37.3,40.9-51.9"/>
				<path class="st62" d="M541.4,629.8c5.1-4.5,10.3-9.5,15.5-15c11-11.8,19.6-23.4,26.1-33.8"/>
				<path class="st62" d="M549.5,654.1c3.5-3.9,7.1-8.1,10.6-12.6c10.5-13.3,18.4-26.1,24.4-37.3"/>
				<path class="st62" d="M554.8,665.1c5-5.4,10.1-11.5,15.3-18.2c5.8-7.5,10.7-14.7,15-21.5"/>
				<path class="st62" d="M483.6,582c4.5,0.2,12.3-0.1,21.1-3.6c7.5-3,12.8-7.1,15.9-10"/>
				<path class="st62" d="M487.1,594.7c4.8,0.1,12.6-0.4,21.4-3.8c7.2-2.8,12.6-6.6,16-9.4"/>
				<path class="st62" d="M493.7,616.8c4.8-0.5,12.3-2,20.5-6.1c7.9-4,13.3-9,16.5-12.4"/>
				<path class="st62" d="M498.8,629c4.9-0.6,12.5-2.1,20.8-6.4c7.4-3.9,12.6-8.6,15.8-12"/>
				<path class="st62" d="M505.8,650.8c4.5-0.2,11.3-1.1,18.9-4.2c8.8-3.7,14.8-8.9,18.1-12.3"/>
				<path class="st62" d="M510.9,663.4c4.1-0.2,9.4-0.8,15.4-2.8c10.3-3.4,17.2-9.2,21-12.9"/>
				<path class="st62" d="M525.4,691.3c4.2-1.8,10.5-5.1,16.7-11.1c6.1-5.8,9.7-11.8,11.7-15.8"/>
				<path class="st62" d="M536,700.7c4.3-2,11.3-5.9,17.8-13.2c5.3-6,8.2-11.9,9.8-16"/>
				<path class="st62" d="M571.6,671.1c1.6,4,3.5,9.8,4.1,16.8c0.9,9.4-0.7,17.1-2.1,21.9"/>
				<path class="st62" d="M581.2,665.3c2.2,3.1,4.7,7.4,6.4,12.9c3.9,12.4,1.6,23.3,0.2,28.3"/>
				<path class="st62" d="M585.3,658.8c3.5,0.9,7.9,2.6,12.6,5.7c10.4,7,14.9,16.9,16.5,21.3"/>
				<path class="st62" d="M585.6,649.5c3.6-0.4,9.5-0.5,16.1,1.7c12.4,4.2,18.7,13.8,20.6,16.9"/>
				<path class="st62" d="M585.3,629.7c4-1.2,10.9-2.8,19.5-2s15.1,3.7,18.8,5.6"/>
				<path class="st62" d="M584.6,617.4c5.9-1.7,15.5-3.6,26.9-1.7c4.5,0.7,8.3,1.9,11.6,3.2"/>
				<path class="st62" d="M585.1,594c4.2-1.4,10.4-2.9,18.1-2.8c8.3,0,14.9,1.9,19.2,3.4"/>
				<path class="st62" d="M584.4,581.6c3.9-1.7,10.8-4,19.7-3.9c8.1,0.1,14.4,2.2,18.2,3.8"/>
				<path class="st62" d="M583.9,562.5c4.3-1.4,10.6-3,18.3-3.2c8.3-0.2,15.1,1.3,19.6,2.7"/>
				<path class="st62" d="M584,549.5c4.5-1.6,11.4-3.4,19.9-3.3c7.3,0.1,13.3,1.5,17.4,2.8"/>
				<path class="st62" d="M583.7,530.5c3.7-1.7,10.5-4.1,19.3-4.1c7.9,0,14,2,17.7,3.5"/>
				<path class="st62" d="M482.8,559c3.1-0.1,6.7-0.6,10.7-1.6c6.7-1.7,12-4.4,15.7-6.6"/>
				<path class="st33" d="M450.2,466.3c-0.2,1.4-0.4,2.8-0.6,4.2c-1.5,0.5-3.1,1.1-4.6,1.6c-0.1-0.5-0.2-1.1-0.3-1.6
					c-0.4-0.3-0.8-0.5-1.2-0.8c-2.2-3.1-4.3-6.2-6.5-9.3c0.4-4.6,1-9.7,2-15.2c1.1-5.8,2.4-11.1,3.8-15.8c2.6,6.4,4.2,12.1,5.3,16.4
					C450.9,457.7,450.5,463.8,450.2,466.3z"/>
				<path class="st33" d="M438.2,438.5c-0.1-6.3,0.7-16.9,7.4-26.5c0.8-1.1,2.6-3.6,7.7-8.3c5.4-5,13.5-11.7,25-18.3
					c6.2,6.2,12.3,12.5,18.5,18.7c-4.8,0.4-11.6,1.8-18.2,6c-6.9,4.5-9.1,9.2-14.4,14.5C459.4,429.4,451.5,435.1,438.2,438.5z"/>
				<path class="st63" d="M469.7,418.5c-1.9,0.6-4,0.9-5.7-0.1c-5.7-3.2-2.4-17.8-1.7-21.1c1.2-5.6,4.3-14.8,12.5-24.5
					c-1.3,1.5-3.3,3.8-5.8,6.8c-6.8,8.1-8.2,10.5-13.1,15.9c-4.1,4.6-6.2,6.8-9.4,9.5c-7.5,6.1-10.6,5.8-13.6,10.7
					c-0.6,0.9-4.4,7.4-1.6,12.6c1.3,2.4,3.4,3.6,4.8,4.2c-0.3-0.1-1.6-0.3-2.9,0.5c-1,0.7-1.4,1.7-1.5,2c-2.6-1.1-4.7-1.4-6.2-1.4
					c-2.1-0.1-2.5,0.3-2.7,0.6c-0.4,0.8,0.3,2,0.8,2.6c2,2.2,6.1,1.2,6.6,1c-0.8,2.3-3.4,10.8,0.5,20c2.2,5.3,5.6,8.6,7.7,10.3
					c0.3-0.1,3-0.6,5,1.2c1,0.9,1.3,2,1.4,2.6c1.5-0.5,3.1-1.1,4.6-1.6c0.6-1.9,1.2-4.8,1.3-8.3c0.1-2.7-0.2-5.3-2-12.8
					c-0.8-3.4-1.9-7.8-3.5-12.9c4-1.6,9.3-4.2,14.7-8.5C464.3,424.7,467.4,421.3,469.7,418.5z"/>
				<path class="st29" d="M438.5,468.3c-2.1-1.8-6.3-5.8-8.5-12.5c-0.7-2.5-1.5-6.3-1.1-10.9c0.2-2.7,0.8-5.1,1.4-6.9
					c-0.5,0.1-4.6,1.2-6.6-1c-0.6-0.6-1.3-1.9-0.8-2.6c0.2-0.3,0.6-0.7,2.7-0.6c1.4,0,3.6,0.3,6.2,1.4c0.3-0.7,0.7-1.4,1.5-2
					c0,0,0.1-0.1,0.2-0.1c1-0.6,2.2-0.5,2.7-0.4c-0.8-0.2-2.4-0.8-3.7-2.3c-0.5-0.6-1.3-1.8-1.6-4.4c-0.6-5.7,2.1-10.2,2.1-10.2
					c2.9-4.8,6.4-4.6,13.6-10.7c2.1-1.8,3.5-3.2,6.3-6.1c11.1-11.6,16.3-20.3,22-26c8.8-8.9,26.9-18.9,43.5-13.1
					c10,3.5,19.5,12.9,21.8,25.5c2.4,13.5-4.3,27.8-17.2,35.9c1.1,2.5,2.4,5.8,3,10c0.5,2.9,0.5,5.4,0.5,7.6"/>
				<path class="st29" d="M489.3,405.5c3.1,0.4,7.5,1.3,12.5,3.4c0,0,7.7,3.3,14.1,9.5c6.1,5.9,10.3,15.8,13.1,32.1"/>
				<path class="st29" d="M530.6,460.9c0.3,2.9,0.5,5.2,0.6,6.4c2.4,23.8,2.2,28.5,3.5,35.5c1.1,6.4,3.5,15.4,9.1,26
					c6,11.3,12.1,25,26.5,33.6c5.2,3.1,10,4.8,13.5,5.7"/>
				<path class="st29" d="M621.7,557.1c4.1-2.2,9.8-4.9,17.1-6.8c0,0,1.5-0.4,3.1-0.7c16.6-3.5,36.7-1.6,54.7,5.6
					c5.1-8.2,10-14.6,13.6-19c8.5-10.3,15.1-18.2,26.4-23.7c4.6-2.2,8.7-3.4,11.3-4.1"/>
				<path class="st29" d="M764.4,505.9c16.9,0,33,7.1,46.4,19.6c14.5,13.5,25.8,33.3,31.2,56.9l16.5,71.7c0.4,1.9-0.6,3.9-2.5,4.5
					c-5.2,2.7-11.4,5.5-18.5,8c-7.7,2.7-14.8,4.4-20.9,5.5c-0.2,0.1-1.7,0.5-3.2-0.3c-0.9-0.5-1.6-1.4-1.9-2.5l-15.9-70.5
					c-3.9-17.5-16.6-29.3-30.1-28.3c-0.3,0-0.5,0-0.8,0.1c-6.7,0.7-12.9,4.6-17.5,10.9l-8.6,11.8c3,8.7,8.4,28.3,3.3,52.4
					c-1.7,8.2-8.8,36.3-35,56.3c0,0-24.6,19-60.8,20c-0.6,0-2.6,0.1-5.5,0c-21.6-0.3-41.3-5.7-58.6-13.6"/>
				<path class="st29" d="M503.1,644.4c-16-22.7-25.1-44.8-28.9-56.6c-10.7-32.8-16.1-57.3-16.1-57.3c-1-4.4-4.3-19.8-9.8-40.5
					c-0.9-3.5-1.7-6.4-2.2-8.3"/>
				<path class="st29" d="M443.8,469.9c-1.2-0.7-3.5-1.7-6-1.1c-3.7,0.9-5.1,4.6-5.6,6.2c-1.5,4.3-0.7,10.3,3.8,13.1
					c0.6,0.4,3.7,2.5,7.2,1.3c2-0.7,3.2-2.2,3.6-2.9"/>
				<path class="st29" d="M445.4,436.6c1.2,3.8,2.1,7,2.6,9.3c1.6,6.6,3.3,12.8,2.2,20.4c-0.2,1.4-0.4,2.8-0.6,4.2
					c-1.5,0.5-3.1,1.1-4.6,1.6c-0.1-0.5-0.2-1.1-0.3-1.6c-0.4-0.3-0.8-0.5-1.2-0.8"/>
				<path class="st29" d="M500.2,403.7c-5.7,0.2-13.9,1.3-21.6,6.4c-6.7,4.4-8.5,8.9-14.4,14.5c-4.8,4.6-12.8,10.4-26,13.9"/>
				<circle class="st64" cx="501.5" cy="458" r="3"/>
				<circle class="st64" cx="529.4" cy="455" r="3"/>
				<path class="st29" d="M521,463.4c-0.1,0.2-2.3,3-5.9,2.8c-3.6-0.2-5.3-3.3-5.4-3.5"/>
				<path class="st29" d="M441.9,474.3c-1.5-0.6-3.2-0.3-4.3,0.9c-1.2,1.2-1.5,2.9-0.9,4.4"/>
				<path class="st29" d="M618.3,514.9c0.8-0.2,1.6,0.4,1.7,1.2c0.3,6,0.6,12,1,18c1.1,39.5,2.2,79,3.3,118.5
					c0.7,24.5-14.8,46.6-38.1,54.4c-0.3,0.1-0.6,0.2-0.9,0.3c-29.1,9.7-60.6-6-70.4-35.1c-5.3-11.8-10.4-24.6-15.3-38.2
					c-7.8-21.7-13.6-42.3-18-61.2l0,0c-2.7-9.8,2.8-20.1,12.3-23.4c9.7-3.3,20.5,1.6,24.3,11.1l0,0l33.1,98.6
					c3,8.9,12.4,14.2,21.5,11.7c7.9-2.2,13.3-9.4,13.1-17.6l-2.2-135c0-0.8,0.5-1.4,1.3-1.6c5.3-1.1,9.6-1.2,12.6-1.1
					c4.8,0.2,7.3,1,12.2,0.7C613.1,516.2,616,515.6,618.3,514.9z"/>
				<path class="st29" d="M824.6,670.5c0.3,1.5,0.6,2.9,0.9,4.4"/>
				<path class="st29" d="M851.1,661.1c0.2,2.1,0.4,4.2,0.6,6.4"/>
				<path class="st65" d="M743,505.6c4.1,4.3,10.8,3.8,12.5,3.7c10.7-0.9,13.4-9.1,24.7-16.4c15.2-9.8,21.9-2.5,34.3-11.7
					c11.1-8.3,19.2-24.3,14.4-31.5c-5.5-8.2-25.5-2.6-31.2-1c-11.1,3.1-16.8,8.4-18.5,10.1c-2.6,2.5-4.3,5-5.4,6.8
					c-1.7,1.8-3.6,3.6-5.8,5.3c-8.8,6.9-18,9.6-24.3,10.7c-0.8,1.6-1.9,4.2-2.6,7.4C740.4,492.4,738.5,500.8,743,505.6z"/>
				<path class="st29" d="M820.4,677.9c0.6-2.1,2.8-3.4,4.9-3c2.6,0.4,5.8,0.7,9.4,0.2c7.9-1.1,13.7-4.9,16.9-7.7
					c0.9-0.8,3-2.1,5.8-2.1c0.8,0,1.4,0.1,2.1,0.3c2.7,0.7,5.4,1.1,8.1,1.4c6.2,0.7,14.1,2,22.9,4.4c9.3,2.5,29.2,7.8,29,13.4
					c-0.2,5.1-17.2,9.5-30.8,10.6c-14.4,1.2-19-2.1-30.1,2.1c-6,2.3-7.9,4.5-15.1,6.1c-5.5,1.2-13.8,3.1-19.1-0.7
					C818.8,698.8,817.2,688.8,820.4,677.9z"/>
				<path class="st29" d="M592.5,515.6c-0.3-2.2-0.9-7.7-0.9-7.7c-15.7-4.5-26.2-12.2-26-19.4c0.1-3.1,2.3-8.6,6.2-9.6
					c2.1-0.5,4.2,0.5,5.4,1c4.5,2.1,5.1,5.9,7.9,6c0.8,0,2.2-0.2,3.8-2c0.9-3.8,1.7-9.3,1.1-15.9c-0.6-6.5-2.2-9.8-0.1-12.1
					c2.4-2.7,8.5-3.3,11.7-0.1c1.6,1.6,2,3.6,2.1,4.6c0.7-0.2,3.2-1,5.7,0.2c3.1,1.4,4,4.6,4.3,5.6c0.4,1.3,0.4,2.4,0.3,3.2
					c0.6-0.3,2.1-1.1,4-0.8c3.6,0.5,5.2,4.2,5.4,4.7c1.3,3.3,0.2,7.4-2.9,10.4c-0.2,0.2,0.9-0.6,1.9-1.4c0.4-0.3,3.8-2.9,7.8-2.5
					c2.5,0.3,6,1.8,6.6,4.5c0.4,1.8-0.6,3.4-0.8,3.7c-2.3,3.6-7,2.6-12.7,5.8c-2.3,1.3-4,2.9-5.2,4.2c-0.5,1.4-1.3,3.2-2.7,5.1
					c-1.9,2.6-4.1,4.2-5.5,5.1c0.3,2.6,0.6,5.2,0.8,7.8"/>
				<path class="st66" d="M783.5,490.9c-1.7,2.2-4.3,5.1-8.1,7.8c-2.3,1.7-4.6,2.9-6.7,3.8"/>
				<path class="st66" d="M638.4,550.5c-0.6-10-0.3-29.7,10.2-50.9c3.8-7.6,21.7-41.2,61.9-51.7c34.8-9,63,5.3,69.7,9"/>
				<path class="st66" d="M696.7,555.4c-0.8-3.3-3-14.1,2.4-25.7c5-10.7,14.5-18.1,22.9-20.3c2.2-0.6,6.4-1.4,9.9-1.9
					c4.6-0.7,8.5-1,11.2-1.2"/>
				<path class="st66" d="M738.4,484.9c-0.1-2.1,0-11.3,6.9-18.5c7-7.2,18.1-9.6,28.5-5.9"/>
				<path class="st66" d="M726.8,508c-3.4-0.1-9.9,0.2-17,3.9c-4.6,2.4-7.7,5.4-9.7,7.5"/>
				<path class="st66" d="M743.7,481.5c-1.4-1.6-2.8-3.2-4.2-4.8"/>
				<path class="st66" d="M765.9,458.9c3.1,1.5,6.3,3.1,9.4,4.6"/>
				<path class="st66" d="M741.9,487.1c3.5-2.8,6.6-4.3,8.8-5.1c3.6-1.4,5.3-1.4,9.8-3.1c0,0,3.8-1.4,7.7-3.7
					c7.5-4.3,11.7-10.5,13.9-13.3c4.1-5.2,11.6-11.5,26.6-15.8"/>
				<path class="st29" d="M603.9,460.4c0.2,1.9,0.3,4.6-0.4,7.7c-0.5,2.6-1.4,4.7-2.1,6.3"/>
				<path class="st29" d="M613.9,467.4c0.1,1.2,0.2,3.1-0.6,5.3c-0.4,1.1-0.9,1.9-1.3,2.6"/>
				<path class="st29" d="M460.9,542c5.4,2.4,24.3,10,47.1,3.2c18.2-5.4,28.9-17.1,33-22"/>
				<path class="st29" d="M462.7,549c4.8,2.3,12.1,5.2,21.3,7.1"/>
				<path class="st29" d="M516.5,557.1c8.7-1.3,15.7-3.5,20.4-5.4c0.1-8.1,0.3-16.3,0.4-24.4c2.9,2,5.8,3.9,8.8,5.9"/>
				
					<ellipse transform="matrix(0.8828 -0.4698 0.4698 0.8828 -189.0245 317.9068)" class="st67" cx="542.5" cy="537.7" rx="2.2" ry="3"/>
				
					<ellipse transform="matrix(0.8828 -0.4698 0.4698 0.8828 -196.065 324.6451)" class="st67" cx="552.5" cy="555.2" rx="2.2" ry="3"/>
				
					<ellipse transform="matrix(0.6261 -0.7797 0.7797 0.6261 -233.1004 656.4527)" class="st68" cx="568" cy="571.3" rx="2.2" ry="3"/>
				<path class="st69" d="M584.4,582.2c-0.2-0.1-0.5-0.2-0.7-0.3c-1.5-0.8-2.2-2.3-1.6-3.4c0.4-0.6,1.1-1,1.9-1"/>
				<path class="st70" d="M585.4,486.1c-2.1-20.4-4.2-40.8-6.3-61.2c-5.8,0-11.6,0-17.4,0c1.8,19.2,3.6,38.4,5.3,57.6"/>
				<path class="st70" d="M561.7,424.9l3-1.4c1.6-0.7,3.3-1.1,5-1.2c4.6-0.1,9.3-0.2,13.9-0.3c0.7,0,1.3,0.2,1.7,0.6
					c0.3,0.4,0.3,0.8,0.3,0.9c0,1.1,1.9,20.4,4.5,47.1"/>
				<path class="st70" d="M579.2,425.3c2.1-0.6,4.2-1.3,6.3-1.9"/>
			</g>
			<path class="st7" d="M766,669.1c-16.3-4.1-33.9,1.6-47.1,11.8c-13.3,10.2-22.8,24.5-30.7,39.3c-9-7.4-30.2-22.6-61.5-27.2
				c-5.6-0.8-33.8-4.6-65.8,7.7c-7.4,2.8-13.3,5.9-17.5,8.3c-4.6-18.6-19-34.4-37.1-40.7c-18.1-6.2-39.2-2.7-54.3,9.1
				c-9,25.1-18,50.2-27,75.3c121,4.6,242.1,9.1,363.1,13.7C780.7,734,773.4,701.6,766,669.1z"/>
			<path class="st29" d="M452,677.5c15.1-11.8,36.2-15.3,54.3-9.1s32.5,22.1,37.1,40.7c9.9-5.7,41.7-22.3,83.3-16.1
				c30.9,4.6,52,19.6,61.5,27.2c7.9-14.8,17.4-29.1,30.7-39.3c19.3-14.8,40.8-12.3,47.1-11.8"/>
			<path class="st7" d="M923.5,691.4c-5.9-2.1-19.1-6-35.5-3c-14.7,2.7-24.8,9.6-29.7,13.4c-1.3-1.8-10.4-13.9-26.7-15
				c-13.3-1-22.6,5.9-24.8,7.7c-0.8,0.5-5.3,3.4-6.5,9.3c-1.3,6.6,2.7,11.5,3.2,12c40.8,6.5,81.5,13,122.3,19.4
				c4.1-1.8,6.3-4.2,7.5-6C939.2,720.4,935.6,705,923.5,691.4z"/>
			<path class="st29" d="M807.6,694.7c2.6-2.1,10.4-7.8,21.6-7.9c17.5-0.2,28,13.5,29.1,15c4.2-3.3,9.6-6.8,16.4-9.5
				c21.3-8.5,41.1-3.4,48.8-0.9"/>
		</g>
	</g>
</g>
</svg>
