<svg id="Layer_1" data-name="Layer 1" xmlns="http://www.w3.org/2000/svg" xmlns:xlink="http://www.w3.org/1999/xlink" viewBox="0 0 501.5 429.47"><defs><style>.cls-1,.cls-11,.cls-15,.cls-16,.cls-2,.cls-24,.cls-25{fill:none;}.cls-2{stroke:#603a19;stroke-miterlimit:10;stroke-width:4px;}.cls-11,.cls-15,.cls-16,.cls-2,.cls-24,.cls-25{stroke-linecap:round;}.cls-3{fill:#effbfc;}.cls-4{fill:#f3f2f2;}.cls-5{clip-path:url(#clip-path);}.cls-6{fill:#dcdbd6;}.cls-22,.cls-7{fill:#c3e7ef;}.cls-7{opacity:0.35;}.cls-10,.cls-7{isolation:isolate;}.cls-8{clip-path:url(#clip-path-2);}.cls-9{fill:#edf8f9;}.cls-10{fill:#bdbec0;opacity:0.64;}.cls-11,.cls-15,.cls-16,.cls-24,.cls-25{stroke:#603b1b;stroke-linejoin:round;}.cls-11{stroke-width:3px;}.cls-12{fill:#603a19;}.cls-13{fill:#9eb8bb;}.cls-14{fill:#f2f2f2;}.cls-15{stroke-width:1.52px;}.cls-16{stroke-width:1.65px;}.cls-17{fill:#e8e7e7;}.cls-18{clip-path:url(#clip-path-3);}.cls-19{fill:#e0f8fc;}.cls-20{clip-path:url(#clip-path-4);}.cls-21{clip-path:url(#clip-path-7);}.cls-23{clip-path:url(#clip-path-12);}.cls-24{stroke-width:1.65px;}.cls-25{stroke-width:1.8px;}</style><clipPath id="clip-path"><path class="cls-1" d="M424.84,134.18c-.7.5-3.7,2.9-7.5,2.2a7.67,7.67,0,0,1-4.5-2.6c-.3,1.5-.5,2.9-.7,3.9-1.1,6.1-3.7,16.7-5,32.1a78.55,78.55,0,0,0,1.7,27.1,73.44,73.44,0,0,0,2.4,7.7c1.9,2.5,3.9,5,5.8,7.5-2.7,2-36.3,26.4-72.1,12.5a68.51,68.51,0,0,1-29.9-23.3c2.3-.5,4.6-.9,6.8-1.4a7.57,7.57,0,0,1,.1-1.5q0-38.85-.1-77.8c0-17.5.4-36.4,10.6-50.6A43.72,43.72,0,0,1,366,52.08a45.31,45.31,0,0,1,35.1,15.2c12.1,13.7,14.2,33.1,13.6,48.6a8.49,8.49,0,0,1,5.9-1.7c4,.5,5.9,4.3,6.6,5.9C429.54,124.28,429.34,130.68,424.84,134.18Z"/></clipPath><clipPath id="clip-path-2"><path class="cls-1" d="M210.54,319.58h-19.1c12.4-10.4,24.7-20.9,37.1-31.3a33.39,33.39,0,0,0,9.4-12.9,190,190,0,0,1,10-20.9c8.7-15.7,13.7-24.9,24.4-33.1,9.1-7,19.1-10.8,29.7-14.8a165,165,0,0,1,16.5-5.3c1.2,2,15.4,25.3,43.7,27.2,30.6,2.1,48.3-22.8,49.1-24,16,10,31.9,20,47.9,30a61.29,61.29,0,0,1,7,5.3,44.69,44.69,0,0,1,9.3,10.4,40.5,40.5,0,0,1,4.8,10.8c2.7,9,8.5,30.2,15.5,58.5q-107.85,0-215.7.1c-.2-2-.4-4-.7-5.9a12.26,12.26,0,0,0-4.6,2.6,13.15,13.15,0,0,0-2.6,3.3Z"/></clipPath><clipPath id="clip-path-3"><path class="cls-1" d="M111.74,47.48c22.4-7.1,44.6.9,47.8,2.1,6.1,2.3,15.1,5.8,22.8,14.5a39,39,0,0,1,6.2,9c.7,1.4,11.1,22.7,0,35.3-5.3,6-13.2,7.3-17.3,7.6a15.45,15.45,0,0,1-8.3,6.9,15.92,15.92,0,0,1-11.8-.7Q123.09,128,95,134c-2.8,13.6-5.5,27.2-8.3,40.8-8.1,3.2-16.2,6.5-24.2,9.7,1.1,5.9,2.6,14.2,4.2,24.2,2.8,17.9,2.9,22,2.8,25.6a67.42,67.42,0,0,1-6.9,26.3,17.68,17.68,0,0,1-20.8,2.8,17.32,17.32,0,0,1-8.3-15.2c-1.5.1-14,1.1-22.2-8.3s-6.4-23.3-1.4-31.2a31.9,31.9,0,0,1,10.4-9.7c6.2-3.6,8.8-2.1,12.5-5.5,4.5-4.2,5.1-10.6,5.5-15.9a40.28,40.28,0,0,0-1.4-14.5c-2.3-1.6-18.4-13.3-19.4-33.2-.1-1.8-.9-24.3,14.5-32.5a25.53,25.53,0,0,1,13.8-2.8,23.74,23.74,0,0,0,9-1.4,20,20,0,0,0,5.5-2.8,44.81,44.81,0,0,0,8.3-5.5c3.1-2.6,4.4-4.6,8.3-9,1.4-1.6,3.9-4.3,9-9.7,6.8-7.2,10.2-10.8,12.5-12.5A49,49,0,0,1,111.74,47.48Z"/></clipPath><clipPath id="clip-path-4"><path class="cls-1" d="M66,128.48a92.38,92.38,0,0,1,3.5,18,54.71,54.71,0,0,1,0,10.4,44.59,44.59,0,0,1-2.1,9.7c-1.6.5-3.2.9-4.8,1.4a8.76,8.76,0,0,0-2.1-2.8,8.62,8.62,0,0,0-6.2-2.1c-4.8.5-9,7.1-8.3,13.2.5,4.5,3.8,9.6,9,10.4a10.73,10.73,0,0,0,7.6-2.1c2.2,13.5,3.6,21.6,4.8,29.1,1.6,9.3,2.4,14.1,2.1,20.8a66.8,66.8,0,0,1-3.5,18.7,77.89,77.89,0,0,0,40.2,16.6,78.77,78.77,0,0,0,51.9-13.2V154.08a101.78,101.78,0,0,0-1.4-10.4c-1.7-9.7-2.8-16.1-6.9-22.8a43.5,43.5,0,0,0-11.8-12.5,53.13,53.13,0,0,0-18.7-9,41.75,41.75,0,0,0-8.3,2.1,44.43,44.43,0,0,0-11.1,6.2c-4.7,3.5-4,4.3-9,8.3a60.43,60.43,0,0,1-11.8,7.6A54.82,54.82,0,0,1,66,128.48Z"/></clipPath><clipPath id="clip-path-7"><path class="cls-1" d="M179.54,270.48a35.25,35.25,0,0,0,6.2,15.9,36.85,36.85,0,0,0,15.9,12.5,21.67,21.67,0,0,1,5.5-5.5,22.68,22.68,0,0,1,9-3.5,130.5,130.5,0,0,0,21.5,5.5c5.4.9,9.3,1.2,13.2-.7a16.33,16.33,0,0,0,6.2-5.5,39.87,39.87,0,0,0,10.4,2.1c4.5.3,13.9.9,16.6-4.2.5-.9,1.3-3,0-6.9a9,9,0,0,0,6.9-2.8,9.09,9.09,0,0,0,2.1-7.6,43.75,43.75,0,0,0,4.8-1.4c2.2-.8,2.6-1.1,2.8-1.4,1.4-1.7.9-5-.7-6.9-2-2.4-5.9-3.1-9.7-1.4,5-1.5,7.6-5.4,6.9-8.3-.5-2.2-3.1-4-5.5-4.2-3.4-.3-5.1,2.5-10.4,5.5a38.39,38.39,0,0,1-8.3,3.5,58.76,58.76,0,0,0-32.5-4.2,58,58,0,0,0-15.2,4.8L212,260a45.58,45.58,0,0,0-32.5,10.5Z"/></clipPath><clipPath id="clip-path-12"><path class="cls-1" d="M66,253.78a79.27,79.27,0,0,0,92,2.7q.75,5.25,2.1,11.1a137.1,137.1,0,0,0,6.2,20.1,45.72,45.72,0,0,1,5.5-9.7,41.53,41.53,0,0,1,7.6-7.6,35.25,35.25,0,0,0,6.2,15.9,36.85,36.85,0,0,0,15.9,12.5,42,42,0,0,0-4.2,8.3,38.19,38.19,0,0,0-2.1,12.5c-.1,12.5-1,24.9-1.4,37.4-.5,15.9-.8,24-3.5,33.2-2.3,7.8-4.2,14.4-9.7,20.8-12.5,14.5-32.4,15.1-38.1,15.2-4.4.1-22.5.1-38.8-12.5-15.6-12.1-20.6-29-23.5-38.8a100,100,0,0,1-2.8-12.5H51.14c2.5-31.2,5.1-62.3,7.6-93.5C61.44,264,63.74,258.88,66,253.78Z"/></clipPath></defs><path class="cls-2" d="M171.84,162.78a21.69,21.69,0,0,1,8.4,13.7,22,22,0,0,1-3.2,15.1"/><path class="cls-2" d="M186.44,153.58a27.73,27.73,0,0,1,10.8,17.6,27.32,27.32,0,0,1-4.2,19.4"/><path class="cls-2" d="M203.24,146.68a31.53,31.53,0,0,1,7.8,42.9"/><path class="cls-3" d="M417.74,129.48l1.4-14.2a30.44,30.44,0,0,0,5.5-35.5c3,1.3,6,.7,7.3-1.1.5-.7,1.1-2.1.6-2.9s-2.8-.9-9.3,1.8c-.8-1-1.6-2-2.3-3a14.12,14.12,0,0,0,2.2-6.8,16.41,16.41,0,0,0-3.4-10.5c-2.1-2.6-3.4-2.3-9.5-5.8a84.23,84.23,0,0,1-13.4-9.7,77.41,77.41,0,0,1-6.8-6.9c-5.9-6.6-27.8-31.3-53.4-30A34.74,34.74,0,0,0,303.34,35c-2.1,15.1,6.7,30.8,22,38.5a39.26,39.26,0,0,0-1.6,8.3,44,44,0,0,0,.2,9.4c.8,6.4,2.8,20.3,6.1,38.5Z"/><path class="cls-4" d="M424.84,134.18c-.7.5-3.7,2.9-7.5,2.2a7.67,7.67,0,0,1-4.5-2.6c-.3,1.5-.5,2.9-.7,3.9-1.1,6.1-3.7,16.7-5,32.1a78.55,78.55,0,0,0,1.7,27.1,73.44,73.44,0,0,0,2.4,7.7c1.9,2.5,3.9,5,5.8,7.5-2.7,2-36.3,26.4-72.1,12.5a68.51,68.51,0,0,1-29.9-23.3c2.3-.5,4.6-.9,6.8-1.4a7.57,7.57,0,0,1,.1-1.5q0-38.85-.1-77.8c0-17.5.4-36.4,10.6-50.6A43.72,43.72,0,0,1,366,52.08a45.31,45.31,0,0,1,35.1,15.2c12.1,13.7,14.2,33.1,13.6,48.6a8.49,8.49,0,0,1,5.9-1.7c4,.5,5.9,4.3,6.6,5.9C429.54,124.28,429.34,130.68,424.84,134.18Z"/><g class="cls-5"><path class="cls-6" d="M427.44,120c-.8-1.6-2.6-5.4-6.6-5.9a8.77,8.77,0,0,0-6,1.7c.6-15.4-1.5-34.9-13.6-48.6A45.5,45.5,0,0,0,366.14,52a40.51,40.51,0,0,0-8.5,1.2h0c5.6,1,14.1,3.3,21.2,9.9s13.8,18.2,12.8,52.6c-.8,28.2-6.3,48.7-8.3,57.2a179.22,179.22,0,0,0-3.9,54.9c20.5-3.4,35.8-14.4,37.5-15.8-1.9-2.5-3.9-5-5.8-7.5a60.72,60.72,0,0,1-2.4-7.7,76,76,0,0,1-1.7-27.1,260.6,260.6,0,0,1,5.1-32c.2-1.1.4-2.4.7-3.9a7.85,7.85,0,0,0,4.5,2.6c3.8.7,6.8-1.7,7.5-2.2C429.44,130.78,429.54,124.28,427.44,120Z"/></g><path class="cls-3" d="M407.44,112.78c.4,1.5.8,2.9,1.2,4.4l5,1.2c0-.6.1-1.2.1-1.8l1.2-.9c1.9-3.5,3.8-7,5.8-10.6a144.86,144.86,0,0,0-3.9-15.8c-1.8-6-3.8-11.4-5.8-16.3a125.45,125.45,0,0,0-3.7,18C405.74,103.88,406.74,110.28,407.44,112.78Z"/><path class="cls-3" d="M416.84,82.08c-.6-6.6-2.7-17.7-10.9-27.2a60.67,60.67,0,0,0-9-7.9,141.14,141.14,0,0,0-28.5-16.4L351,52.48a42.38,42.38,0,0,1,19.9,4.2c7.8,3.9,10.7,8.7,16.8,13.6C393.44,74.88,402.44,80.08,416.84,82.08Z"/><path class="cls-7" d="M381.24,64.58c2,.4,4.3.5,6-.7,5.6-4.1.5-19.1-.6-22.4a59.86,59.86,0,0,0-16.1-24.4c1.5,1.4,4,3.6,6.9,6.5,8.1,7.8,9.9,10.2,15.6,15.3,4.9,4.4,7.3,6.5,11,8.9,8.6,5.6,11.9,4.9,15.6,9.8.7.9,5.5,7.3,3.1,13.2a10.32,10.32,0,0,1-4.6,5,4.24,4.24,0,0,1,3.1.2,3.46,3.46,0,0,1,1.8,2,19.3,19.3,0,0,1,6.4-2.2c2.2-.3,2.7,0,2.9.4.5.7-.1,2.1-.6,2.9-1.8,2.6-6.3,1.9-6.8,1.8,1.1,2.4,4.9,11,1.8,21.1a28.17,28.17,0,0,1-7,11.8c-.3,0-3.3-.3-5.1,1.9a5.9,5.9,0,0,0-1.2,2.9l-5-1.2a35.75,35.75,0,0,1-2.3-8.6c-.4-2.8-.4-5.6.6-13.7.5-3.7,1.2-8.4,2.2-14a61.86,61.86,0,0,1-16.5-7.3A84.86,84.86,0,0,1,381.24,64.58Z"/><path class="cls-3" d="M210.54,319.58h-19.1c12.4-10.4,24.7-20.9,37.1-31.3a33.39,33.39,0,0,0,9.4-12.9,190,190,0,0,1,10-20.9c8.7-15.7,13.7-24.9,24.4-33.1,9.1-7,19.1-10.8,29.7-14.8a165,165,0,0,1,16.5-5.3c1.2,2,15.4,25.3,43.7,27.2,30.6,2.1,48.3-22.8,49.1-24,16,10,31.9,20,47.9,30a61.29,61.29,0,0,1,7,5.3,44.69,44.69,0,0,1,9.3,10.4,40.5,40.5,0,0,1,4.8,10.8c2.7,9,8.5,30.2,15.5,58.5q-107.85,0-215.7.1c-.2-2-.4-4-.7-5.9a12.26,12.26,0,0,0-4.6,2.6,13.15,13.15,0,0,0-2.6,3.3Z"/><g class="cls-8"><path class="cls-7" d="M480.24,261.08a45.43,45.43,0,0,0-4.8-10.8,47.06,47.06,0,0,0-9.3-10.4,59.29,59.29,0,0,0-7-5.3c-6.8-4.5-23.3-14.9-45.3-28.3a68.88,68.88,0,0,1-6.1,12.7,74.34,74.34,0,0,1-16,18.9c1.2,1.6,2.7,3.7,4.3,6.1a116.71,116.71,0,0,1,6.5,11.5c1.7,3.4,7.3,14.6,9.3,27.5,2.4,15.2-.7,28.4-3.7,37.1,29.2-.2,58.4-.5,87.6-.7-2.2-8.2-3.9-15-5-19.5C490.24,297.28,485.64,278.58,480.24,261.08Z"/></g><path class="cls-9" d="M342,218.48a64.34,64.34,0,0,0,20.2,4.3,67.79,67.79,0,0,0,30-5.4c-3.4,2.6-6.7,5.3-10.1,7.9a41.56,41.56,0,0,1-15.7,3.3,46.4,46.4,0,0,1-15.3-2.4C348.14,223.58,345.14,221.08,342,218.48Z"/><path class="cls-9" d="M321.64,200.18a46.9,46.9,0,0,0,40.6,22.5c-8.3.5-15.2,5.1-17.6,11.8a15.93,15.93,0,0,0,0,10.5,96.6,96.6,0,0,1-24.4-30.2,81.24,81.24,0,0,1-5.3-12.6C317.14,201.58,319.44,200.88,321.64,200.18Z"/><path class="cls-9" d="M411.24,204.48a66.41,66.41,0,0,1-16.8,11.5,70.41,70.41,0,0,1-24.4,6.8,15.64,15.64,0,0,1,10.7,4.6c4.2,4.4,5.3,11.2,2.9,17.4a81.64,81.64,0,0,0,26.1-28.7,67.18,67.18,0,0,0,4.3-9.7A27.5,27.5,0,0,0,411.24,204.48Z"/><path class="cls-10" d="M379.14,221.38a14.65,14.65,0,0,1,8,7.7c2.1,5.1.7,11.3-3.4,15.7a83.3,83.3,0,0,0,23.2-24,87.64,87.64,0,0,0,7.2-14.4c-1-.6-1.9-1.2-2.9-1.8a69.67,69.67,0,0,1-12.8,9.4A74.93,74.93,0,0,1,379.14,221.38Z"/><path class="cls-11" d="M495.84,319c-7-28.3-12.8-49.5-15.5-58.5a42.53,42.53,0,0,0-4.8-10.8,47.06,47.06,0,0,0-9.3-10.4,59.29,59.29,0,0,0-7-5.3c-6.9-4.6-24.5-15.6-47.9-30"/><path class="cls-11" d="M437,281.28a75.26,75.26,0,0,1,6.4,23.1,72.58,72.58,0,0,1,0,15.5"/><path class="cls-11" d="M419.94,113a30.09,30.09,0,0,0,7.6-14.2,32.13,32.13,0,0,0-.1-11.6,34.84,34.84,0,0,0-2.3-7.1c.5.1,5,.7,6.8-1.8.5-.7,1.1-2.1.6-2.9-.2-.3-.8-.7-2.9-.4a17.22,17.22,0,0,0-6.4,2.2,4.76,4.76,0,0,0-1.8-2,.35.35,0,0,0-.2-.1,3.67,3.67,0,0,0-2.9-.1,7.47,7.47,0,0,0,3.6-2.8,8.13,8.13,0,0,0,1.2-4.9,19.13,19.13,0,0,0-3.4-10.5c-3.6-4.7-7.2-4.1-15.6-9.8a64.86,64.86,0,0,1-7.3-5.8c-13-11-19.6-19.5-26.2-24.9-10.4-8.4-30.6-16.9-47.5-8.8-10.1,4.9-19.1,15.8-20,29.4-1,14.6,7.8,28.9,22.3,36a43.81,43.81,0,0,0-2.1,10.9,39.13,39.13,0,0,0,.4,8"/><path class="cls-11" d="M411.24,203.88a75,75,0,0,1-4.7-22.9c-.4-8.8,1-14,5.7-43.9.6-3.9,1.1-7,1.4-9"/><path class="cls-11" d="M359,52.58a47.35,47.35,0,0,0-12.8,5.1,57.48,57.48,0,0,0-13.8,11.7c-5.8,6.9-9,15.9-10.1,33.4"/><path class="cls-11" d="M321.84,115.88c0,3.1,0,5.6.1,6.8.3,37.8.9,52.4.1,75a4.55,4.55,0,0,1-.1,1.4"/><path class="cls-11" d="M414.54,115.38a9,9,0,0,1,6.2-1.9c4,.5,5.9,4.3,6.6,5.9,2.1,4.4,1.9,10.8-2.5,14.3-.6.5-3.7,3.1-7.5,2.2a8,8,0,0,1-4.2-2.7"/><path class="cls-11" d="M409,80.28c-.9,4.1-1.4,7.6-1.7,10.1-.9,7.2-2,13.9.1,21.8.4,1.5.8,2.9,1.2,4.4l5,1.2c0-.6.1-1.2.1-1.8l1.2-.9"/><path class="cls-11" d="M347.34,51.88c6-.5,14.9-.3,23.6,4.2,7.5,3.9,10,8.4,16.8,13.6,5.6,4.3,14.7,9.5,29.1,11.7"/><path class="cls-11" d="M351.14,225.88a51.78,51.78,0,0,0,14.4,2.1,53.09,53.09,0,0,0,14.5-2"/><path class="cls-11" d="M190.44,319.78c7.1-6,14.6-12.3,21.1-17.8,14.5-12.3,16.2-13.8,18.8-16.6,8.8-9.9,7.8-14.2,17.5-31.5,9.4-16.8,14.2-25.4,24.4-33.1,9.4-7.1,20.4-11.3,29.7-14.8,6.6-2.5,12.2-4.2,16.3-5.3"/><path class="cls-11" d="M321.64,199.68a46.9,46.9,0,0,0,40.6,22.5c-8.3.5-15.2,5.1-17.6,11.8a15.93,15.93,0,0,0,0,10.5,96.6,96.6,0,0,1-24.4-30.2,81.24,81.24,0,0,1-5.3-12.6C317.14,201,319.44,200.28,321.64,199.68Z"/><path class="cls-11" d="M411.24,203.88a66.41,66.41,0,0,1-16.8,11.5,70.41,70.41,0,0,1-24.4,6.8,15.64,15.64,0,0,1,10.7,4.6c4.2,4.4,5.3,11.2,2.9,17.4a81.64,81.64,0,0,0,26.1-28.7,67.18,67.18,0,0,0,4.3-9.7A27.5,27.5,0,0,0,411.24,203.88Z"/><circle class="cls-12" cx="352.24" cy="109.38" r="3.2"/><circle class="cls-12" cx="322.44" cy="109.38" r="3.2"/><line class="cls-11" x1="362.24" y1="222.18" x2="370.14" y2="222.18"/><circle class="cls-11" cx="365.44" cy="224.38" r="1.6"/><path class="cls-11" d="M417,119.68a4.25,4.25,0,0,1,6.1,5"/><path class="cls-11" d="M280.14,319c-.2-1.4-.5-2.8-.7-4.2a105.09,105.09,0,0,1-.9-17.3"/><path class="cls-11" d="M279.14,314.18a12.08,12.08,0,0,0-3.8,1.9,12.24,12.24,0,0,0-3.4,3.9"/><path class="cls-7" d="M249.14,319.68a134.18,134.18,0,0,1,14.4-11.4,126.55,126.55,0,0,1,13.3-8,32.52,32.52,0,0,0,0,7,29.39,29.39,0,0,0,1,5,12.13,12.13,0,0,0-5,3,11.94,11.94,0,0,0-3,5Q259.49,319.83,249.14,319.68Z"/><path class="cls-13" d="M343.24,136.18c-8.6,2.2-15-4.2-15.3-4.5.2-.9.4-1.7.6-2.6,7.9-1.3,15.7-2.6,23.6-3.8.4.9.9,1.7,1.3,2.6A16,16,0,0,1,343.24,136.18Z"/><path class="cls-14" d="M352.84,125.28a24.21,24.21,0,0,1-11.5,5.1,24.53,24.53,0,0,1-12.8-1.3,3.72,3.72,0,0,1,0-2.6,3.77,3.77,0,0,1,2.6-1.9c3.3-1,4.7,1.3,8.3,1.3,4.5-.1,5.9-3.9,9.6-3.2A7.36,7.36,0,0,1,352.84,125.28Z"/><path class="cls-15" d="M330.74,125.38c3.2-1.2,5.1,1.6,9.3,1.3,4.4-.4,5.7-3.9,9.2-3.4a4.84,4.84,0,0,1,3.7,2.6c1.6,3.4-3.2,7.5-3.4,7.6-4.5,3.7-12.4,4.5-17.2,1.5-2.5-1.5-5.5-4.8-4.2-7.4A4.77,4.77,0,0,1,330.74,125.38Z"/><path class="cls-16" d="M352.64,126a26.94,26.94,0,0,1-11,4.5,26,26,0,0,1-13.4-1.3"/><path class="cls-2" d="M300,115.18a21.17,21.17,0,0,0,11.3,26.9"/><path class="cls-2" d="M282.84,115.48a27.35,27.35,0,0,0,14.6,34.8"/><path class="cls-2" d="M264.94,118.78a31.54,31.54,0,0,0,16.8,40.3"/><path class="cls-17" d="M111.74,47.48c22.4-7.1,44.6.9,47.8,2.1,6.1,2.3,15.1,5.8,22.8,14.5a39,39,0,0,1,6.2,9c.7,1.4,11.1,22.7,0,35.3-5.3,6-13.2,7.3-17.3,7.6a15.45,15.45,0,0,1-8.3,6.9,15.92,15.92,0,0,1-11.8-.7Q123.09,128,95,134c-2.8,13.6-5.5,27.2-8.3,40.8-8.1,3.2-16.2,6.5-24.2,9.7,1.1,5.9,2.6,14.2,4.2,24.2,2.8,17.9,2.9,22,2.8,25.6a67.42,67.42,0,0,1-6.9,26.3,17.68,17.68,0,0,1-20.8,2.8,17.32,17.32,0,0,1-8.3-15.2c-1.5.1-14,1.1-22.2-8.3s-6.4-23.3-1.4-31.2a31.9,31.9,0,0,1,10.4-9.7c6.2-3.6,8.8-2.1,12.5-5.5,4.5-4.2,5.1-10.6,5.5-15.9a40.28,40.28,0,0,0-1.4-14.5c-2.3-1.6-18.4-13.3-19.4-33.2-.1-1.8-.9-24.3,14.5-32.5a25.53,25.53,0,0,1,13.8-2.8,23.74,23.74,0,0,0,9-1.4,20,20,0,0,0,5.5-2.8,44.81,44.81,0,0,0,8.3-5.5c3.1-2.6,4.4-4.6,8.3-9,1.4-1.6,3.9-4.3,9-9.7,6.8-7.2,10.2-10.8,12.5-12.5A49,49,0,0,1,111.74,47.48Z"/><g class="cls-18"><path class="cls-6" d="M152.54,47.48a49.37,49.37,0,0,0-16.6,11.1c-15.3,15.4-15.4,35.9-15.2,40.8q31.05,31.5,62,63l13.2-76.8a120,120,0,0,1-6.2-19.4q-1.35-5.85-2.1-11.1C175.94,52.58,164.24,50.08,152.54,47.48Z"/></g><path class="cls-19" d="M66,128.48a92.38,92.38,0,0,1,3.5,18,54.71,54.71,0,0,1,0,10.4,44.59,44.59,0,0,1-2.1,9.7c-1.6.5-3.2.9-4.8,1.4a8.76,8.76,0,0,0-2.1-2.8,8.62,8.62,0,0,0-6.2-2.1c-4.8.5-9,7.1-8.3,13.2.5,4.5,3.8,9.6,9,10.4a10.73,10.73,0,0,0,7.6-2.1c2.2,13.5,3.6,21.6,4.8,29.1,1.6,9.3,2.4,14.1,2.1,20.8a66.8,66.8,0,0,1-3.5,18.7,77.89,77.89,0,0,0,40.2,16.6,78.77,78.77,0,0,0,51.9-13.2V154.08a101.78,101.78,0,0,0-1.4-10.4c-1.7-9.7-2.8-16.1-6.9-22.8a43.5,43.5,0,0,0-11.8-12.5,53.13,53.13,0,0,0-18.7-9,41.75,41.75,0,0,0-8.3,2.1,44.43,44.43,0,0,0-11.1,6.2c-4.7,3.5-4,4.3-9,8.3a60.43,60.43,0,0,1-11.8,7.6A54.82,54.82,0,0,1,66,128.48Z"/><g class="cls-20"><path class="cls-7" d="M120.94,99.48a112.8,112.8,0,0,1,12.7,27c10.3,32.9-.2,54.5.8,100.8a297.58,297.58,0,0,0,4,43.1c10.6,6.1,21.2,12.1,31.8,18.2l14.8-96.8a173,173,0,0,0-2.6-54.3,167,167,0,0,0-6.3-22.4q-22.35-13.8-44.7-27.5C127.94,91.58,124.44,95.58,120.94,99.48Z"/></g><g class="cls-20"><path class="cls-13" d="M138,187.38c9.3,2.3,16.3-4.5,16.6-4.8-.2-.9-.5-1.8-.7-2.8l-25.6-4.2c-.5.9-.9,1.8-1.4,2.8C127.44,179.28,130.74,185.48,138,187.38Z"/></g><g class="cls-20"><path class="cls-14" d="M127.64,175.58a27.11,27.11,0,0,0,12.5,5.5,25.67,25.67,0,0,0,13.8-1.4,3.71,3.71,0,0,0,0-2.8,4.23,4.23,0,0,0-2.8-2.1c-3.5-1.1-5.1,1.5-9,1.4-4.9-.1-6.4-4.2-10.4-3.5A8.19,8.19,0,0,0,127.64,175.58Z"/></g><path class="cls-19" d="M179.54,270.48a35.25,35.25,0,0,0,6.2,15.9,36.85,36.85,0,0,0,15.9,12.5,21.67,21.67,0,0,1,5.5-5.5,22.68,22.68,0,0,1,9-3.5,130.5,130.5,0,0,0,21.5,5.5c5.4.9,9.3,1.2,13.2-.7a16.33,16.33,0,0,0,6.2-5.5,39.87,39.87,0,0,0,10.4,2.1c4.5.3,13.9.9,16.6-4.2.5-.9,1.3-3,0-6.9a9,9,0,0,0,6.9-2.8,9.09,9.09,0,0,0,2.1-7.6,43.75,43.75,0,0,0,4.8-1.4c2.2-.8,2.6-1.1,2.8-1.4,1.4-1.7.9-5-.7-6.9-2-2.4-5.9-3.1-9.7-1.4,5-1.5,7.6-5.4,6.9-8.3-.5-2.2-3.1-4-5.5-4.2-3.4-.3-5.1,2.5-10.4,5.5a38.39,38.39,0,0,1-8.3,3.5,58.76,58.76,0,0,0-32.5-4.2,58,58,0,0,0-15.2,4.8L212,260a45.58,45.58,0,0,0-32.5,10.5Z"/><g class="cls-21"><path class="cls-22" d="M258.44,286.38a38.33,38.33,0,0,0,12.5,1.4,35,35,0,0,0,13.8-3.5c-.5,3.9-.9,7.8-1.4,11.8L257,294Z"/></g><g class="cls-21"><path class="cls-22" d="M282,277.38a16.3,16.3,0,0,0,5.5-1.4,16,16,0,0,0,5.7-4.4c.6,3.1,1.3,6.2,1.9,9.3l-10.6,1.3Z"/></g><g class="cls-21"><path class="cls-22" d="M291,266.28a7.6,7.6,0,0,0,6.9-.7,7.46,7.46,0,0,0,2.8-4.2c1.2,2.1,2.3,4.2,3.5,6.2l-10.9,3.9C292.54,269.78,291.74,268.08,291,266.28Z"/></g><g class="cls-21"><path class="cls-22" d="M279.94,260.78c1.2-.7,2.9-1.6,4.8-2.8,7.6-4.6,8.7-6.1,9-7.6a6.6,6.6,0,0,0-.7-4.2l8.3,2.1c.2,2.8.5,5.5.7,8.3C294.74,258,287.34,259.38,279.94,260.78Z"/></g><g class="cls-21"><path class="cls-22" d="M201,298.78l49.2,6.9,15.2-2.1c-2.3-5.8-4.6-11.5-6.9-17.3a26.57,26.57,0,0,1-10.4,4.8,30.28,30.28,0,0,1-12.5,0c-9.1-1.6-12.1-5.5-20.1-4.8a23.35,23.35,0,0,0-3.8.6,35.42,35.42,0,0,0-5.9,2.9,44.68,44.68,0,0,0-9,6.9C198.24,297.48,199.64,298.08,201,298.78Z"/></g><path class="cls-17" d="M66,253.78a79.27,79.27,0,0,0,92,2.7q.75,5.25,2.1,11.1a137.1,137.1,0,0,0,6.2,20.1,45.72,45.72,0,0,1,5.5-9.7,41.53,41.53,0,0,1,7.6-7.6,35.25,35.25,0,0,0,6.2,15.9,36.85,36.85,0,0,0,15.9,12.5,42,42,0,0,0-4.2,8.3,38.19,38.19,0,0,0-2.1,12.5c-.1,12.5-1,24.9-1.4,37.4-.5,15.9-.8,24-3.5,33.2-2.3,7.8-4.2,14.4-9.7,20.8-12.5,14.5-32.4,15.1-38.1,15.2-4.4.1-22.5.1-38.8-12.5-15.6-12.1-20.6-29-23.5-38.8a100,100,0,0,1-2.8-12.5H51.14c2.5-31.2,5.1-62.3,7.6-93.5C61.44,264,63.74,258.88,66,253.78Z"/><g class="cls-23"><path class="cls-6" d="M87.44,408.18c53.6,16.6,75.1,9.7,84.5-.7,13-14.4,16.5-46.5,15.2-63.7-.5-6.9-.1-11.7.7-21.5.7-8.7,2-17.4,8.3-24.2l1.4-1.4c1.2.7,2.3,1.4,3.5,2.1,3.9,30.5,7.8,60.9,11.8,91.4a83.38,83.38,0,0,1-40.2,37.4c-27.4,11.9-52,4.7-58.2,2.8Z"/></g><g class="cls-23"><path class="cls-6" d="M138.74,266.28c2.5,10.3,4.9,21.1,6.9,32.5a532.87,532.87,0,0,1,7.6,65.1c1.4-16.2,2.2-26.7,2.8-33.2,1-11.9,1.5-18.6,4.2-27.7a94.24,94.24,0,0,1,6.2-15.9,120,120,0,0,1-6.2-19.4q-1.35-5.85-2.1-11.1C151.64,259.78,145.14,263.08,138.74,266.28Z"/></g><circle class="cls-12" cx="126.34" cy="159.18" r="3.4"/><circle class="cls-12" cx="157.74" cy="159.18" r="3.4"/><path class="cls-24" d="M151.54,175.18c-3.5-1.4-5.5,1.8-10.1,1.4-4.8-.4-6.2-4.2-10-3.7a5.35,5.35,0,0,0-4,2.8c-1.7,3.7,3.5,8.1,3.7,8.3,4.8,4,13.4,4.8,18.6,1.7,2.8-1.7,5.9-5.2,4.6-8.1A5.88,5.88,0,0,0,151.54,175.18Z"/><path class="cls-25" d="M33.84,248.58a16.65,16.65,0,0,0,7.6,15.2c7.9,5,16.3.9,16.6.7A16.72,16.72,0,0,0,67,250"/><path class="cls-25" d="M127.74,175.88a28.07,28.07,0,0,0,12,4.9,28.78,28.78,0,0,0,14.5-1.4"/><path class="cls-25" d="M161.94,273.58c1.4,4.8,2.8,9.7,4.2,14.5"/><path class="cls-11" d="M64.44,258.38a81.48,81.48,0,0,0,5-24.1c.4-9.3-1.1-14.7-6-46.1-.6-4.1-1.1-7.4-1.5-9.4"/><path class="cls-11" d="M119.24,99.48a49.45,49.45,0,0,1,13.4,5.3,59.5,59.5,0,0,1,14.5,12.3c6.1,7.3,9.5,16.8,10.7,35.2"/><path class="cls-11" d="M158.34,165.88c0,3.3,0,5.9-.1,7.2-.4,40.8-1.2,55.1-.1,78.8.1,2.3.2,4.2.3,5.1"/><path class="cls-11" d="M60.94,165.38a9.5,9.5,0,0,0-6.5-2c-4.2.5-6.2,4.5-7,6.2-2.2,4.6-2,11.4,2.7,15,.6.5,3.9,3.3,7.8,2.3a8.94,8.94,0,0,0,4.4-2.8"/><path class="cls-11" d="M66.64,128.58c.9,4.3,1.5,8,1.8,10.6.9,7.5,2.1,14.6-.1,22.9-.4,1.5-.8,3.1-1.2,4.6l-5.3,1.2c0-.6-.1-1.2-.1-1.8a14.7,14.7,0,0,0-1.3-1"/><path class="cls-11" d="M131.54,98.68c-6.3-.5-15.6-.3-24.8,4.4-7.9,4.1-10.5,8.8-17.7,14.3-5.9,4.5-15.5,10-30.5,12.3"/><path class="cls-11" d="M36.24,162.28a47.87,47.87,0,0,1-10.1-9.9c-1.6-2.1-11.1-15.4-8.3-32.5.6-3.5,1.6-9.5,6.2-15.2,1-1.3,7-8.6,15.7-9.6,2-.2,1.9.1,5.1-.1A47.48,47.48,0,0,0,58,91.78c6.8-2.9,11.1-7.4,15.3-11.9,14.9-15.9,17.8-19.4,20-21.6,14.9-14.9,42.9-17.1,63.7-9.7,4.9,1.8,28.2,10,34.6,31.2.9,2.9,5.9,19.5-4.2,29.8-6,6.1-14.2,6.8-17.3,6.9"/><path class="cls-11" d="M150,121c5.2,3.4,11.7,3.5,16,.3,5.7-4.2,7-13.8,1.4-20.8"/><path class="cls-11" d="M36.54,162.48c4.1,18.7.9,26.8-3.4,30.7-5.7,5.2-14.1,3.4-20.8,11.8a24.41,24.41,0,0,0-4.8,10.4c-.7,2.8-4.5,17.7,5.5,27,5.7,5.4,16,8.9,24.9,4.2,9.7-5.1,11-16.4,11.1-17.3"/><path class="cls-11" d="M57.84,170.28a4.39,4.39,0,0,0-4.9.4,4.6,4.6,0,0,0-1.5,4.8"/><path class="cls-11" d="M66.34,254.18a80.58,80.58,0,0,0,37.4,15.2c27.7,3.7,48.6-8.6,54.7-12.5.3,2.6.8,5.4,1.4,8.3a77.14,77.14,0,0,0,2.1,8.3,85.15,85.15,0,0,1-24.9,11.1,83,83,0,0,1-22.8,2.8"/><path class="cls-11" d="M81,281.28a55.43,55.43,0,0,1-15.2-6.6,54.61,54.61,0,0,1-7.1-5.3c.4-1.1.9-2.3,1.4-3.5q1.05-2.25,2.1-4.2"/><path class="cls-11" d="M150,261.58c.3,2.2.8,4.6,1.4,7.1a80.14,80.14,0,0,0,2.8,9"/><path class="cls-11" d="M138.54,266.18a73.15,73.15,0,0,0,1.9,8.7,50.82,50.82,0,0,0,2.8,7.6"/><path class="cls-11" d="M127,269c.2,2.5.5,5.2.9,8,.5,3.3,1.1,6.4,1.7,9.2"/><path class="cls-11" d="M113.54,270.08c.2,5.5.4,11.1.6,16.6"/><path class="cls-11" d="M100.94,269c-.5,2.9-.9,5.8-1.4,8.7"/><path class="cls-11" d="M87.74,265.58a83.89,83.89,0,0,1-2.7,8c-1.2,3-2.4,5.7-3.7,8.2"/><path class="cls-11" d="M75.44,260a39.32,39.32,0,0,1-3.6,8.7,36.92,36.92,0,0,1-4.2,6.2"/><path class="cls-11" d="M76.44,292.58c.3-2.2,1.6-8.4,6.9-12.5,7.5-5.6,17.8-3,23.5.7a23.78,23.78,0,0,1,6.9,6.9c5.2,7.8,4.9,16.4,4.8,19.4-.6,26.6-1.3,58.6,11.8,67.2,5.1,3.3,12.3,2.7,16.6,0,6.7-4.2,7.1-14.2,7.6-22.2,2-30.3,3.2-49.8,12.5-65.8,2.4-4.2,11.4-19.4,29.1-24.9a45.9,45.9,0,0,1,16.9-1.9"/><path class="cls-11" d="M205.84,264.18a37.86,37.86,0,0,1,15.9-6.8c13.7-2.2,24.2,4.2,27,6"/><path class="cls-11" d="M223.84,257.18c4-3.7,9.6-5.4,15-6.3a60.34,60.34,0,0,1,33.8,4.6"/><path class="cls-11" d="M206.64,284.28c3.3,1.9,6.6,3.8,10,5.7,1.3.5,3.2,1.2,5.4,1.9a81.64,81.64,0,0,0,16,3.4c6.8.7,10,.9,13.1-.4a12.63,12.63,0,0,0,7.4-13.7,7.63,7.63,0,0,0-2.6-4.7c-2.5-1.9-5.6-1.1-9.6-1a36.79,36.79,0,0,1-12.6-1.9"/><path class="cls-11" d="M257.14,289.08c3.3.8,14.9,3.6,22.2,1.4a7.88,7.88,0,0,0,3.5-2.1c2.3-2.6,2.6-7.3.4-10a6.22,6.22,0,0,0-2.5-1.8c-3.7-1.8-7-.3-11.8,0a31.28,31.28,0,0,1-9-.7"/><path class="cls-11" d="M284.14,280.08h1.4a7.25,7.25,0,0,0,6.9-4.8v-.1a9.39,9.39,0,0,0,.7-5.5c-.9-3.2-4.3-4.6-4.8-4.8-4.3-1.8-7.3.9-15.9,1.4a47.5,47.5,0,0,1-5.4,0"/><path class="cls-11" d="M293.14,269.78a8.06,8.06,0,0,0,5.5-1.4,6.53,6.53,0,0,0,2.8-3.5,6.34,6.34,0,0,0-2.8-6.2c-3-2-6.4.1-13.2,1.4a50.73,50.73,0,0,1-13.2.7"/><path class="cls-11" d="M282,260.78c6.8-.7,10.7-3.4,12.5-5,2.4-2.1,2.7-3.4,2.7-4,.1-2.5-2.7-5.1-5.5-5.5-3.2-.5-4.9,2.1-11.1,5.5a61.18,61.18,0,0,1-7.6,3.5"/><path class="cls-11" d="M215.94,290.18a22,22,0,0,0-9,3.5c-11.6,8-11.6,26.3-11.8,34.6-.7,38.6-1.2,68.3-15.2,83.8-15.1,16.7-47.7,18.6-69.2,6.2-21.7-12.5-28.4-37.3-30.4-44.6-3.2-11.6-4-26-4.2-30.2a190,190,0,0,1,0-21.5"/><path class="cls-11" d="M179.74,270.68a35.75,35.75,0,0,0,21.9,28.2"/><path class="cls-11" d="M58.74,269.38q-1.05,11-2.1,22.2c-2.1,24-3.7,47.6-4.8,70.6"/></svg>