<svg id="Layer_1" data-name="Layer 1" xmlns="http://www.w3.org/2000/svg" xmlns:xlink="http://www.w3.org/1999/xlink" viewBox="0 0 501.5 429.47"><defs><style>.cls-1,.cls-5{fill:none;}.cls-2{fill:#f2f2f2;}.cls-3{clip-path:url(#clip-path);}.cls-4{fill:#e0f8fc;}.cls-5,.cls-6{stroke:#603a19;stroke-miterlimit:10;}.cls-5{stroke-width:4.2px;}.cls-6{fill:#603a19;stroke-width:4.76px;}.cls-7{fill:#fff;}</style><clipPath id="clip-path"><path class="cls-1" d="M73.87,219.49a16.65,16.65,0,0,1,.79-20.58c24.22-28.78,86.35-91.69,176.08-91.69,19.41,0,102.37,3,176.22,91.69a16.63,16.63,0,0,1,.65,20.45c-22,30.21-84.14,102.89-176.87,102.89S95.88,249.7,73.87,219.49Z"/></clipPath></defs><path class="cls-2" d="M73.87,219.49a16.65,16.65,0,0,1,.79-20.58c24.22-28.78,86.35-91.69,176.08-91.69,19.41,0,102.37,3,176.22,91.69a16.63,16.63,0,0,1,.65,20.45c-22,30.21-84.14,102.89-176.87,102.89S95.88,249.7,73.87,219.49Z"/><g class="cls-3"><circle class="cls-4" cx="250.74" cy="214.8" r="110.05"/><circle class="cls-5" cx="250.74" cy="214.8" r="110.05"/></g><path class="cls-5" d="M73.87,219.49a16.65,16.65,0,0,1,.79-20.58c24.22-28.78,86.35-91.69,176.08-91.69,19.41,0,102.37,3,176.22,91.69a16.63,16.63,0,0,1,.65,20.45c-22,30.21-84.14,102.89-176.87,102.89S95.88,249.7,73.87,219.49Z"/><circle class="cls-6" cx="250.35" cy="215.19" r="61.21"/><path class="cls-2" d="M213.62,245.67a10.45,10.45,0,0,1-9.24-5.6c-2-3.78-11.21-24.1-1.44-45.59a52.34,52.34,0,0,1,23.84-24.74,10.36,10.36,0,1,1,9.37,18.49,32.06,32.06,0,0,0-14.45,14.85c-5.86,12.89-.13,25.39,1,27.74a10.39,10.39,0,0,1-4.56,13.93A12.69,12.69,0,0,1,213.62,245.67Z"/><ellipse class="cls-2" cx="257.77" cy="174.42" rx="11.98" ry="10.81"/><path class="cls-7" d="M130.66,259.6c-3.26,2-8.34-1-10.94-2.6-11.72-7-25.14-23.71-24.88-45.2,0,0,.26-17.19,16.28-37.51a9.34,9.34,0,0,1,3.52-2.73A10.3,10.3,0,0,1,126,174c3.78,3.78,2.34,10.16,1.56,16.41-1.3,12.25,2.09,9.38,5.34,50C133.78,251.66,134.05,257.65,130.66,259.6Z"/></svg>