<svg id="Layer_1" data-name="Layer 1" xmlns="http://www.w3.org/2000/svg" xmlns:xlink="http://www.w3.org/1999/xlink" viewBox="0 0 501.5 429.47"><defs><style>.cls-1,.cls-6{fill:none;}.cls-2{fill:#e8e7e7;}.cls-3{clip-path:url(#clip-path);}.cls-4{fill:#f2f2f2;opacity:0.83;}.cls-10,.cls-4{isolation:isolate;}.cls-5{fill:#dcdbd6;}.cls-6{stroke:#603a19;stroke-miterlimit:10;stroke-width:4px;}.cls-7{fill:#e0f8fc;}.cls-8{clip-path:url(#clip-path-3);}.cls-9{fill:#edf8f9;}.cls-10{fill:#c3e7ef;opacity:0.35;}.cls-11{clip-path:url(#clip-path-5);}.cls-12{clip-path:url(#clip-path-7);}</style><clipPath id="clip-path"><path class="cls-1" d="M356.1,141.18l-237.3,1a2.73,2.73,0,0,1-2.8-2.8L115.7,72a2.73,2.73,0,0,1,2.8-2.8l237.4-.9a2.73,2.73,0,0,1,2.8,2.8l.3,67.4A2.87,2.87,0,0,1,356.1,141.18Z"/></clipPath><clipPath id="clip-path-3"><path class="cls-1" d="M435,287.68H197.6a2.8,2.8,0,0,1-2.8-2.8v-67.4a2.8,2.8,0,0,1,2.8-2.8H435a2.8,2.8,0,0,1,2.8,2.8v67.4A2.86,2.86,0,0,1,435,287.68Z"/></clipPath><clipPath id="clip-path-5"><path class="cls-1" d="M356.1,215.18H118.7a2.8,2.8,0,0,1-2.8-2.8V145a2.8,2.8,0,0,1,2.8-2.8H356.1a2.8,2.8,0,0,1,2.8,2.8v67.4A2.8,2.8,0,0,1,356.1,215.18Z"/></clipPath><clipPath id="clip-path-7"><path class="cls-1" d="M356.1,361.18H118.7a2.8,2.8,0,0,1-2.8-2.8V291a2.8,2.8,0,0,1,2.8-2.8H356.1a2.8,2.8,0,0,1,2.8,2.8v67.4A2.8,2.8,0,0,1,356.1,361.18Z"/></clipPath></defs><path class="cls-2" d="M356.1,141.18l-237.3,1a2.73,2.73,0,0,1-2.8-2.8L115.7,72a2.73,2.73,0,0,1,2.8-2.8l237.4-.9a2.73,2.73,0,0,1,2.8,2.8l.3,67.4A2.87,2.87,0,0,1,356.1,141.18Z"/><g class="cls-3"><path class="cls-4" d="M130.8,148.68h-23v-93l53,6c-3.3,3-6.7,6-10,9-1.5-.2-9.9-.9-16,5l-.1.1a13.44,13.44,0,0,0-3.9,9.7v51.4a4.44,4.44,0,0,0,1,2.9c1.1,1.4,2.5,1.2,3,2S134.8,144.38,130.8,148.68Z"/></g><g class="cls-3"><polygon class="cls-5" points="222.8 48.69 339.8 394.69 472.8 394.69 472.8 46.69 222.8 48.69"/></g><path class="cls-6" d="M356.1,141.18l-237.3,1a2.73,2.73,0,0,1-2.8-2.8L115.7,72a2.73,2.73,0,0,1,2.8-2.8l237.4-.9a2.73,2.73,0,0,1,2.8,2.8l.3,67.4A2.87,2.87,0,0,1,356.1,141.18Z"/><path class="cls-7" d="M435,287.68H197.6a2.8,2.8,0,0,1-2.8-2.8v-67.4a2.8,2.8,0,0,1,2.8-2.8H435a2.8,2.8,0,0,1,2.8,2.8v67.4A2.86,2.86,0,0,1,435,287.68Z"/><g class="cls-8"><path class="cls-9" d="M408.8,292.68a44,44,0,0,0,13-17c3.3-8,3.2-15.1,3-20-1-23.9-5.3-50.4-7-60,13.3,5,26.7,10,40,15l-3,85Z"/></g><g class="cls-8"><polygon class="cls-10" points="222.8 49.69 339.8 395.69 472.8 395.69 472.8 47.69 222.8 49.69"/></g><path class="cls-6" d="M435,287.68H197.6a2.8,2.8,0,0,1-2.8-2.8v-67.4a2.8,2.8,0,0,1,2.8-2.8H435a2.8,2.8,0,0,1,2.8,2.8v67.4A2.86,2.86,0,0,1,435,287.68Z"/><path class="cls-2" d="M356.1,215.18H118.7a2.8,2.8,0,0,1-2.8-2.8V145a2.8,2.8,0,0,1,2.8-2.8H356.1a2.8,2.8,0,0,1,2.8,2.8v67.4A2.8,2.8,0,0,1,356.1,215.18Z"/><g class="cls-11"><path class="cls-4" d="M131.8,224.68h-23v-93h23l6,12a4.56,4.56,0,0,0-5,1,4.3,4.3,0,0,0-1,3.1v54.9a12.54,12.54,0,0,0,3,8,13.67,13.67,0,0,0,13,4C142.5,218,137.1,221.38,131.8,224.68Z"/></g><g class="cls-11"><polygon class="cls-5" points="222.8 38.69 339.8 384.69 472.8 384.69 472.8 36.69 222.8 38.69"/></g><path class="cls-6" d="M356.1,215.18H118.7a2.8,2.8,0,0,1-2.8-2.8V145a2.8,2.8,0,0,1,2.8-2.8H356.1a2.8,2.8,0,0,1,2.8,2.8v67.4A2.8,2.8,0,0,1,356.1,215.18Z"/><path class="cls-2" d="M356.1,361.18H118.7a2.8,2.8,0,0,1-2.8-2.8V291a2.8,2.8,0,0,1,2.8-2.8H356.1a2.8,2.8,0,0,1,2.8,2.8v67.4A2.8,2.8,0,0,1,356.1,361.18Z"/><g class="cls-12"><path class="cls-4" d="M130.8,369.68h-23v-93h23c2.3,4,4.7,8,7,12a15.28,15.28,0,0,0-5,5,14.05,14.05,0,0,0-2,6.4v54.6a5.07,5.07,0,0,0,1,3c1.6,2.2,4.3,1.7,5,3C137.4,361.68,136.7,364.08,130.8,369.68Z"/></g><g class="cls-12"><polygon class="cls-5" points="222.8 33.69 339.8 379.69 472.8 379.69 472.8 31.68 222.8 33.69"/></g><path class="cls-6" d="M356.1,361.18H118.7a2.8,2.8,0,0,1-2.8-2.8V291a2.8,2.8,0,0,1,2.8-2.8H356.1a2.8,2.8,0,0,1,2.8,2.8v67.4A2.8,2.8,0,0,1,356.1,361.18Z"/></svg>