<svg id="Layer_1" data-name="Layer 1" xmlns="http://www.w3.org/2000/svg" xmlns:xlink="http://www.w3.org/1999/xlink" viewBox="0 0 501.5 429.47"><defs><style>.cls-1,.cls-10,.cls-11,.cls-14,.cls-15,.cls-5,.cls-6,.cls-8{fill:none;}.cls-2{fill:#e8e7e7;}.cls-3{clip-path:url(#clip-path);}.cls-4{fill:#603a19;}.cls-10,.cls-11,.cls-14,.cls-15,.cls-5,.cls-6{stroke:#603b1b;stroke-linecap:round;stroke-linejoin:round;}.cls-10,.cls-14,.cls-5{stroke-width:1.82px;}.cls-5{stroke-dasharray:2 10;}.cls-11,.cls-6{stroke-width:2px;}.cls-6{stroke-dasharray:2 20;}.cls-7{fill:#aaaba8;}.cls-16,.cls-7{opacity:0.35;isolation:isolate;}.cls-8{stroke:#603a19;stroke-miterlimit:10;stroke-width:4px;}.cls-9{clip-path:url(#clip-path-3);}.cls-10,.cls-11{stroke-dasharray:7 7;}.cls-12{fill:#e0f8fc;}.cls-13{clip-path:url(#clip-path-5);}.cls-15{stroke-width:3px;}.cls-16{fill:#c3e7ef;}</style><clipPath id="clip-path"><path class="cls-1" d="M267.22,288.4H73.92a5.27,5.27,0,0,1-5.3-5.3V23.8a5.27,5.27,0,0,1,5.3-5.3h193.3a5.27,5.27,0,0,1,5.3,5.3V283.1A5.21,5.21,0,0,1,267.22,288.4Z"/></clipPath><clipPath id="clip-path-3"><path class="cls-1" d="M338,337.5H144.62a5.27,5.27,0,0,1-5.3-5.3V72.9a5.27,5.27,0,0,1,5.3-5.3h193.3a5.27,5.27,0,0,1,5.3,5.3V332.2A5.19,5.19,0,0,1,338,337.5Z"/></clipPath><clipPath id="clip-path-5"><path class="cls-1" d="M440,409.5H246.62a5.27,5.27,0,0,1-5.3-5.3V144.9a5.27,5.27,0,0,1,5.3-5.3h193.3a5.27,5.27,0,0,1,5.3,5.3V404.2A5.19,5.19,0,0,1,440,409.5Z"/></clipPath></defs><path class="cls-2" d="M267.22,288.4H73.92a5.27,5.27,0,0,1-5.3-5.3V23.8a5.27,5.27,0,0,1,5.3-5.3h193.3a5.27,5.27,0,0,1,5.3,5.3V283.1A5.21,5.21,0,0,1,267.22,288.4Z"/><g class="cls-3"><circle class="cls-4" cx="163.52" cy="96.6" r="1.7"/><circle class="cls-4" cx="148.02" cy="96.6" r="1.7"/><path class="cls-5" d="M238.12,205.5c-3.7-14.7-6.6-25.7-8-30.4a22,22,0,0,0-2.5-5.6,26.68,26.68,0,0,0-4.8-5.4c-1.7-1.5-3.1-2.4-3.6-2.8-3.6-2.4-12.7-8.1-24.9-15.6"/><path class="cls-5" d="M207.52,185.9a37.1,37.1,0,0,1,3.3,12,42.46,42.46,0,0,1,0,8"/><path class="cls-5" d="M198.62,98.5a15,15,0,0,0,3.9-7.4,17.4,17.4,0,0,0-.1-6,20.12,20.12,0,0,0-1.2-3.7c.3,0,2.6.4,3.6-1,.3-.4.6-1.1.3-1.5-.1-.2-.4-.3-1.5-.2a9.69,9.69,0,0,0-3.3,1.1,4.06,4.06,0,0,0-.9-1,.1.1,0,0,1-.1-.1,2,2,0,0,0-1.5-.1,4.52,4.52,0,0,0,1.9-1.5,4.87,4.87,0,0,0,.6-2.5,10.13,10.13,0,0,0-1.8-5.5c-1.9-2.4-3.8-2.2-8.1-5.1a34.67,34.67,0,0,1-3.8-3c-6.8-5.7-10.2-10.2-13.6-13-5.4-4.4-15.9-8.8-24.7-4.6a18.6,18.6,0,0,0-10.4,15.3c-.5,7.6,4,15,11.6,18.7a19.14,19.14,0,0,0-1.1,5.7,18.47,18.47,0,0,0,.2,4.2"/><path class="cls-5" d="M194.12,145.7a43.44,43.44,0,0,1-2.5-11.9c-.2-4.6.5-7.3,2.9-22.8.3-2,.6-3.6.7-4.7"/><path class="cls-5" d="M167,67.1a26.08,26.08,0,0,0-6.6,2.6,30.53,30.53,0,0,0-7.2,6.1c-3,3.6-4.7,9.3-5.3,18.4"/><path class="cls-5" d="M147.72,100v3.5c.2,19.7.5,27.2,0,39v.8"/><path class="cls-5" d="M195.82,99.7a4.7,4.7,0,0,1,3.2-1c2.1.2,3,2.2,3.5,3.1,1.1,2.3,1,5.6-1.3,7.4a4.72,4.72,0,0,1-3.9,1.1,4.37,4.37,0,0,1-2.2-1.4"/><path class="cls-5" d="M193,81.5c-.5,2.1-.7,4-.9,5.3-.5,3.7-1.1,7.2,0,11.3.2.8.4,1.5.6,2.3l2.6.6a2.77,2.77,0,0,1,.1-.9c.2-.2.4-.3.6-.5"/><path class="cls-5" d="M160.92,66.7a22.81,22.81,0,0,1,12.3,2.2c3.9,2,5.2,4.4,8.7,7.1A32.82,32.82,0,0,0,197,82.1"/><path class="cls-5" d="M162.92,157.1a27.76,27.76,0,0,0,7.5,1.1,28.3,28.3,0,0,0,7.5-1"/><path class="cls-5" d="M103.62,206.4c.7-3.5,1.8-8.9,2.7-15.5,1.8-12.4,1.1-14.1,3-19.3A39.78,39.78,0,0,1,122,154.4c4.8-3.7,9.8-5.5,15.4-7.7a65.6,65.6,0,0,1,8.5-2.7"/><path class="cls-5" d="M147.62,143.5a24.42,24.42,0,0,0,21.1,11.7c-4.3.3-7.9,2.7-9.1,6.1a9.14,9.14,0,0,0,0,5.5,49.81,49.81,0,0,1-12.7-15.7,49,49,0,0,1-2.8-6.5A35.8,35.8,0,0,1,147.62,143.5Z"/><path class="cls-5" d="M194.12,145.7a35,35,0,0,1-8.7,6,33.46,33.46,0,0,1-12.7,3.5,8.14,8.14,0,0,1,5.6,2.4,8.38,8.38,0,0,1,1.5,9,41.64,41.64,0,0,0,13.5-14.9,30.55,30.55,0,0,0,2.2-5A7.1,7.1,0,0,0,194.12,145.7Z"/><path class="cls-5" d="M153.12,100.8a4,4,0,0,0,3.4,1.2,3.91,3.91,0,0,0,2.8-2.2"/><line class="cls-5" x1="168.72" y1="155.2" x2="172.72" y2="155.2"/><circle class="cls-5" cx="170.32" cy="156.3" r="0.8"/><path class="cls-5" d="M197.12,102a2.31,2.31,0,0,1,2.4.2,2.19,2.19,0,0,1,.7,2.4"/><path class="cls-5" d="M126,205.5c-.1-.7-.2-1.4-.3-2.2a56.18,56.18,0,0,1-.4-9"/><line class="cls-6" x1="103.12" y1="227.1" x2="238.12" y2="227.1"/><line class="cls-6" x1="103.12" y1="246.5" x2="238.12" y2="246.5"/><line class="cls-6" x1="103.12" y1="265.8" x2="238.12" y2="265.8"/></g><g class="cls-3"><path class="cls-7" d="M272.12,288.9l-142.3-.9c2.3-108.8,1.8-188.5,1-211a134.52,134.52,0,0,0-9-46,123.19,123.19,0,0,0-6-13l156.3.9Z"/></g><path class="cls-8" d="M267.22,288.4H73.92a5.27,5.27,0,0,1-5.3-5.3V23.8a5.27,5.27,0,0,1,5.3-5.3h193.3a5.27,5.27,0,0,1,5.3,5.3V283.1A5.21,5.21,0,0,1,267.22,288.4Z"/><path class="cls-2" d="M338,337.5H144.62a5.27,5.27,0,0,1-5.3-5.3V72.9a5.27,5.27,0,0,1,5.3-5.3h193.3a5.27,5.27,0,0,1,5.3,5.3V332.2A5.19,5.19,0,0,1,338,337.5Z"/><g class="cls-9"><circle class="cls-4" cx="234.22" cy="145.7" r="1.7"/><circle class="cls-4" cx="218.72" cy="145.7" r="1.7"/><path class="cls-10" d="M308.82,254.6c-3.7-14.7-6.6-25.7-8-30.4a22,22,0,0,0-2.5-5.6,26.68,26.68,0,0,0-4.8-5.4c-1.7-1.5-3.1-2.4-3.6-2.8-3.6-2.4-12.7-8.1-24.9-15.6"/><path class="cls-10" d="M278.32,235a37.1,37.1,0,0,1,3.3,12,42.46,42.46,0,0,1,0,8"/><path class="cls-10" d="M269.42,147.6a15,15,0,0,0,3.9-7.4,17.4,17.4,0,0,0-.1-6,20.12,20.12,0,0,0-1.2-3.7c.3,0,2.6.4,3.6-1,.3-.4.6-1.1.3-1.5-.1-.2-.4-.3-1.5-.2a9.69,9.69,0,0,0-3.3,1.1,4.06,4.06,0,0,0-.9-1,.1.1,0,0,1-.1-.1,2,2,0,0,0-1.5-.1,4.52,4.52,0,0,0,1.9-1.5,4.87,4.87,0,0,0,.6-2.5,10.13,10.13,0,0,0-1.8-5.5c-1.9-2.4-3.8-2.2-8.1-5.1a34.67,34.67,0,0,1-3.8-3c-6.8-5.7-10.2-10.2-13.6-13-5.4-4.4-15.9-8.8-24.7-4.6a18.6,18.6,0,0,0-10.4,15.3c-.5,7.6,4,15,11.6,18.7a19.14,19.14,0,0,0-1.1,5.7,18.47,18.47,0,0,0,.2,4.2"/><path class="cls-10" d="M264.92,194.8a43.44,43.44,0,0,1-2.5-11.9c-.2-4.6.5-7.3,2.9-22.8.3-2,.6-3.6.7-4.7"/><path class="cls-10" d="M237.82,116.2a26.08,26.08,0,0,0-6.6,2.6,30.53,30.53,0,0,0-7.2,6.1c-3,3.6-4.7,9.3-5.3,18.4"/><path class="cls-10" d="M218.42,149.1v3.5c.2,19.7.5,27.2,0,39v.8"/><path class="cls-10" d="M266.62,148.8a4.7,4.7,0,0,1,3.2-1c2.1.2,3,2.2,3.5,3.1,1.1,2.3,1,5.6-1.3,7.4a4.72,4.72,0,0,1-3.9,1.1,4.37,4.37,0,0,1-2.2-1.4"/><path class="cls-10" d="M263.72,130.6c-.5,2.1-.7,4-.9,5.3-.5,3.7-1.1,7.2,0,11.3.2.8.4,1.5.6,2.3l2.6.6a2.77,2.77,0,0,1,.1-.9c.2-.2.4-.3.6-.5"/><path class="cls-10" d="M231.72,115.8A22.81,22.81,0,0,1,244,118c3.9,2,5.2,4.4,8.7,7.1a32.82,32.82,0,0,0,15.1,6.1"/><path class="cls-10" d="M233.62,206.2a27.76,27.76,0,0,0,7.5,1.1,28.3,28.3,0,0,0,7.5-1"/><path class="cls-10" d="M174.32,255.5c.7-3.5,1.8-8.9,2.7-15.5,1.8-12.4,1.1-14.1,3-19.3a39.78,39.78,0,0,1,12.7-17.2c4.8-3.7,9.8-5.5,15.4-7.7a65.6,65.6,0,0,1,8.5-2.7"/><path class="cls-10" d="M218.32,192.6a24.42,24.42,0,0,0,21.1,11.7c-4.3.3-7.9,2.7-9.1,6.1a9.14,9.14,0,0,0,0,5.5,49.81,49.81,0,0,1-12.7-15.7,49,49,0,0,1-2.8-6.5C216,193.3,217.22,192.9,218.32,192.6Z"/><path class="cls-10" d="M264.92,194.8a35,35,0,0,1-8.7,6,33.46,33.46,0,0,1-12.7,3.5,8.14,8.14,0,0,1,5.6,2.4,8.38,8.38,0,0,1,1.5,9,41.64,41.64,0,0,0,13.5-14.9,30.55,30.55,0,0,0,2.2-5A7.1,7.1,0,0,0,264.92,194.8Z"/><path class="cls-10" d="M223.82,149.9a4,4,0,0,0,3.4,1.2,3.91,3.91,0,0,0,2.8-2.2"/><line class="cls-10" x1="239.42" y1="204.3" x2="243.52" y2="204.3"/><circle class="cls-10" cx="241.12" cy="205.4" r="0.8"/><path class="cls-10" d="M267.92,151.1a2.31,2.31,0,0,1,2.4.2,2.19,2.19,0,0,1,.7,2.4"/><path class="cls-10" d="M196.82,254.6c-.1-.7-.2-1.4-.3-2.2a56.18,56.18,0,0,1-.4-9"/><line class="cls-11" x1="173.82" y1="276.2" x2="308.82" y2="276.2"/><line class="cls-11" x1="173.82" y1="295.6" x2="308.82" y2="295.6"/><line class="cls-11" x1="173.82" y1="314.9" x2="308.82" y2="314.9"/></g><g class="cls-9"><path class="cls-7" d="M342.82,338h-116c3.9-104,5.2-180.9,6-208,.2-8.6.9-29.2-9-52-1.9-4.4-3.8-7.8-5-10h124Z"/></g><path class="cls-8" d="M338,337.5H144.62a5.27,5.27,0,0,1-5.3-5.3V72.9a5.27,5.27,0,0,1,5.3-5.3h193.3a5.27,5.27,0,0,1,5.3,5.3V332.2A5.19,5.19,0,0,1,338,337.5Z"/><path class="cls-12" d="M440,409.5H246.62a5.27,5.27,0,0,1-5.3-5.3V144.9a5.27,5.27,0,0,1,5.3-5.3h193.3a5.27,5.27,0,0,1,5.3,5.3V404.2A5.19,5.19,0,0,1,440,409.5Z"/><g class="cls-13"><circle class="cls-4" cx="336.22" cy="217.7" r="1.7"/><circle class="cls-4" cx="320.72" cy="217.7" r="1.7"/><path class="cls-14" d="M410.82,326.6c-3.7-14.7-6.6-25.7-8-30.4a22,22,0,0,0-2.5-5.6,26.68,26.68,0,0,0-4.8-5.4c-1.7-1.5-3.1-2.4-3.6-2.8-3.6-2.4-12.7-8.1-24.9-15.6"/><path class="cls-14" d="M380.32,307a37.1,37.1,0,0,1,3.3,12,42.46,42.46,0,0,1,0,8"/><path class="cls-14" d="M371.42,219.6a15,15,0,0,0,3.9-7.4,17.4,17.4,0,0,0-.1-6,20.12,20.12,0,0,0-1.2-3.7c.3,0,2.6.4,3.6-1,.3-.4.6-1.1.3-1.5-.1-.2-.4-.3-1.5-.2a9.69,9.69,0,0,0-3.3,1.1,4.06,4.06,0,0,0-.9-1,.1.1,0,0,1-.1-.1,2,2,0,0,0-1.5-.1,4.52,4.52,0,0,0,1.9-1.5,4.87,4.87,0,0,0,.6-2.5,10.13,10.13,0,0,0-1.8-5.5c-1.9-2.4-3.8-2.2-8.1-5.1a34.67,34.67,0,0,1-3.8-3c-6.8-5.7-10.2-10.2-13.6-13-5.4-4.4-15.9-8.8-24.7-4.6a18.6,18.6,0,0,0-10.4,15.3c-.5,7.6,4,15,11.6,18.7a19.14,19.14,0,0,0-1.1,5.7,18.47,18.47,0,0,0,.2,4.2"/><path class="cls-14" d="M366.92,266.8a43.44,43.44,0,0,1-2.5-11.9c-.2-4.6.5-7.3,2.9-22.8.3-2,.6-3.6.7-4.7"/><path class="cls-14" d="M339.82,188.2a26.08,26.08,0,0,0-6.6,2.6,30.53,30.53,0,0,0-7.2,6.1c-3,3.6-4.7,9.3-5.3,18.4"/><path class="cls-14" d="M320.42,221.1v3.5c.2,19.7.5,27.2,0,39v.8"/><path class="cls-14" d="M368.62,220.8a4.7,4.7,0,0,1,3.2-1c2.1.2,3,2.2,3.5,3.1,1.1,2.3,1,5.6-1.3,7.4a4.72,4.72,0,0,1-3.9,1.1,4.37,4.37,0,0,1-2.2-1.4"/><path class="cls-14" d="M365.72,202.6c-.5,2.1-.7,4-.9,5.3-.5,3.7-1.1,7.2,0,11.3.2.8.4,1.5.6,2.3l2.6.6a2.77,2.77,0,0,1,.1-.9c.2-.2.4-.3.6-.5"/><path class="cls-14" d="M333.72,187.8A22.81,22.81,0,0,1,346,190c3.9,2,5.2,4.4,8.7,7.1a32.82,32.82,0,0,0,15.1,6.1"/><path class="cls-14" d="M335.62,278.2a27.76,27.76,0,0,0,7.5,1.1,28.3,28.3,0,0,0,7.5-1"/><path class="cls-14" d="M276.32,327.5c.7-3.5,1.8-8.9,2.7-15.5,1.8-12.4,1.1-14.1,3-19.3a39.78,39.78,0,0,1,12.7-17.2c4.8-3.7,9.8-5.5,15.4-7.7a65.6,65.6,0,0,1,8.5-2.7"/><path class="cls-14" d="M320.32,264.6a24.42,24.42,0,0,0,21.1,11.7c-4.3.3-7.9,2.7-9.1,6.1a9.14,9.14,0,0,0,0,5.5,49.81,49.81,0,0,1-12.7-15.7,49,49,0,0,1-2.8-6.5C318,265.3,319.22,264.9,320.32,264.6Z"/><path class="cls-14" d="M366.92,266.8a35,35,0,0,1-8.7,6,33.46,33.46,0,0,1-12.7,3.5,8.14,8.14,0,0,1,5.6,2.4,8.38,8.38,0,0,1,1.5,9,41.64,41.64,0,0,0,13.5-14.9,30.55,30.55,0,0,0,2.2-5A7.1,7.1,0,0,0,366.92,266.8Z"/><path class="cls-14" d="M325.82,221.9a4,4,0,0,0,3.4,1.2,3.91,3.91,0,0,0,2.8-2.2"/><line class="cls-14" x1="341.42" y1="276.3" x2="345.52" y2="276.3"/><circle class="cls-14" cx="343.12" cy="277.4" r="0.8"/><path class="cls-14" d="M369.92,223.1a2.31,2.31,0,0,1,2.4.2,2.19,2.19,0,0,1,.7,2.4"/><path class="cls-14" d="M298.82,326.6c-.1-.7-.2-1.4-.3-2.2a56.18,56.18,0,0,1-.4-9"/></g><g class="cls-13"><line class="cls-15" x1="275.82" y1="348.2" x2="410.82" y2="348.2"/></g><g class="cls-13"><line class="cls-15" x1="275.82" y1="367.6" x2="410.82" y2="367.6"/></g><g class="cls-13"><line class="cls-15" x1="275.82" y1="386.9" x2="410.82" y2="386.9"/></g><g class="cls-13"><path class="cls-16" d="M445.82,409c-14.3.3-28.7.7-43,1-1.9-112.4-5-196-8-224a46.31,46.31,0,0,0-6-19c-11.5-19.5-36.3-25.8-53-28h110Z"/></g><path class="cls-8" d="M440,409.5H246.62a5.27,5.27,0,0,1-5.3-5.3V144.9a5.27,5.27,0,0,1,5.3-5.3h193.3a5.27,5.27,0,0,1,5.3,5.3V404.2A5.19,5.19,0,0,1,440,409.5Z"/></svg>