<svg id="Layer_1" data-name="Layer 1" xmlns="http://www.w3.org/2000/svg" xmlns:xlink="http://www.w3.org/1999/xlink" viewBox="0 0 501.5 429.47"><defs><style>.cls-1,.cls-15,.cls-16{fill:none;}.cls-2{fill:#e0daa1;}.cls-3{clip-path:url(#clip-path);}.cls-4{fill:#eae5c7;}.cls-5{fill:#7f7f7f;opacity:0.17;}.cls-14,.cls-5,.cls-8{isolation:isolate;}.cls-6{fill:#e8e7e7;}.cls-7{clip-path:url(#clip-path-4);}.cls-8{fill:#f2f2f2;opacity:0.83;}.cls-9{clip-path:url(#clip-path-5);}.cls-10{clip-path:url(#clip-path-6);}.cls-11{fill:#dcdbd6;}.cls-12{fill:#e0f8fc;}.cls-13{clip-path:url(#clip-path-7);}.cls-14{fill:#c3e7ef;opacity:0.35;}.cls-15,.cls-16{stroke:#603a19;stroke-width:4px;}.cls-15{stroke-miterlimit:10;}.cls-16{stroke-linejoin:round;}</style><clipPath id="clip-path"><path class="cls-1" d="M330.61,112.26v70.8H295v-70.8c.3-24.1-21.7-43-45.5-41.5-21.9,1.3-40.1,19.5-39.7,41.5v70.8h-35.6v-70.8c.8-39.1,32.9-70.7,71.2-73.9C288.31,34.86,329.31,68.06,330.61,112.26Z"/></clipPath><clipPath id="clip-path-4"><path class="cls-1" d="M303.78,95.09v233.7a8.71,8.71,0,0,1-8.7,8.7H81.58a8.71,8.71,0,0,1-8.7-8.7V95.09a8.71,8.71,0,0,1,8.7-8.7h213.5A8.64,8.64,0,0,1,303.78,95.09Z"/></clipPath><clipPath id="clip-path-5"><path class="cls-1" d="M342.57,128.31V362a8.71,8.71,0,0,1-8.7,8.7H120.37a8.71,8.71,0,0,1-8.7-8.7V128.31a8.71,8.71,0,0,1,8.7-8.7h213.5A8.64,8.64,0,0,1,342.57,128.31Z"/></clipPath><clipPath id="clip-path-6"><path class="cls-1" d="M369.41,391.06H135.71a8.71,8.71,0,0,1-8.7-8.7V168.86a8.71,8.71,0,0,1,8.7-8.7h233.7a8.71,8.71,0,0,1,8.7,8.7v213.5A8.64,8.64,0,0,1,369.41,391.06Z"/></clipPath><clipPath id="clip-path-7"><path class="cls-1" d="M287.41,331.56h-67.9a3.32,3.32,0,0,1-3-4.7l22.7-48.7a5.38,5.38,0,0,0-1.9-6.8,28.24,28.24,0,1,1,32.1-.4,5.46,5.46,0,0,0-1.8,6.8l22.9,49.2A3.28,3.28,0,0,1,287.41,331.56Z"/></clipPath></defs><path class="cls-2" d="M330.61,112.26v70.8H295v-70.8c.3-24.1-21.7-43-45.5-41.5-21.9,1.3-40.1,19.5-39.7,41.5v70.8h-35.6v-70.8c.8-39.1,32.9-70.7,71.2-73.9C288.31,34.86,329.31,68.06,330.61,112.26Z"/><g class="cls-3"><path class="cls-4" d="M173.61,159.26h11c-.1-13.2-.3-26.5-.4-39.7-.3-29,18.2-55.6,47.2-66.4.7-.3,1.4-.5,2.2-.8,36.8-12.5,68,4.3,72,6.5-3.3-3-29.4-25.6-65-20.4-24.5,3.6-39.3,18.4-45,24.2C159.71,98.86,171.91,152.16,173.61,159.26Z"/></g><g class="cls-3"><rect class="cls-5" x="164.61" y="149.96" width="54" height="18.6"/></g><g class="cls-3"><rect class="cls-5" x="283.61" y="149.06" width="56" height="17.7"/></g><path class="cls-6" d="M369.41,391.06H135.71a8.71,8.71,0,0,1-8.7-8.7V168.86a8.71,8.71,0,0,1,8.7-8.7h233.7a8.71,8.71,0,0,1,8.7,8.7v213.5A8.64,8.64,0,0,1,369.41,391.06Z"/><g class="cls-7"><rect class="cls-8" x="174.58" y="152.79" width="28" height="246.2"/></g><g class="cls-9"><rect class="cls-8" x="215.57" y="150.01" width="18" height="246.2"/></g><g class="cls-10"><path class="cls-11" d="M420.61,412.46c-32.5-.8-65-1.5-97.5-2.3,8.7-6.1,20.8-16.5,29-32.5a.1.1,0,0,1,.1-.1,47.19,47.19,0,0,0,5-20.8l.9-168.9a43.63,43.63,0,0,0-6.9-23.7l-.1-.1a166.48,166.48,0,0,0-33-37.2l102.5-3.3Z"/></g><path class="cls-12" d="M287.41,331.56h-67.9a3.32,3.32,0,0,1-3-4.7l22.7-48.7a5.38,5.38,0,0,0-1.9-6.8,28.24,28.24,0,1,1,32.1-.4,5.46,5.46,0,0,0-1.8,6.8l22.9,49.2A3.28,3.28,0,0,1,287.41,331.56Z"/><g class="cls-13"><path class="cls-14" d="M250.11,342.26h49.3v-136c-26.2,3.6-52.4,7.1-78.7,10.7,26,.3,44,17.4,44,33.3,0,9.9-6.9,17.8-11.4,21.8a6.55,6.55,0,0,0-1.8,7.1c3.1,8.9,6.2,17.8,9.2,26.6a30,30,0,0,1-4.4,27.9C254.31,336.56,252.21,339.36,250.11,342.26Z"/></g><path class="cls-15" d="M287.41,331.56h-67.9a3.32,3.32,0,0,1-3-4.7l22.7-48.7a5.38,5.38,0,0,0-1.9-6.8,28.24,28.24,0,1,1,32.1-.4,5.46,5.46,0,0,0-1.8,6.8l22.9,49.2A3.28,3.28,0,0,1,287.41,331.56Z"/><path class="cls-16" d="M369.61,158.36h-38.1v-46.3c-1.2-44.2-42.3-77.4-85.3-73.9-38.4,3.1-70.4,34.7-71.2,73.9v46.3h-38.4c-5,0-9,3.8-9,8.4v216.4c0,4.6,4.1,8.4,9,8.4h233c5,0,9-3.8,9-8.4V166.76C378.61,162.16,374.51,158.36,369.61,158.36Zm-159-46.3c-.4-22,17.9-40.2,39.7-41.5,23.9-1.5,45.8,17.4,45.5,41.5v46.3h-85.2Z"/></svg>